<svg width="443" height="310" viewBox="0 0 443 310" fill="none" xmlns="http://www.w3.org/2000/svg">
<rect x="0.5" y="0.5" width="442" height="309" rx="39.5" stroke="#FEFEFE" stroke-linecap="square" stroke-dasharray="10 10 10 10"/>
<path d="M245.853 43.6471C241.929 43.6471 239.738 47.5436 240.631 50.4389L231.025 60.0718C230.213 59.8283 229.022 59.8283 228.211 60.0718L221.311 53.1718C222.231 50.2765 220.039 46.353 216.088 46.353C212.165 46.353 209.946 50.2494 210.866 53.1718L198.527 65.4836C195.632 64.5906 191.735 66.7824 191.735 70.7059C191.735 73.6824 194.171 76.1177 197.147 76.1177C201.071 76.1177 203.262 72.2212 202.369 69.3259L214.681 56.9871C215.493 57.2306 216.684 57.2306 217.495 56.9871L224.395 63.8871C223.475 66.7824 225.667 70.7059 229.618 70.7059C233.541 70.7059 235.76 66.8094 234.84 63.8871L244.473 54.2812C247.368 55.1742 251.265 52.9824 251.265 49.0589C251.265 46.0824 248.829 43.6471 245.853 43.6471Z" fill="#FEFEFE"/>
<path d="M229.382 46.2353L231.926 40.6341L237.5 38.1176L231.926 35.6012L229.382 30L226.893 35.6012L221.265 38.1176L226.893 40.6341L229.382 46.2353Z" fill="#FEFEFE"/>
<path d="M198.5 51.6471L199.853 46.2353L205.265 44.8824L199.853 43.5294L198.5 38.1177L197.147 43.5294L191.735 44.8824L197.147 46.2353L198.5 51.6471Z" fill="#FEFEFE"/>
<path d="M71.96 127.078C70.7653 127.078 69.912 126.844 69.4 126.374C68.888 125.905 68.632 125.233 68.632 124.358C68.632 123.932 68.664 123.206 68.728 122.182C68.792 121.137 68.8773 119.953 68.984 118.63C69.0907 117.308 69.1973 115.91 69.304 114.438C69.4107 112.966 69.5173 111.58 69.624 110.278C69.7307 108.977 69.816 107.836 69.88 106.854C69.944 105.873 69.976 105.201 69.976 104.838C69.976 104.518 70.1467 104.358 70.488 104.358H81.752C81.88 104.358 81.9973 104.39 82.104 104.454C82.2107 104.518 82.264 104.636 82.264 104.806L82.136 106.694C82.0933 107.334 81.912 107.857 81.592 108.262C81.2933 108.646 80.664 108.838 79.704 108.838H75.288L74.968 113.35H79.512C79.64 113.35 79.7573 113.382 79.864 113.446C79.9707 113.51 80.024 113.628 80.024 113.798L79.896 115.686C79.8533 116.326 79.672 116.849 79.352 117.254C79.0533 117.638 78.424 117.83 77.464 117.83H74.68L74.328 122.598H81.368C81.496 122.598 81.6133 122.641 81.72 122.726C81.8267 122.79 81.88 122.897 81.88 123.046L81.752 124.934C81.7093 125.574 81.528 126.097 81.208 126.502C80.9093 126.886 80.28 127.078 79.32 127.078H71.96ZM89.9805 127.398C89.1485 127.398 88.3485 127.249 87.5805 126.95C86.8338 126.652 86.1725 126.182 85.5965 125.542C85.0418 124.902 84.5938 124.092 84.2525 123.11C83.9325 122.129 83.7725 120.945 83.7725 119.558C83.7725 118.94 83.8152 118.257 83.9005 117.51C83.9858 116.742 84.1352 115.974 84.3485 115.206C84.5618 114.438 84.8605 113.692 85.2445 112.966C85.6285 112.241 86.1085 111.601 86.6845 111.046C87.2818 110.47 87.9858 110.012 88.7965 109.67C89.6285 109.329 90.5992 109.158 91.7085 109.158C92.7752 109.158 93.6285 109.35 94.2685 109.734C94.9298 110.097 95.3458 110.737 95.5165 111.654C95.5592 110.822 95.6018 110.097 95.6445 109.478C95.6872 108.86 95.7192 108.284 95.7405 107.75C95.7832 107.217 95.8258 106.684 95.8685 106.15C95.9112 105.617 95.9538 105.009 95.9965 104.326C96.0178 103.857 96.0712 103.58 96.1565 103.494C96.1992 103.452 96.2525 103.43 96.3165 103.43C96.3805 103.409 96.4978 103.398 96.6685 103.398H97.9165C98.5565 103.398 99.0898 103.473 99.5165 103.622C99.9432 103.772 100.285 103.974 100.541 104.23C100.797 104.486 100.978 104.785 101.085 105.126C101.191 105.446 101.245 105.788 101.245 106.15C101.245 106.15 101.223 106.417 101.181 106.95C101.138 107.484 101.085 108.198 101.021 109.094C100.957 109.969 100.882 110.972 100.797 112.102C100.711 113.233 100.626 114.406 100.541 115.622C100.455 116.817 100.37 118.012 100.285 119.206C100.199 120.38 100.114 121.468 100.029 122.47C99.9432 123.452 99.8685 124.305 99.8045 125.03C99.7618 125.734 99.7298 126.204 99.7085 126.438C99.6658 126.694 99.6125 126.865 99.5485 126.95C99.4845 127.036 99.3032 127.078 99.0045 127.078H97.8525C97.4045 127.078 96.9778 127.046 96.5725 126.982C96.1885 126.897 95.8472 126.769 95.5485 126.598C95.2712 126.406 95.0472 126.161 94.8765 125.862C94.7272 125.542 94.6525 125.137 94.6525 124.646C94.2685 125.457 93.6818 126.118 92.8925 126.63C92.1245 127.142 91.1538 127.398 89.9805 127.398ZM92.7645 113.414C91.6765 113.414 90.8658 113.894 90.3325 114.854C89.8205 115.793 89.5645 117.062 89.5645 118.662C89.5645 119.217 89.5965 119.761 89.6605 120.294C89.7458 120.828 89.8845 121.308 90.0765 121.734C90.2685 122.161 90.5245 122.502 90.8445 122.758C91.1858 123.014 91.6125 123.142 92.1245 123.142C93.0418 123.142 93.8098 122.694 94.4285 121.798C95.0472 120.902 95.3565 119.494 95.3565 117.574C95.3565 117.041 95.3245 116.529 95.2605 116.038C95.1965 115.526 95.0685 115.078 94.8765 114.694C94.6845 114.31 94.4178 114.001 94.0765 113.766C93.7352 113.532 93.2978 113.414 92.7645 113.414ZM109.705 112.198C109.705 112.646 109.663 113.276 109.577 114.086C109.513 114.897 109.439 115.74 109.353 116.614C109.289 117.489 109.215 118.31 109.129 119.078C109.065 119.846 109.033 120.401 109.033 120.742C109.033 121.489 109.215 122.076 109.577 122.502C109.961 122.908 110.484 123.11 111.145 123.11C111.721 123.11 112.201 122.886 112.585 122.438C112.991 121.969 113.311 121.372 113.545 120.646C113.801 119.9 114.004 119.057 114.153 118.118C114.303 117.18 114.409 116.23 114.473 115.27C114.559 114.31 114.623 113.382 114.665 112.486C114.729 111.569 114.793 110.78 114.857 110.118C114.879 109.948 114.943 109.798 115.049 109.67C115.156 109.542 115.327 109.478 115.561 109.478H116.713C117.375 109.478 117.908 109.553 118.313 109.702C118.74 109.83 119.071 110.022 119.305 110.278C119.561 110.534 119.732 110.854 119.817 111.238C119.924 111.601 119.977 112.028 119.977 112.518C119.977 112.838 119.956 113.297 119.913 113.894C119.892 114.47 119.839 115.281 119.753 116.326C119.668 117.35 119.561 118.662 119.433 120.262C119.327 121.841 119.188 123.804 119.017 126.15C118.975 126.598 118.921 126.865 118.857 126.95C118.815 127.036 118.644 127.078 118.345 127.078H117.097C116.457 127.078 115.924 127.004 115.497 126.854C115.092 126.705 114.761 126.513 114.505 126.278C114.249 126.044 114.068 125.766 113.961 125.446C113.855 125.126 113.791 124.796 113.769 124.454C113.449 125.009 113.087 125.478 112.681 125.862C112.297 126.246 111.892 126.556 111.465 126.79C111.039 127.004 110.601 127.153 110.153 127.238C109.705 127.345 109.268 127.398 108.841 127.398C108.031 127.398 107.305 127.27 106.665 127.014C106.025 126.737 105.481 126.374 105.033 125.926C104.607 125.478 104.276 124.945 104.041 124.326C103.807 123.708 103.689 123.046 103.689 122.342C103.689 122.065 103.7 121.617 103.721 120.998C103.764 120.358 103.807 119.644 103.849 118.854C103.913 118.065 103.977 117.233 104.041 116.358C104.105 115.462 104.159 114.62 104.201 113.83C104.265 113.041 104.319 112.348 104.361 111.75C104.425 111.153 104.468 110.726 104.489 110.47C104.532 110.086 104.617 109.83 104.745 109.702C104.873 109.553 105.087 109.478 105.385 109.478H106.409C107.071 109.478 107.615 109.542 108.041 109.67C108.468 109.798 108.799 109.98 109.033 110.214C109.289 110.449 109.46 110.737 109.545 111.078C109.652 111.398 109.705 111.772 109.705 112.198ZM130.845 123.142C131.463 123.142 131.997 123.057 132.445 122.886C132.914 122.716 133.319 122.524 133.661 122.31C134.002 122.097 134.29 121.905 134.525 121.734C134.759 121.564 134.973 121.478 135.165 121.478C135.655 121.478 135.901 121.798 135.901 122.438C135.901 122.588 135.869 122.801 135.805 123.078C135.741 123.334 135.655 123.612 135.549 123.91C135.442 124.188 135.325 124.454 135.197 124.71C135.09 124.966 134.983 125.158 134.877 125.286C134.77 125.393 134.578 125.564 134.301 125.798C134.045 126.033 133.693 126.268 133.245 126.502C132.797 126.737 132.274 126.94 131.677 127.11C131.079 127.302 130.418 127.398 129.693 127.398C128.882 127.398 128.039 127.281 127.165 127.046C126.311 126.79 125.533 126.364 124.829 125.766C124.125 125.148 123.538 124.326 123.069 123.302C122.621 122.257 122.397 120.956 122.397 119.398C122.397 118.844 122.429 118.214 122.493 117.51C122.578 116.785 122.738 116.049 122.973 115.302C123.207 114.534 123.517 113.788 123.901 113.062C124.306 112.316 124.839 111.654 125.501 111.078C126.162 110.502 126.951 110.044 127.869 109.702C128.807 109.34 129.917 109.158 131.197 109.158C132.242 109.158 133.138 109.286 133.885 109.542C134.653 109.777 135.282 110.108 135.773 110.534C136.263 110.94 136.626 111.42 136.861 111.974C137.117 112.529 137.245 113.126 137.245 113.766C137.245 114.918 136.882 115.772 136.157 116.326C135.431 116.86 134.407 117.126 133.085 117.126C132.765 117.126 132.541 117.105 132.413 117.062C132.306 116.998 132.253 116.87 132.253 116.678C132.253 116.166 132.242 115.708 132.221 115.302C132.199 114.897 132.135 114.556 132.029 114.278C131.943 114.001 131.805 113.788 131.613 113.638C131.421 113.489 131.143 113.414 130.781 113.414C130.119 113.414 129.586 113.628 129.181 114.054C128.797 114.481 128.498 115.004 128.285 115.622C128.093 116.22 127.965 116.838 127.901 117.478C127.858 118.118 127.837 118.652 127.837 119.078C127.837 120.593 128.071 121.649 128.541 122.246C129.031 122.844 129.799 123.142 130.845 123.142ZM138.071 123.142C138.071 121.222 138.935 119.718 140.663 118.63C142.391 117.542 144.94 116.956 148.311 116.87C148.332 116.636 148.343 116.444 148.343 116.294C148.364 116.124 148.375 115.921 148.375 115.686C148.375 115.004 148.247 114.46 147.991 114.054C147.735 113.649 147.201 113.446 146.391 113.446C145.943 113.446 145.58 113.51 145.303 113.638C145.025 113.766 144.801 113.948 144.631 114.182C144.46 114.396 144.321 114.662 144.215 114.982C144.108 115.302 144.012 115.654 143.927 116.038C143.884 116.23 143.788 116.358 143.639 116.422C143.489 116.465 143.255 116.486 142.935 116.486C140.759 116.486 139.671 115.665 139.671 114.022C139.671 113.361 139.82 112.732 140.119 112.134C140.439 111.537 140.897 111.025 141.495 110.598C142.113 110.15 142.881 109.798 143.799 109.542C144.716 109.286 145.783 109.158 146.999 109.158C149.367 109.158 151.084 109.649 152.151 110.63C153.217 111.612 153.751 112.998 153.751 114.79C153.751 115.025 153.719 115.452 153.655 116.07C153.612 116.668 153.548 117.308 153.463 117.99C153.399 118.652 153.335 119.281 153.271 119.878C153.228 120.476 153.207 120.892 153.207 121.126C153.207 121.66 153.303 122.044 153.495 122.278C153.687 122.492 153.9 122.641 154.135 122.726C154.391 122.812 154.615 122.876 154.807 122.918C154.999 122.961 155.095 123.068 155.095 123.238C155.095 123.708 155.031 124.188 154.903 124.678C154.775 125.169 154.561 125.617 154.263 126.022C153.985 126.428 153.591 126.758 153.079 127.014C152.588 127.27 151.98 127.398 151.255 127.398C150.231 127.398 149.463 127.153 148.951 126.662C148.439 126.172 148.097 125.489 147.927 124.614C147.415 125.361 146.743 126.012 145.911 126.566C145.1 127.121 144.033 127.398 142.711 127.398C142.071 127.398 141.463 127.324 140.887 127.174C140.332 127.025 139.841 126.78 139.415 126.438C139.009 126.097 138.679 125.66 138.423 125.126C138.188 124.572 138.071 123.91 138.071 123.142ZM148.023 119.494C147.468 119.494 146.924 119.537 146.391 119.622C145.857 119.708 145.377 119.846 144.951 120.038C144.545 120.209 144.215 120.444 143.959 120.742C143.703 121.041 143.575 121.404 143.575 121.83C143.575 122.321 143.724 122.662 144.023 122.854C144.343 123.046 144.684 123.142 145.047 123.142C145.388 123.142 145.729 123.068 146.071 122.918C146.412 122.769 146.711 122.545 146.967 122.246C147.244 121.926 147.479 121.542 147.671 121.094C147.863 120.646 147.98 120.113 148.023 119.494ZM163.942 113.798C163.878 114.609 163.803 115.409 163.718 116.198C163.654 116.988 163.59 117.734 163.526 118.438C163.462 119.142 163.409 119.772 163.366 120.326C163.345 120.881 163.334 121.308 163.334 121.606C163.334 122.161 163.398 122.534 163.526 122.726C163.654 122.897 163.867 122.982 164.166 122.982C164.401 122.982 164.603 122.94 164.774 122.854C164.945 122.769 165.105 122.673 165.254 122.566C165.403 122.46 165.531 122.364 165.638 122.278C165.766 122.193 165.905 122.15 166.054 122.15C166.203 122.15 166.342 122.236 166.47 122.406C166.598 122.577 166.662 122.972 166.662 123.59C166.662 124.764 166.342 125.692 165.702 126.374C165.062 127.057 163.963 127.398 162.406 127.398C160.87 127.398 159.729 127.046 158.982 126.342C158.257 125.617 157.894 124.518 157.894 123.046C157.894 122.726 157.905 122.353 157.926 121.926C157.969 121.478 158.022 120.902 158.086 120.198C158.15 119.494 158.225 118.63 158.31 117.606C158.417 116.582 158.523 115.313 158.63 113.798H156.934C156.763 113.798 156.657 113.766 156.614 113.702C156.593 113.617 156.582 113.5 156.582 113.35L156.678 111.718C156.699 111.441 156.731 111.174 156.774 110.918C156.838 110.641 156.945 110.396 157.094 110.182C157.265 109.969 157.499 109.798 157.798 109.67C158.097 109.542 158.491 109.478 158.982 109.478C159.131 109.094 159.302 108.636 159.494 108.102C159.686 107.569 159.878 107.057 160.07 106.566C160.262 106.054 160.443 105.628 160.614 105.286C160.806 104.945 160.977 104.774 161.126 104.774H162.054C162.95 104.774 163.569 105.052 163.91 105.606C164.251 106.161 164.422 106.822 164.422 107.59C164.422 108.017 164.39 108.646 164.326 109.478H167.686C168.027 109.478 168.198 109.628 168.198 109.926L168.07 111.654C168.027 112.294 167.846 112.817 167.526 113.222C167.227 113.606 166.598 113.798 165.638 113.798H163.942ZM173.139 127.078C172.478 127.078 171.934 127.014 171.507 126.886C171.102 126.737 170.771 126.534 170.515 126.278C170.281 126.022 170.11 125.713 170.003 125.35C169.918 124.966 169.875 124.529 169.875 124.038C169.875 123.718 169.886 123.27 169.907 122.694C169.95 122.097 170.014 121.286 170.099 120.262C170.185 119.217 170.281 117.905 170.387 116.326C170.515 114.726 170.665 112.753 170.835 110.406C170.857 109.937 170.91 109.66 170.995 109.574C171.059 109.51 171.23 109.478 171.507 109.478H172.755C173.417 109.478 173.95 109.542 174.355 109.67C174.782 109.798 175.113 109.99 175.347 110.246C175.603 110.502 175.774 110.812 175.859 111.174C175.966 111.537 176.019 111.942 176.019 112.39C176.019 112.71 175.998 113.19 175.955 113.83C175.913 114.47 175.849 115.345 175.763 116.454C175.699 117.542 175.603 118.908 175.475 120.55C175.347 122.172 175.187 124.134 174.995 126.438C174.974 126.694 174.921 126.865 174.835 126.95C174.75 127.036 174.569 127.078 174.291 127.078H173.139ZM170.867 105.702C170.867 104.849 171.177 104.177 171.795 103.686C172.414 103.196 173.246 102.95 174.291 102.95C175.209 102.95 175.87 103.142 176.275 103.526C176.702 103.889 176.915 104.38 176.915 104.998C176.915 105.788 176.617 106.449 176.019 106.982C175.443 107.494 174.59 107.75 173.459 107.75C171.731 107.75 170.867 107.068 170.867 105.702ZM186.011 127.398C184.539 127.398 183.313 127.196 182.331 126.79C181.371 126.364 180.603 125.788 180.027 125.062C179.451 124.337 179.046 123.494 178.811 122.534C178.577 121.553 178.459 120.508 178.459 119.398C178.459 118.118 178.609 116.87 178.907 115.654C179.227 114.417 179.761 113.318 180.507 112.358C181.254 111.398 182.235 110.63 183.451 110.054C184.689 109.457 186.225 109.158 188.059 109.158C190.747 109.158 192.667 109.82 193.819 111.142C194.993 112.444 195.579 114.278 195.579 116.646C195.579 117.308 195.526 118.044 195.419 118.854C195.334 119.644 195.153 120.433 194.875 121.222C194.619 122.012 194.257 122.78 193.787 123.526C193.339 124.273 192.763 124.934 192.059 125.51C191.355 126.086 190.502 126.545 189.499 126.886C188.518 127.228 187.355 127.398 186.011 127.398ZM187.515 113.414C186.705 113.414 186.054 113.628 185.563 114.054C185.094 114.46 184.731 114.961 184.475 115.558C184.241 116.134 184.081 116.753 183.995 117.414C183.931 118.054 183.899 118.598 183.899 119.046C183.899 120.454 184.123 121.489 184.571 122.15C185.019 122.812 185.659 123.142 186.491 123.142C187.238 123.142 187.846 122.908 188.315 122.438C188.806 121.969 189.179 121.404 189.435 120.742C189.713 120.081 189.894 119.388 189.979 118.662C190.086 117.937 190.139 117.329 190.139 116.838C190.139 115.772 189.937 114.94 189.531 114.342C189.147 113.724 188.475 113.414 187.515 113.414ZM208.88 124.262C208.88 123.793 208.912 123.185 208.976 122.438C209.062 121.67 209.136 120.87 209.2 120.038C209.286 119.185 209.36 118.364 209.424 117.574C209.51 116.785 209.552 116.124 209.552 115.59C209.552 115.036 209.414 114.545 209.136 114.118C208.88 113.67 208.368 113.446 207.6 113.446C206.854 113.446 206.235 113.628 205.744 113.99C205.254 114.353 204.838 115.014 204.496 115.974C204.176 116.934 203.91 118.257 203.696 119.942C203.483 121.628 203.28 123.793 203.088 126.438C203.067 126.694 203.014 126.865 202.928 126.95C202.843 127.036 202.662 127.078 202.384 127.078H201.232C200.571 127.078 200.027 127.014 199.6 126.886C199.195 126.737 198.864 126.534 198.608 126.278C198.374 126.022 198.203 125.713 198.096 125.35C198.011 124.966 197.968 124.529 197.968 124.038C197.968 123.718 197.979 123.27 198 122.694C198.043 122.097 198.107 121.286 198.192 120.262C198.278 119.217 198.374 117.905 198.48 116.326C198.608 114.726 198.758 112.753 198.928 110.406C198.95 109.937 199.003 109.66 199.088 109.574C199.152 109.51 199.323 109.478 199.6 109.478H200.848C201.488 109.478 202.011 109.553 202.416 109.702C202.843 109.852 203.184 110.054 203.44 110.31C203.696 110.545 203.878 110.833 203.984 111.174C204.091 111.494 204.155 111.825 204.176 112.166C204.838 111.036 205.595 110.257 206.448 109.83C207.302 109.382 208.368 109.158 209.648 109.158C210.544 109.158 211.323 109.254 211.984 109.446C212.646 109.638 213.19 109.969 213.616 110.438C214.064 110.886 214.395 111.484 214.608 112.23C214.822 112.956 214.928 113.862 214.928 114.95C214.928 115.292 214.907 115.782 214.864 116.422C214.822 117.062 214.768 117.766 214.704 118.534C214.64 119.281 214.566 120.07 214.48 120.902C214.416 121.713 214.352 122.47 214.288 123.174C214.224 123.878 214.171 124.497 214.128 125.03C214.086 125.564 214.064 125.916 214.064 126.086C214.064 126.556 214.011 126.844 213.904 126.95C213.798 127.036 213.563 127.078 213.2 127.078H212.176C211.494 127.078 210.939 127.014 210.512 126.886C210.086 126.758 209.755 126.577 209.52 126.342C209.286 126.108 209.115 125.82 209.008 125.478C208.923 125.116 208.88 124.71 208.88 124.262ZM216.821 123.142C216.821 121.222 217.685 119.718 219.413 118.63C221.141 117.542 223.69 116.956 227.061 116.87C227.082 116.636 227.093 116.444 227.093 116.294C227.114 116.124 227.125 115.921 227.125 115.686C227.125 115.004 226.997 114.46 226.741 114.054C226.485 113.649 225.951 113.446 225.141 113.446C224.693 113.446 224.33 113.51 224.053 113.638C223.775 113.766 223.551 113.948 223.381 114.182C223.21 114.396 223.071 114.662 222.965 114.982C222.858 115.302 222.762 115.654 222.677 116.038C222.634 116.23 222.538 116.358 222.389 116.422C222.239 116.465 222.005 116.486 221.685 116.486C219.509 116.486 218.421 115.665 218.421 114.022C218.421 113.361 218.57 112.732 218.869 112.134C219.189 111.537 219.647 111.025 220.245 110.598C220.863 110.15 221.631 109.798 222.549 109.542C223.466 109.286 224.533 109.158 225.749 109.158C228.117 109.158 229.834 109.649 230.901 110.63C231.967 111.612 232.501 112.998 232.501 114.79C232.501 115.025 232.469 115.452 232.405 116.07C232.362 116.668 232.298 117.308 232.213 117.99C232.149 118.652 232.085 119.281 232.021 119.878C231.978 120.476 231.957 120.892 231.957 121.126C231.957 121.66 232.053 122.044 232.245 122.278C232.437 122.492 232.65 122.641 232.885 122.726C233.141 122.812 233.365 122.876 233.557 122.918C233.749 122.961 233.845 123.068 233.845 123.238C233.845 123.708 233.781 124.188 233.653 124.678C233.525 125.169 233.311 125.617 233.013 126.022C232.735 126.428 232.341 126.758 231.829 127.014C231.338 127.27 230.73 127.398 230.005 127.398C228.981 127.398 228.213 127.153 227.701 126.662C227.189 126.172 226.847 125.489 226.677 124.614C226.165 125.361 225.493 126.012 224.661 126.566C223.85 127.121 222.783 127.398 221.461 127.398C220.821 127.398 220.213 127.324 219.637 127.174C219.082 127.025 218.591 126.78 218.165 126.438C217.759 126.097 217.429 125.66 217.173 125.126C216.938 124.572 216.821 123.91 216.821 123.142ZM226.773 119.494C226.218 119.494 225.674 119.537 225.141 119.622C224.607 119.708 224.127 119.846 223.701 120.038C223.295 120.209 222.965 120.444 222.709 120.742C222.453 121.041 222.325 121.404 222.325 121.83C222.325 122.321 222.474 122.662 222.773 122.854C223.093 123.046 223.434 123.142 223.797 123.142C224.138 123.142 224.479 123.068 224.821 122.918C225.162 122.769 225.461 122.545 225.717 122.246C225.994 121.926 226.229 121.542 226.421 121.094C226.613 120.646 226.73 120.113 226.773 119.494ZM239.524 127.366C238.201 127.366 237.252 127.014 236.676 126.31C236.1 125.606 235.812 124.444 235.812 122.822C235.812 122.566 235.823 122.246 235.844 121.862C235.887 121.478 235.929 120.988 235.972 120.39C236.036 119.772 236.111 119.014 236.196 118.118C236.281 117.222 236.367 116.134 236.452 114.854C236.559 113.574 236.665 112.07 236.772 110.342C236.9 108.614 237.028 106.609 237.156 104.326C237.177 103.857 237.231 103.58 237.316 103.494C237.38 103.43 237.551 103.398 237.828 103.398H239.076C239.716 103.398 240.249 103.473 240.676 103.622C241.103 103.772 241.444 103.974 241.7 104.23C241.956 104.486 242.137 104.785 242.244 105.126C242.351 105.446 242.404 105.788 242.404 106.15C242.404 106.577 242.372 107.196 242.308 108.006C242.265 108.796 242.201 109.692 242.116 110.694C242.031 111.697 241.945 112.742 241.86 113.83C241.775 114.918 241.689 115.964 241.604 116.966C241.519 117.948 241.444 118.833 241.38 119.622C241.337 120.412 241.316 121.009 241.316 121.414C241.316 121.969 241.412 122.364 241.604 122.598C241.817 122.833 242.041 123.004 242.276 123.11C242.511 123.196 242.724 123.26 242.916 123.302C243.129 123.324 243.236 123.388 243.236 123.494C243.236 123.964 243.183 124.433 243.076 124.902C242.969 125.35 242.777 125.766 242.5 126.15C242.223 126.513 241.839 126.812 241.348 127.046C240.879 127.26 240.271 127.366 239.524 127.366ZM272.951 110.022C272.781 110.534 272.557 111.206 272.279 112.038C272.023 112.849 271.735 113.745 271.415 114.726C271.095 115.708 270.765 116.753 270.423 117.862C270.082 118.95 269.73 120.017 269.367 121.062C269.026 122.108 268.685 123.11 268.343 124.07C268.002 125.009 267.693 125.83 267.415 126.534C267.33 126.705 267.149 126.844 266.871 126.95C266.615 127.036 266.199 127.078 265.623 127.078C265.261 127.078 264.887 127.057 264.503 127.014C264.119 126.972 263.757 126.886 263.415 126.758C263.095 126.63 262.807 126.46 262.551 126.246C262.317 126.033 262.135 125.766 262.007 125.446C261.687 124.358 261.378 123.153 261.079 121.83C260.802 120.486 260.525 119.121 260.247 117.734C259.97 116.348 259.693 114.993 259.415 113.67C259.159 112.326 258.893 111.11 258.615 110.022C258.615 110.321 258.605 110.833 258.583 111.558C258.562 112.284 258.541 113.126 258.519 114.086C258.498 115.046 258.466 116.081 258.423 117.19C258.402 118.3 258.381 119.388 258.359 120.454C258.338 121.5 258.317 122.481 258.295 123.398C258.274 124.294 258.263 125.03 258.263 125.606C258.263 126.246 258.221 126.652 258.135 126.822C258.071 126.993 257.943 127.078 257.751 127.078H255.991C254.775 127.078 253.911 126.844 253.399 126.374C252.909 125.884 252.663 125.169 252.663 124.23C252.663 123.974 252.674 123.548 252.695 122.95C252.738 122.332 252.791 121.606 252.855 120.774C252.919 119.942 252.983 119.036 253.047 118.054C253.133 117.052 253.218 116.038 253.303 115.014C253.41 113.628 253.495 112.476 253.559 111.558C253.645 110.62 253.709 109.841 253.751 109.222C253.794 108.604 253.826 108.102 253.847 107.718C253.89 107.334 253.911 106.993 253.911 106.694C253.933 106.396 253.943 106.118 253.943 105.862C253.965 105.585 253.975 105.244 253.975 104.838C253.975 104.668 254.039 104.55 254.167 104.486C254.295 104.401 254.413 104.358 254.519 104.358H258.999C259.831 104.358 260.514 104.497 261.047 104.774C261.581 105.03 262.018 105.436 262.359 105.99C262.701 106.545 262.978 107.27 263.191 108.166C263.405 109.041 263.597 110.086 263.767 111.302C263.959 112.518 264.162 113.926 264.375 115.526C264.61 117.105 264.909 118.886 265.271 120.87C265.613 119.548 265.901 118.449 266.135 117.574C266.37 116.7 266.562 115.974 266.711 115.398C266.882 114.801 267.021 114.31 267.127 113.926C267.234 113.542 267.33 113.19 267.415 112.87C267.501 112.529 267.597 112.166 267.703 111.782C267.81 111.398 267.938 110.918 268.087 110.342C268.237 109.766 268.418 109.052 268.631 108.198C268.866 107.324 269.154 106.225 269.495 104.902C269.538 104.774 269.613 104.657 269.719 104.55C269.826 104.422 270.018 104.358 270.295 104.358H275.287C275.97 104.358 276.514 104.433 276.919 104.582C277.346 104.71 277.677 104.902 277.911 105.158C278.146 105.414 278.306 105.734 278.391 106.118C278.477 106.481 278.519 106.908 278.519 107.398C278.519 107.889 278.487 108.689 278.423 109.798C278.381 110.886 278.306 112.124 278.199 113.51C278.114 114.876 278.018 116.294 277.911 117.766C277.826 119.238 277.73 120.604 277.623 121.862C277.538 123.121 277.463 124.188 277.399 125.062C277.335 125.937 277.293 126.449 277.271 126.598C277.25 126.769 277.207 126.897 277.143 126.982C277.079 127.046 276.951 127.078 276.759 127.078H274.999C273.783 127.078 272.919 126.844 272.407 126.374C271.917 125.884 271.671 125.254 271.671 124.486C271.671 124.252 271.693 123.825 271.735 123.206C271.799 122.588 271.874 121.862 271.959 121.03C272.045 120.198 272.141 119.292 272.247 118.31C272.354 117.308 272.45 116.316 272.535 115.334C272.621 114.353 272.695 113.404 272.759 112.486C272.845 111.548 272.909 110.726 272.951 110.022ZM288.642 127.398C287.703 127.398 286.764 127.281 285.826 127.046C284.908 126.812 284.076 126.406 283.33 125.83C282.604 125.254 282.007 124.486 281.538 123.526C281.068 122.566 280.834 121.361 280.834 119.91C280.834 119.377 280.876 118.737 280.962 117.99C281.047 117.244 281.207 116.476 281.442 115.686C281.698 114.897 282.039 114.118 282.466 113.35C282.914 112.561 283.49 111.857 284.194 111.238C284.898 110.62 285.751 110.118 286.754 109.734C287.756 109.35 288.951 109.158 290.338 109.158C291.447 109.158 292.386 109.286 293.154 109.542C293.922 109.798 294.54 110.15 295.01 110.598C295.479 111.025 295.82 111.526 296.034 112.102C296.247 112.678 296.354 113.297 296.354 113.958C296.354 114.94 296.151 115.772 295.746 116.454C295.362 117.137 294.85 117.713 294.21 118.182C293.591 118.63 292.898 118.982 292.13 119.238C291.362 119.494 290.604 119.697 289.858 119.846C289.111 119.974 288.418 120.06 287.778 120.102C287.159 120.124 286.679 120.134 286.338 120.134C286.338 120.54 286.391 120.945 286.498 121.35C286.626 121.734 286.807 122.076 287.042 122.374C287.276 122.673 287.586 122.918 287.97 123.11C288.354 123.302 288.823 123.398 289.378 123.398C289.932 123.398 290.359 123.313 290.658 123.142C290.978 122.95 291.234 122.748 291.426 122.534C291.618 122.3 291.778 122.097 291.906 121.926C292.055 121.734 292.247 121.638 292.482 121.638C292.588 121.638 292.77 121.67 293.026 121.734C293.303 121.777 293.58 121.884 293.858 122.054C294.135 122.225 294.38 122.46 294.594 122.758C294.807 123.057 294.914 123.441 294.914 123.91C294.914 124.529 294.722 125.062 294.338 125.51C293.954 125.958 293.452 126.321 292.834 126.598C292.236 126.876 291.564 127.078 290.818 127.206C290.071 127.334 289.346 127.398 288.642 127.398ZM289.25 113.414C288.78 113.414 288.375 113.553 288.034 113.83C287.714 114.086 287.436 114.417 287.202 114.822C286.988 115.228 286.818 115.676 286.69 116.166C286.583 116.657 286.498 117.126 286.434 117.574C287.756 117.553 288.823 117.329 289.634 116.902C290.466 116.476 290.882 115.868 290.882 115.078C290.882 114.652 290.743 114.268 290.466 113.926C290.21 113.585 289.804 113.414 289.25 113.414ZM305.673 127.398C304.734 127.398 303.795 127.281 302.857 127.046C301.939 126.812 301.107 126.406 300.361 125.83C299.635 125.254 299.038 124.486 298.569 123.526C298.099 122.566 297.865 121.361 297.865 119.91C297.865 119.377 297.907 118.737 297.993 117.99C298.078 117.244 298.238 116.476 298.473 115.686C298.729 114.897 299.07 114.118 299.497 113.35C299.945 112.561 300.521 111.857 301.225 111.238C301.929 110.62 302.782 110.118 303.785 109.734C304.787 109.35 305.982 109.158 307.369 109.158C308.478 109.158 309.417 109.286 310.185 109.542C310.953 109.798 311.571 110.15 312.041 110.598C312.51 111.025 312.851 111.526 313.065 112.102C313.278 112.678 313.385 113.297 313.385 113.958C313.385 114.94 313.182 115.772 312.777 116.454C312.393 117.137 311.881 117.713 311.241 118.182C310.622 118.63 309.929 118.982 309.161 119.238C308.393 119.494 307.635 119.697 306.889 119.846C306.142 119.974 305.449 120.06 304.809 120.102C304.19 120.124 303.71 120.134 303.369 120.134C303.369 120.54 303.422 120.945 303.529 121.35C303.657 121.734 303.838 122.076 304.073 122.374C304.307 122.673 304.617 122.918 305.001 123.11C305.385 123.302 305.854 123.398 306.409 123.398C306.963 123.398 307.39 123.313 307.689 123.142C308.009 122.95 308.265 122.748 308.457 122.534C308.649 122.3 308.809 122.097 308.937 121.926C309.086 121.734 309.278 121.638 309.513 121.638C309.619 121.638 309.801 121.67 310.057 121.734C310.334 121.777 310.611 121.884 310.889 122.054C311.166 122.225 311.411 122.46 311.625 122.758C311.838 123.057 311.945 123.441 311.945 123.91C311.945 124.529 311.753 125.062 311.369 125.51C310.985 125.958 310.483 126.321 309.865 126.598C309.267 126.876 308.595 127.078 307.849 127.206C307.102 127.334 306.377 127.398 305.673 127.398ZM306.281 113.414C305.811 113.414 305.406 113.553 305.065 113.83C304.745 114.086 304.467 114.417 304.233 114.822C304.019 115.228 303.849 115.676 303.721 116.166C303.614 116.657 303.529 117.126 303.465 117.574C304.787 117.553 305.854 117.329 306.665 116.902C307.497 116.476 307.913 115.868 307.913 115.078C307.913 114.652 307.774 114.268 307.497 113.926C307.241 113.585 306.835 113.414 306.281 113.414ZM322.192 113.798C322.128 114.609 322.053 115.409 321.968 116.198C321.904 116.988 321.84 117.734 321.776 118.438C321.712 119.142 321.659 119.772 321.616 120.326C321.595 120.881 321.584 121.308 321.584 121.606C321.584 122.161 321.648 122.534 321.776 122.726C321.904 122.897 322.117 122.982 322.416 122.982C322.651 122.982 322.853 122.94 323.024 122.854C323.195 122.769 323.355 122.673 323.504 122.566C323.653 122.46 323.781 122.364 323.888 122.278C324.016 122.193 324.155 122.15 324.304 122.15C324.453 122.15 324.592 122.236 324.72 122.406C324.848 122.577 324.912 122.972 324.912 123.59C324.912 124.764 324.592 125.692 323.952 126.374C323.312 127.057 322.213 127.398 320.656 127.398C319.12 127.398 317.979 127.046 317.232 126.342C316.507 125.617 316.144 124.518 316.144 123.046C316.144 122.726 316.155 122.353 316.176 121.926C316.219 121.478 316.272 120.902 316.336 120.198C316.4 119.494 316.475 118.63 316.56 117.606C316.667 116.582 316.773 115.313 316.88 113.798H315.184C315.013 113.798 314.907 113.766 314.864 113.702C314.843 113.617 314.832 113.5 314.832 113.35L314.928 111.718C314.949 111.441 314.981 111.174 315.024 110.918C315.088 110.641 315.195 110.396 315.344 110.182C315.515 109.969 315.749 109.798 316.048 109.67C316.347 109.542 316.741 109.478 317.232 109.478C317.381 109.094 317.552 108.636 317.744 108.102C317.936 107.569 318.128 107.057 318.32 106.566C318.512 106.054 318.693 105.628 318.864 105.286C319.056 104.945 319.227 104.774 319.376 104.774H320.304C321.2 104.774 321.819 105.052 322.16 105.606C322.501 106.161 322.672 106.822 322.672 107.59C322.672 108.017 322.64 108.646 322.576 109.478H325.936C326.277 109.478 326.448 109.628 326.448 109.926L326.32 111.654C326.277 112.294 326.096 112.817 325.776 113.222C325.477 113.606 324.848 113.798 323.888 113.798H322.192ZM331.389 127.078C330.728 127.078 330.184 127.014 329.757 126.886C329.352 126.737 329.021 126.534 328.765 126.278C328.531 126.022 328.36 125.713 328.253 125.35C328.168 124.966 328.125 124.529 328.125 124.038C328.125 123.718 328.136 123.27 328.157 122.694C328.2 122.097 328.264 121.286 328.349 120.262C328.435 119.217 328.531 117.905 328.637 116.326C328.765 114.726 328.915 112.753 329.085 110.406C329.107 109.937 329.16 109.66 329.245 109.574C329.309 109.51 329.48 109.478 329.757 109.478H331.005C331.667 109.478 332.2 109.542 332.605 109.67C333.032 109.798 333.363 109.99 333.597 110.246C333.853 110.502 334.024 110.812 334.109 111.174C334.216 111.537 334.269 111.942 334.269 112.39C334.269 112.71 334.248 113.19 334.205 113.83C334.163 114.47 334.099 115.345 334.013 116.454C333.949 117.542 333.853 118.908 333.725 120.55C333.597 122.172 333.437 124.134 333.245 126.438C333.224 126.694 333.171 126.865 333.085 126.95C333 127.036 332.819 127.078 332.541 127.078H331.389ZM329.117 105.702C329.117 104.849 329.427 104.177 330.045 103.686C330.664 103.196 331.496 102.95 332.541 102.95C333.459 102.95 334.12 103.142 334.525 103.526C334.952 103.889 335.165 104.38 335.165 104.998C335.165 105.788 334.867 106.449 334.269 106.982C333.693 107.494 332.84 107.75 331.709 107.75C329.981 107.75 329.117 107.068 329.117 105.702ZM348.005 124.262C348.005 123.793 348.037 123.185 348.101 122.438C348.187 121.67 348.261 120.87 348.325 120.038C348.411 119.185 348.485 118.364 348.549 117.574C348.635 116.785 348.677 116.124 348.677 115.59C348.677 115.036 348.539 114.545 348.261 114.118C348.005 113.67 347.493 113.446 346.725 113.446C345.979 113.446 345.36 113.628 344.869 113.99C344.379 114.353 343.963 115.014 343.621 115.974C343.301 116.934 343.035 118.257 342.821 119.942C342.608 121.628 342.405 123.793 342.213 126.438C342.192 126.694 342.139 126.865 342.053 126.95C341.968 127.036 341.787 127.078 341.509 127.078H340.357C339.696 127.078 339.152 127.014 338.725 126.886C338.32 126.737 337.989 126.534 337.733 126.278C337.499 126.022 337.328 125.713 337.221 125.35C337.136 124.966 337.093 124.529 337.093 124.038C337.093 123.718 337.104 123.27 337.125 122.694C337.168 122.097 337.232 121.286 337.317 120.262C337.403 119.217 337.499 117.905 337.605 116.326C337.733 114.726 337.883 112.753 338.053 110.406C338.075 109.937 338.128 109.66 338.213 109.574C338.277 109.51 338.448 109.478 338.725 109.478H339.973C340.613 109.478 341.136 109.553 341.541 109.702C341.968 109.852 342.309 110.054 342.565 110.31C342.821 110.545 343.003 110.833 343.109 111.174C343.216 111.494 343.28 111.825 343.301 112.166C343.963 111.036 344.72 110.257 345.573 109.83C346.427 109.382 347.493 109.158 348.773 109.158C349.669 109.158 350.448 109.254 351.109 109.446C351.771 109.638 352.315 109.969 352.741 110.438C353.189 110.886 353.52 111.484 353.733 112.23C353.947 112.956 354.053 113.862 354.053 114.95C354.053 115.292 354.032 115.782 353.989 116.422C353.947 117.062 353.893 117.766 353.829 118.534C353.765 119.281 353.691 120.07 353.605 120.902C353.541 121.713 353.477 122.47 353.413 123.174C353.349 123.878 353.296 124.497 353.253 125.03C353.211 125.564 353.189 125.916 353.189 126.086C353.189 126.556 353.136 126.844 353.029 126.95C352.923 127.036 352.688 127.078 352.325 127.078H351.301C350.619 127.078 350.064 127.014 349.637 126.886C349.211 126.758 348.88 126.577 348.645 126.342C348.411 126.108 348.24 125.82 348.133 125.478C348.048 125.116 348.005 124.71 348.005 124.262ZM367.37 123.302C366.836 124.262 366.186 124.977 365.418 125.446C364.65 125.894 363.69 126.118 362.538 126.118C361.663 126.118 360.863 125.98 360.138 125.702C359.412 125.425 358.794 124.988 358.282 124.39C357.77 123.793 357.364 123.046 357.066 122.15C356.788 121.233 356.65 120.145 356.65 118.886C356.65 117.862 356.756 116.785 356.97 115.654C357.183 114.502 357.567 113.446 358.122 112.486C358.698 111.526 359.476 110.737 360.458 110.118C361.439 109.478 362.698 109.158 364.234 109.158C364.874 109.158 365.418 109.233 365.866 109.382C366.335 109.51 366.73 109.692 367.05 109.926C367.391 110.161 367.658 110.438 367.85 110.758C368.063 111.078 368.223 111.42 368.33 111.782C368.33 111.804 368.33 111.729 368.33 111.558C368.351 111.366 368.372 111.153 368.394 110.918C368.415 110.684 368.426 110.46 368.426 110.246C368.447 110.012 368.458 109.862 368.458 109.798C368.479 109.585 368.618 109.478 368.874 109.478H370.346C371.455 109.478 372.255 109.713 372.746 110.182C373.258 110.63 373.514 111.494 373.514 112.774C373.514 112.945 373.503 113.34 373.482 113.958C373.46 114.556 373.418 115.281 373.354 116.134C373.311 116.988 373.247 117.937 373.162 118.982C373.076 120.006 372.98 121.041 372.874 122.086C372.767 123.132 372.65 124.134 372.522 125.094C372.394 126.054 372.255 126.897 372.106 127.622C371.956 128.348 371.7 129.052 371.338 129.734C370.975 130.417 370.463 131.025 369.802 131.558C369.14 132.092 368.287 132.518 367.242 132.838C366.218 133.158 364.959 133.318 363.466 133.318C362.335 133.318 361.343 133.212 360.49 132.998C359.658 132.785 358.964 132.497 358.41 132.134C357.855 131.793 357.428 131.398 357.13 130.95C356.852 130.502 356.714 130.054 356.714 129.606C356.714 129.201 356.799 128.849 356.97 128.55C357.14 128.252 357.364 128.006 357.642 127.814C357.919 127.622 358.218 127.473 358.538 127.366C358.879 127.281 359.199 127.238 359.498 127.238C359.86 127.238 360.127 127.345 360.298 127.558C360.468 127.772 360.66 128.006 360.874 128.262C361.087 128.54 361.386 128.785 361.77 128.998C362.154 129.212 362.751 129.318 363.562 129.318C364.97 129.318 365.951 128.796 366.506 127.75C367.082 126.726 367.37 125.244 367.37 123.302ZM364.682 121.862C365.45 121.862 366.047 121.681 366.474 121.318C366.922 120.956 367.263 120.518 367.498 120.006C367.732 119.494 367.882 118.961 367.946 118.406C368.01 117.852 368.042 117.372 368.042 116.966C368.042 115.686 367.839 114.78 367.434 114.246C367.05 113.692 366.463 113.414 365.674 113.414C364.884 113.414 364.266 113.628 363.818 114.054C363.37 114.481 363.028 114.993 362.794 115.59C362.58 116.166 362.442 116.753 362.378 117.35C362.314 117.926 362.282 118.374 362.282 118.694C362.282 119.761 362.463 120.561 362.826 121.094C363.188 121.606 363.807 121.862 364.682 121.862Z" fill="#FEFEFE"/>
<path d="M104.75 178.039V176.663H107.566V170.327L101.038 160.759H98.7656V159.383H105.486V160.759H103.022L108.878 169.399H108.27L114.126 160.759H111.662V159.383H118.286V160.759H116.014L109.454 170.327V176.663H112.302V178.039H104.75ZM122.786 178.359C121.314 178.359 120.183 178.029 119.394 177.367C118.626 176.706 118.242 175.799 118.242 174.647C118.242 173.367 118.679 172.418 119.554 171.799C120.45 171.159 121.645 170.839 123.138 170.839C123.863 170.839 124.589 170.893 125.314 170.999C126.061 171.106 126.839 171.255 127.65 171.447L127.17 171.735V169.559C127.17 168.557 126.871 167.799 126.274 167.287C125.677 166.775 124.77 166.519 123.554 166.519C122.871 166.519 122.167 166.615 121.442 166.807C120.738 166.978 120.055 167.245 119.394 167.607L118.914 166.231C119.639 165.847 120.429 165.559 121.282 165.367C122.135 165.175 122.914 165.079 123.618 165.079C125.367 165.079 126.679 165.463 127.554 166.231C128.45 166.999 128.898 168.151 128.898 169.687V176.727H131.074V178.039H127.234V176.087L127.49 176.247C126.85 176.951 126.103 177.485 125.25 177.847C124.418 178.189 123.597 178.359 122.786 178.359ZM123.042 177.015C123.81 177.015 124.567 176.855 125.314 176.535C126.082 176.215 126.765 175.757 127.362 175.159L127.17 175.767V172.151L127.65 172.695C126.882 172.482 126.135 172.333 125.41 172.247C124.706 172.162 124.045 172.119 123.426 172.119C122.317 172.119 121.453 172.322 120.834 172.727C120.237 173.111 119.938 173.741 119.938 174.615C119.938 175.383 120.194 175.981 120.706 176.407C121.239 176.813 122.018 177.015 123.042 177.015ZM131.993 165.399H136.153V167.415L135.833 167.575C136.345 166.765 137.049 166.146 137.945 165.719C138.841 165.293 139.811 165.079 140.857 165.079C142.158 165.079 143.257 165.378 144.153 165.975C145.049 166.551 145.721 167.341 146.169 168.343C146.638 169.325 146.873 170.445 146.873 171.703C146.873 172.962 146.638 174.093 146.169 175.095C145.721 176.098 145.049 176.898 144.153 177.495C143.257 178.071 142.158 178.359 140.857 178.359C139.811 178.359 138.841 178.146 137.945 177.719C137.049 177.271 136.345 176.653 135.833 175.863L136.217 176.023V182.199H138.425V183.511H132.121V182.199H134.521V166.711H131.993V165.399ZM140.569 176.919C141.977 176.919 143.097 176.461 143.929 175.543C144.761 174.626 145.177 173.346 145.177 171.703C145.177 170.061 144.761 168.791 143.929 167.895C143.097 166.978 141.977 166.519 140.569 166.519C139.63 166.519 138.766 166.701 137.977 167.063C137.209 167.405 136.579 167.927 136.089 168.631L136.217 167.831V175.671L136.089 174.807C136.579 175.49 137.209 176.013 137.977 176.375C138.766 176.738 139.63 176.919 140.569 176.919ZM154.411 178.359C152.939 178.359 151.808 178.029 151.019 177.367C150.251 176.706 149.867 175.799 149.867 174.647C149.867 173.367 150.304 172.418 151.179 171.799C152.075 171.159 153.27 170.839 154.763 170.839C155.488 170.839 156.214 170.893 156.939 170.999C157.686 171.106 158.464 171.255 159.275 171.447L158.795 171.735V169.559C158.795 168.557 158.496 167.799 157.899 167.287C157.302 166.775 156.395 166.519 155.179 166.519C154.496 166.519 153.792 166.615 153.067 166.807C152.363 166.978 151.68 167.245 151.019 167.607L150.539 166.231C151.264 165.847 152.054 165.559 152.907 165.367C153.76 165.175 154.539 165.079 155.243 165.079C156.992 165.079 158.304 165.463 159.179 166.231C160.075 166.999 160.523 168.151 160.523 169.687V176.727H162.699V178.039H158.859V176.087L159.115 176.247C158.475 176.951 157.728 177.485 156.875 177.847C156.043 178.189 155.222 178.359 154.411 178.359ZM154.667 177.015C155.435 177.015 156.192 176.855 156.939 176.535C157.707 176.215 158.39 175.757 158.987 175.159L158.795 175.767V172.151L159.275 172.695C158.507 172.482 157.76 172.333 157.035 172.247C156.331 172.162 155.67 172.119 155.051 172.119C153.942 172.119 153.078 172.322 152.459 172.727C151.862 173.111 151.563 173.741 151.563 174.615C151.563 175.383 151.819 175.981 152.331 176.407C152.864 176.813 153.643 177.015 154.667 177.015ZM166.409 183.511H164.489V182.071H166.313C166.996 182.071 167.561 181.922 168.009 181.623C168.478 181.346 168.862 180.877 169.161 180.215L170.313 177.655L170.729 178.039H169.577L165.001 166.711H162.985V165.399H169.161V166.711H166.825L170.921 177.175L170.569 177.111L175.241 166.711H172.937V165.399H178.953V166.711H176.937L170.505 180.855C170.078 181.837 169.545 182.519 168.905 182.903C168.265 183.309 167.433 183.511 166.409 183.511ZM189.811 178.039V177.079L198.451 166.167L198.771 166.711H191.283V169.431H189.939V165.399H200.211V166.423L191.539 177.335L191.379 176.727H199.123V173.559H200.435V178.039H189.811ZM210.371 178.359C208.793 178.359 207.47 178.071 206.403 177.495C205.358 176.919 204.569 176.13 204.035 175.127C203.502 174.125 203.235 172.994 203.235 171.735C203.235 170.455 203.502 169.314 204.035 168.311C204.569 167.309 205.326 166.519 206.307 165.943C207.31 165.367 208.473 165.079 209.795 165.079C211.139 165.079 212.291 165.367 213.251 165.943C214.211 166.519 214.947 167.309 215.459 168.311C215.971 169.314 216.227 170.455 216.227 171.735V172.375H204.323V171.031H214.595C214.574 170.157 214.361 169.367 213.955 168.663C213.571 167.959 213.017 167.405 212.291 166.999C211.587 166.594 210.755 166.391 209.795 166.391C208.793 166.391 207.918 166.615 207.171 167.063C206.446 167.49 205.881 168.077 205.475 168.823C205.091 169.57 204.899 170.402 204.899 171.319V171.735C204.899 173.314 205.369 174.583 206.307 175.543C207.246 176.482 208.611 176.951 210.403 176.951C211.299 176.951 212.185 176.781 213.059 176.439C213.955 176.077 214.691 175.618 215.267 175.063L216.035 176.279C215.331 176.919 214.478 177.431 213.475 177.815C212.473 178.178 211.438 178.359 210.371 178.359ZM222.185 176.727H224.233V178.039H218.089V176.727H220.489V160.695H217.961V159.383H222.185V171.415L228.009 166.711H225.705V165.399H231.849V166.711H229.801L223.433 171.767L223.817 170.871L229.897 176.727H232.457V178.039H228.841L222.185 171.543V176.727ZM238.442 178.359C236.97 178.359 235.84 178.029 235.05 177.367C234.282 176.706 233.898 175.799 233.898 174.647C233.898 173.367 234.336 172.418 235.21 171.799C236.106 171.159 237.301 170.839 238.794 170.839C239.52 170.839 240.245 170.893 240.97 170.999C241.717 171.106 242.496 171.255 243.306 171.447L242.826 171.735V169.559C242.826 168.557 242.528 167.799 241.93 167.287C241.333 166.775 240.426 166.519 239.21 166.519C238.528 166.519 237.824 166.615 237.098 166.807C236.394 166.978 235.712 167.245 235.05 167.607L234.57 166.231C235.296 165.847 236.085 165.559 236.938 165.367C237.792 165.175 238.57 165.079 239.274 165.079C241.024 165.079 242.336 165.463 243.21 166.231C244.106 166.999 244.554 168.151 244.554 169.687V176.727H246.73V178.039H242.89V176.087L243.146 176.247C242.506 176.951 241.76 177.485 240.906 177.847C240.074 178.189 239.253 178.359 238.442 178.359ZM238.698 177.015C239.466 177.015 240.224 176.855 240.97 176.535C241.738 176.215 242.421 175.757 243.018 175.159L242.826 175.767V172.151L243.306 172.695C242.538 172.482 241.792 172.333 241.066 172.247C240.362 172.162 239.701 172.119 239.082 172.119C237.973 172.119 237.109 172.322 236.49 172.727C235.893 173.111 235.594 173.741 235.594 174.615C235.594 175.383 235.85 175.981 236.362 176.407C236.896 176.813 237.674 177.015 238.698 177.015ZM263.019 178.359C261.782 178.359 260.79 178.039 260.043 177.399C259.318 176.759 258.955 175.714 258.955 174.263V166.711H256.427V165.399H258.955V161.111L260.683 160.727V165.399H264.299V166.711H260.683V173.975C260.683 175.106 260.918 175.885 261.387 176.311C261.856 176.717 262.486 176.919 263.275 176.919C263.552 176.919 263.83 176.887 264.107 176.823C264.384 176.738 264.63 176.653 264.843 176.567L265.099 177.911C264.822 178.039 264.502 178.146 264.139 178.231C263.776 178.317 263.403 178.359 263.019 178.359ZM271.63 178.359C270.158 178.359 269.027 178.029 268.238 177.367C267.47 176.706 267.086 175.799 267.086 174.647C267.086 173.367 267.523 172.418 268.398 171.799C269.294 171.159 270.489 170.839 271.982 170.839C272.707 170.839 273.433 170.893 274.158 170.999C274.905 171.106 275.683 171.255 276.494 171.447L276.014 171.735V169.559C276.014 168.557 275.715 167.799 275.118 167.287C274.521 166.775 273.614 166.519 272.398 166.519C271.715 166.519 271.011 166.615 270.286 166.807C269.582 166.978 268.899 167.245 268.238 167.607L267.758 166.231C268.483 165.847 269.273 165.559 270.126 165.367C270.979 165.175 271.758 165.079 272.462 165.079C274.211 165.079 275.523 165.463 276.398 166.231C277.294 166.999 277.742 168.151 277.742 169.687V176.727H279.918V178.039H276.078V176.087L276.334 176.247C275.694 176.951 274.947 177.485 274.094 177.847C273.262 178.189 272.441 178.359 271.63 178.359ZM271.886 177.015C272.654 177.015 273.411 176.855 274.158 176.535C274.926 176.215 275.609 175.757 276.206 175.159L276.014 175.767V172.151L276.494 172.695C275.726 172.482 274.979 172.333 274.254 172.247C273.55 172.162 272.889 172.119 272.27 172.119C271.161 172.119 270.297 172.322 269.678 172.727C269.081 173.111 268.782 173.741 268.782 174.615C268.782 175.383 269.038 175.981 269.55 176.407C270.083 176.813 270.862 177.015 271.886 177.015ZM289.7 178.359C288.655 178.359 287.684 178.146 286.788 177.719C285.892 177.271 285.188 176.653 284.676 175.863L284.996 175.895V178.039H281.124V176.727H283.364V160.695H280.836V159.383H285.06V167.415L284.676 167.575C285.188 166.765 285.892 166.146 286.788 165.719C287.684 165.293 288.655 165.079 289.7 165.079C291.002 165.079 292.1 165.378 292.996 165.975C293.892 166.551 294.564 167.341 295.012 168.343C295.482 169.325 295.716 170.445 295.716 171.703C295.716 172.962 295.482 174.093 295.012 175.095C294.564 176.098 293.892 176.898 292.996 177.495C292.1 178.071 291.002 178.359 289.7 178.359ZM289.412 176.919C290.82 176.919 291.94 176.461 292.772 175.543C293.604 174.626 294.02 173.346 294.02 171.703C294.02 170.061 293.604 168.791 292.772 167.895C291.94 166.978 290.82 166.519 289.412 166.519C288.474 166.519 287.61 166.701 286.82 167.063C286.052 167.405 285.423 167.927 284.932 168.631L285.06 167.831V175.543L284.932 174.807C285.423 175.49 286.052 176.013 286.82 176.375C287.61 176.738 288.474 176.919 289.412 176.919ZM303.255 178.359C301.783 178.359 300.652 178.029 299.863 177.367C299.095 176.706 298.711 175.799 298.711 174.647C298.711 173.367 299.148 172.418 300.023 171.799C300.919 171.159 302.114 170.839 303.607 170.839C304.332 170.839 305.058 170.893 305.783 170.999C306.53 171.106 307.308 171.255 308.119 171.447L307.639 171.735V169.559C307.639 168.557 307.34 167.799 306.743 167.287C306.146 166.775 305.239 166.519 304.023 166.519C303.34 166.519 302.636 166.615 301.911 166.807C301.207 166.978 300.524 167.245 299.863 167.607L299.383 166.231C300.108 165.847 300.898 165.559 301.751 165.367C302.604 165.175 303.383 165.079 304.087 165.079C305.836 165.079 307.148 165.463 308.023 166.231C308.919 166.999 309.367 168.151 309.367 169.687V176.727H311.543V178.039H307.703V176.087L307.959 176.247C307.319 176.951 306.572 177.485 305.719 177.847C304.887 178.189 304.066 178.359 303.255 178.359ZM303.511 177.015C304.279 177.015 305.036 176.855 305.783 176.535C306.551 176.215 307.234 175.757 307.831 175.159L307.639 175.767V172.151L308.119 172.695C307.351 172.482 306.604 172.333 305.879 172.247C305.175 172.162 304.514 172.119 303.895 172.119C302.786 172.119 301.922 172.322 301.303 172.727C300.706 173.111 300.407 173.741 300.407 174.615C300.407 175.383 300.663 175.981 301.175 176.407C301.708 176.813 302.487 177.015 303.511 177.015ZM312.845 178.039V176.727H315.213V166.711H312.685V165.399H316.845V167.159L316.461 167.287C317.272 166.562 318.147 166.018 319.085 165.655C320.024 165.271 320.931 165.079 321.805 165.079C323.256 165.079 324.333 165.421 325.037 166.103C325.741 166.786 326.093 167.863 326.093 169.335V176.727H328.301V178.039H321.997V176.727H324.365V169.495C324.365 168.471 324.12 167.725 323.629 167.255C323.16 166.765 322.403 166.519 321.357 166.519C320.611 166.519 319.843 166.658 319.053 166.935C318.285 167.191 317.432 167.714 316.493 168.503L316.941 167.671V176.727H319.149V178.039H312.845ZM329.339 178.039V176.727H331.739V160.695H329.211V159.383H333.435V176.727H335.675V178.039H329.339ZM337.064 178.039V176.727H339.432V166.711H336.904V165.399H341.16V176.727H343.368V178.039H337.064ZM128.028 214.359C126.748 214.359 125.66 214.103 124.764 213.591C123.89 213.058 123.271 212.247 122.908 211.159L123.452 210.935V214.007H122.076V209.559H123.356C123.399 210.37 123.634 211.053 124.06 211.607C124.508 212.141 125.063 212.535 125.724 212.791C126.407 213.047 127.111 213.175 127.836 213.175C128.903 213.175 129.714 212.973 130.268 212.567C130.844 212.162 131.132 211.607 131.132 210.903C131.132 210.37 130.972 209.943 130.652 209.623C130.332 209.282 129.66 208.983 128.636 208.727L125.5 207.959C124.455 207.703 123.634 207.319 123.036 206.807C122.439 206.274 122.14 205.57 122.14 204.695C122.14 203.949 122.332 203.309 122.716 202.775C123.1 202.221 123.644 201.794 124.348 201.495C125.052 201.197 125.884 201.047 126.844 201.047C127.911 201.047 128.839 201.271 129.628 201.719C130.418 202.146 130.951 202.839 131.228 203.799L130.78 203.927V201.399H132.124V205.527H130.876C130.834 204.674 130.631 204.013 130.268 203.543C129.906 203.053 129.436 202.711 128.86 202.519C128.306 202.327 127.73 202.231 127.132 202.231C126.023 202.231 125.191 202.445 124.636 202.871C124.103 203.277 123.836 203.821 123.836 204.503C123.836 205.037 124.018 205.453 124.38 205.751C124.764 206.05 125.394 206.306 126.268 206.519L129.404 207.287C130.556 207.565 131.41 207.97 131.964 208.503C132.54 209.037 132.828 209.783 132.828 210.743C132.828 211.49 132.626 212.141 132.22 212.695C131.836 213.229 131.292 213.645 130.588 213.943C129.884 214.221 129.031 214.359 128.028 214.359ZM141.29 214.359C139.882 214.359 138.815 214.018 138.09 213.335C137.365 212.631 137.002 211.554 137.002 210.103V202.711H134.474V201.399H138.73V209.943C138.73 210.967 138.965 211.725 139.434 212.215C139.925 212.685 140.693 212.919 141.738 212.919C142.485 212.919 143.253 212.781 144.042 212.503C144.831 212.205 145.685 211.671 146.602 210.903L145.962 211.735V202.711H143.594V201.399H147.69V212.727H149.898V214.039H146.058V212.279L146.634 212.151C145.845 212.877 144.981 213.431 144.042 213.815C143.103 214.178 142.186 214.359 141.29 214.359ZM151.517 214.039V212.727H153.885V202.711H151.357V201.399H155.517V203.159L155.133 203.287C155.944 202.562 156.819 202.018 157.757 201.655C158.696 201.271 159.603 201.079 160.477 201.079C161.928 201.079 163.005 201.421 163.709 202.103C164.413 202.786 164.765 203.863 164.765 205.335V212.727H166.973V214.039H160.669V212.727H163.037V205.495C163.037 204.471 162.792 203.725 162.301 203.255C161.832 202.765 161.075 202.519 160.029 202.519C159.283 202.519 158.515 202.658 157.725 202.935C156.957 203.191 156.104 203.714 155.165 204.503L155.613 203.671V212.727H157.821V214.039H151.517ZM174.571 214.359C173.163 214.359 172.097 214.018 171.371 213.335C170.646 212.631 170.283 211.554 170.283 210.103V202.711H167.755V201.399H172.011V209.943C172.011 210.967 172.246 211.725 172.715 212.215C173.206 212.685 173.974 212.919 175.019 212.919C175.766 212.919 176.534 212.781 177.323 212.503C178.113 212.205 178.966 211.671 179.883 210.903L179.243 211.735V202.711H176.875V201.399H180.971V212.727H183.179V214.039H179.339V212.279L179.915 212.151C179.126 212.877 178.262 213.431 177.323 213.815C176.385 214.178 175.467 214.359 174.571 214.359ZM184.799 214.039V212.727H187.167V202.711H184.639V201.399H188.799V203.159L188.415 203.287C189.204 202.562 190.057 202.018 190.975 201.655C191.892 201.271 192.777 201.079 193.631 201.079C194.825 201.079 195.711 201.293 196.287 201.719C196.884 202.146 197.3 202.69 197.535 203.351L197.279 203.255C198.089 202.53 198.943 201.986 199.839 201.623C200.756 201.261 201.641 201.079 202.495 201.079C203.903 201.079 204.948 201.421 205.631 202.103C206.335 202.786 206.687 203.863 206.687 205.335V212.727H208.895V214.039H202.623V212.727H204.991V205.495C204.991 204.471 204.756 203.725 204.287 203.255C203.817 202.765 203.071 202.519 202.047 202.519C201.321 202.519 200.575 202.658 199.807 202.935C199.039 203.191 198.207 203.714 197.311 204.503L197.599 203.639C197.705 203.938 197.769 204.258 197.791 204.599C197.812 204.919 197.823 205.165 197.823 205.335V212.727H199.999V214.039H193.759V212.727H196.095V205.495C196.095 204.471 195.86 203.725 195.391 203.255C194.943 202.765 194.207 202.519 193.183 202.519C192.457 202.519 191.711 202.658 190.943 202.935C190.175 203.191 189.343 203.714 188.447 204.503L188.895 203.863V212.727H191.071V214.039H184.799ZM218.855 214.039V212.727H221.255V196.695H218.727V195.383H222.951V203.159L222.503 203.287C223.314 202.562 224.178 202.018 225.095 201.655C226.034 201.271 226.951 201.079 227.847 201.079C229.276 201.079 230.343 201.421 231.047 202.103C231.751 202.786 232.103 203.863 232.103 205.335V212.727H234.311V214.039H228.007V212.727H230.407V205.495C230.407 204.471 230.162 203.725 229.671 203.255C229.202 202.765 228.434 202.519 227.367 202.519C226.62 202.519 225.852 202.658 225.063 202.935C224.295 203.191 223.442 203.714 222.503 204.503L222.951 203.671V212.727H225.159V214.039H218.855ZM241.083 214.359C239.611 214.359 238.48 214.029 237.691 213.367C236.923 212.706 236.539 211.799 236.539 210.647C236.539 209.367 236.976 208.418 237.851 207.799C238.747 207.159 239.942 206.839 241.435 206.839C242.16 206.839 242.886 206.893 243.611 206.999C244.358 207.106 245.136 207.255 245.947 207.447L245.467 207.735V205.559C245.467 204.557 245.168 203.799 244.571 203.287C243.974 202.775 243.067 202.519 241.851 202.519C241.168 202.519 240.464 202.615 239.739 202.807C239.035 202.978 238.352 203.245 237.691 203.607L237.211 202.231C237.936 201.847 238.726 201.559 239.579 201.367C240.432 201.175 241.211 201.079 241.915 201.079C243.664 201.079 244.976 201.463 245.851 202.231C246.747 202.999 247.195 204.151 247.195 205.687V212.727H249.371V214.039H245.531V212.087L245.787 212.247C245.147 212.951 244.4 213.485 243.547 213.847C242.715 214.189 241.894 214.359 241.083 214.359ZM241.339 213.015C242.107 213.015 242.864 212.855 243.611 212.535C244.379 212.215 245.062 211.757 245.659 211.159L245.467 211.767V208.151L245.947 208.695C245.179 208.482 244.432 208.333 243.707 208.247C243.003 208.162 242.342 208.119 241.723 208.119C240.614 208.119 239.75 208.322 239.131 208.727C238.534 209.111 238.235 209.741 238.235 210.615C238.235 211.383 238.491 211.981 239.003 212.407C239.536 212.813 240.315 213.015 241.339 213.015ZM251.858 214.039V213.079L260.498 202.167L260.818 202.711H253.33V205.431H251.986V201.399H262.258V202.423L253.586 213.335L253.426 212.727H261.17V209.559H262.482V214.039H251.858ZM264.642 214.039V212.727H267.01V202.711H264.482V201.399H268.738V212.727H270.946V214.039H264.642ZM272.549 214.039V212.727H274.917V202.711H272.389V201.399H276.549V204.407L276.229 204.279C276.677 203.319 277.221 202.551 277.861 201.975C278.501 201.399 279.237 201.111 280.069 201.111C280.794 201.111 281.509 201.303 282.213 201.687L281.669 203.287C281.327 203.053 281.007 202.893 280.709 202.807C280.41 202.701 280.101 202.647 279.781 202.647C279.141 202.647 278.533 202.882 277.957 203.351C277.402 203.821 276.965 204.429 276.645 205.175V212.727H279.237V214.039H272.549ZM282.949 214.039V212.727H285.349V196.695H282.821V195.383H287.045V212.727H289.285V214.039H282.949ZM290.674 214.039V212.727H293.042V202.711H290.514V201.399H294.77V212.727H296.978V214.039H290.674ZM306.1 219.831C305.268 219.831 304.393 219.735 303.476 219.543C302.58 219.373 301.769 219.085 301.044 218.679L301.652 217.271C302.377 217.677 303.102 217.965 303.828 218.135C304.574 218.306 305.31 218.391 306.036 218.391C307.444 218.391 308.478 218.05 309.14 217.367C309.801 216.685 310.132 215.682 310.132 214.359V211.639L310.548 211.351C310.014 212.098 309.289 212.685 308.372 213.111C307.476 213.517 306.484 213.719 305.396 213.719C304.073 213.719 302.942 213.442 302.004 212.887C301.086 212.333 300.393 211.575 299.924 210.615C299.454 209.655 299.22 208.589 299.22 207.415C299.22 206.221 299.454 205.143 299.924 204.183C300.393 203.223 301.086 202.466 302.004 201.911C302.942 201.357 304.073 201.079 305.396 201.079C306.484 201.079 307.476 201.293 308.372 201.719C309.289 202.125 310.014 202.701 310.548 203.447L310.228 203.415V201.399H314.068V202.711H311.892V214.167C311.892 215.405 311.668 216.439 311.22 217.271C310.772 218.125 310.121 218.765 309.268 219.191C308.414 219.618 307.358 219.831 306.1 219.831ZM305.652 212.279C306.633 212.279 307.518 212.109 308.308 211.767C309.118 211.426 309.78 210.935 310.292 210.295L310.164 211.063V203.831L310.292 204.503C309.78 203.863 309.118 203.373 308.308 203.031C307.518 202.69 306.633 202.519 305.652 202.519C304.201 202.519 303.038 202.946 302.164 203.799C301.31 204.653 300.884 205.858 300.884 207.415C300.884 208.93 301.31 210.125 302.164 210.999C303.038 211.853 304.201 212.279 305.652 212.279ZM306.452 198.775C305.385 198.775 304.553 198.445 303.956 197.783C303.358 197.101 303.049 196.226 303.028 195.159H304.052C304.052 195.991 304.276 196.621 304.724 197.047C305.193 197.453 305.769 197.655 306.452 197.655C307.156 197.655 307.732 197.453 308.18 197.047C308.628 196.621 308.852 195.991 308.852 195.159H309.876C309.854 196.226 309.545 197.101 308.948 197.783C308.372 198.445 307.54 198.775 306.452 198.775ZM315.674 214.039V212.727H318.042V202.711H315.514V201.399H319.77V212.727H321.978V214.039H315.674Z" fill="#FEFEFE" fill-opacity="0.937255"/>
<mask id="path-7-outside-1_14_28" maskUnits="userSpaceOnUse" x="156.5" y="249" width="131" height="27" fill="black">
<rect fill="white" x="156.5" y="249" width="131" height="27"/>
<path d="M157.919 269V267.624H160.447V251.72H157.919V250.344H168.831C170.58 250.344 171.935 250.707 172.895 251.432C173.855 252.157 174.335 253.32 174.335 254.92C174.335 255.773 174.154 256.509 173.791 257.128C173.45 257.747 172.991 258.237 172.415 258.6C171.86 258.941 171.263 259.144 170.623 259.208L170.463 259.016C171.572 259.037 172.49 259.283 173.215 259.752C173.94 260.221 174.474 260.819 174.815 261.544C175.178 262.269 175.359 263.059 175.359 263.912C175.359 265.555 174.879 266.813 173.919 267.688C172.959 268.563 171.54 269 169.663 269H157.919ZM162.335 267.624H169.151C170.666 267.624 171.754 267.283 172.415 266.6C173.076 265.896 173.407 264.947 173.407 263.752C173.407 262.664 173.076 261.757 172.415 261.032C171.754 260.285 170.666 259.912 169.151 259.912H162.335V267.624ZM162.335 258.504H168.831C169.983 258.504 170.858 258.184 171.455 257.544C172.052 256.904 172.351 256.083 172.351 255.08C172.351 253.928 172.031 253.085 171.391 252.552C170.751 251.997 169.716 251.72 168.287 251.72H162.335V258.504ZM177.814 269V267.688H180.182V257.672H177.654V256.36H181.91V267.688H184.118V269H177.814ZM181.014 253.736C180.566 253.736 180.235 253.608 180.022 253.352C179.809 253.096 179.702 252.797 179.702 252.456C179.702 252.093 179.809 251.784 180.022 251.528C180.235 251.272 180.566 251.144 181.014 251.144C181.462 251.144 181.793 251.272 182.006 251.528C182.241 251.784 182.358 252.093 182.358 252.456C182.358 252.797 182.241 253.096 182.006 253.352C181.793 253.608 181.462 253.736 181.014 253.736ZM185.464 269V267.688H187.864V251.656H185.336V250.344H189.56V267.688H191.8V269H185.464ZM200.709 274.792C199.877 274.792 199.002 274.696 198.085 274.504C197.189 274.333 196.378 274.045 195.653 273.64L196.261 272.232C196.986 272.637 197.712 272.925 198.437 273.096C199.184 273.267 199.92 273.352 200.645 273.352C202.053 273.352 203.088 273.011 203.749 272.328C204.41 271.645 204.741 270.643 204.741 269.32V266.6L205.157 266.312C204.624 267.059 203.898 267.645 202.981 268.072C202.085 268.477 201.093 268.68 200.005 268.68C198.682 268.68 197.552 268.403 196.613 267.848C195.696 267.293 195.002 266.536 194.533 265.576C194.064 264.616 193.829 263.549 193.829 262.376C193.829 261.181 194.064 260.104 194.533 259.144C195.002 258.184 195.696 257.427 196.613 256.872C197.552 256.317 198.682 256.04 200.005 256.04C201.093 256.04 202.085 256.253 202.981 256.68C203.898 257.085 204.624 257.661 205.157 258.408L204.837 258.376V256.36H208.677V257.672H206.501V269.128C206.501 270.365 206.277 271.4 205.829 272.232C205.381 273.085 204.73 273.725 203.877 274.152C203.024 274.579 201.968 274.792 200.709 274.792ZM200.261 267.24C201.242 267.24 202.128 267.069 202.917 266.728C203.728 266.387 204.389 265.896 204.901 265.256L204.773 266.024V258.792L204.901 259.464C204.389 258.824 203.728 258.333 202.917 257.992C202.128 257.651 201.242 257.48 200.261 257.48C198.81 257.48 197.648 257.907 196.773 258.76C195.92 259.613 195.493 260.819 195.493 262.376C195.493 263.891 195.92 265.085 196.773 265.96C197.648 266.813 198.81 267.24 200.261 267.24ZM210.283 269V267.688H212.651V257.672H210.123V256.36H214.379V267.688H216.587V269H210.283ZM213.483 253.736C213.035 253.736 212.704 253.608 212.491 253.352C212.278 253.096 212.171 252.797 212.171 252.456C212.171 252.093 212.278 251.784 212.491 251.528C212.704 251.272 213.035 251.144 213.483 251.144C213.931 251.144 214.262 251.272 214.475 251.528C214.71 251.784 214.827 252.093 214.827 252.456C214.827 252.797 214.71 253.096 214.475 253.352C214.262 253.608 213.931 253.736 213.483 253.736ZM227.575 269V267.624H230.103V251.72H227.575V250.344H242.967V255.816H241.591V251.72H231.991V258.824H237.911V256.392H239.223V262.792H237.943V260.2H231.991V267.624H242.103V263.368H243.479V269H227.575ZM252.47 269.32C251.169 269.32 250.07 269.032 249.174 268.456C248.278 267.859 247.595 267.059 247.126 266.056C246.678 265.053 246.454 263.923 246.454 262.664C246.454 261.405 246.678 260.285 247.126 259.304C247.595 258.301 248.278 257.512 249.174 256.936C250.07 256.339 251.169 256.04 252.47 256.04C253.515 256.04 254.475 256.253 255.35 256.68C256.246 257.107 256.95 257.725 257.462 258.536L257.078 258.376V251.656H254.55V250.344H258.806V267.688H261.046V269H257.142V266.92L257.462 266.824C256.95 267.613 256.246 268.232 255.35 268.68C254.475 269.107 253.515 269.32 252.47 269.32ZM252.726 267.88C253.665 267.88 254.518 267.699 255.286 267.336C256.075 266.973 256.715 266.451 257.206 265.768L257.078 266.632V258.792L257.206 259.592C256.715 258.888 256.075 258.365 255.286 258.024C254.518 257.661 253.665 257.48 252.726 257.48C251.339 257.48 250.219 257.939 249.366 258.856C248.534 259.752 248.118 261.021 248.118 262.664C248.118 264.307 248.534 265.587 249.366 266.504C250.219 267.421 251.339 267.88 252.726 267.88ZM262.377 269V267.688H264.745V257.672H262.217V256.36H266.473V267.688H268.681V269H262.377ZM265.577 253.736C265.129 253.736 264.798 253.608 264.585 253.352C264.371 253.096 264.265 252.797 264.265 252.456C264.265 252.093 264.371 251.784 264.585 251.528C264.798 251.272 265.129 251.144 265.577 251.144C266.025 251.144 266.355 251.272 266.569 251.528C266.803 251.784 266.921 252.093 266.921 252.456C266.921 252.797 266.803 253.096 266.569 253.352C266.355 253.608 266.025 253.736 265.577 253.736ZM270.283 269V267.688H272.651V257.672H270.123V256.36H274.283V258.12L273.899 258.248C274.71 257.523 275.584 256.979 276.523 256.616C277.462 256.232 278.368 256.04 279.243 256.04C280.694 256.04 281.771 256.381 282.475 257.064C283.179 257.747 283.531 258.824 283.531 260.296V267.688H285.739V269H279.435V267.688H281.803V260.456C281.803 259.432 281.558 258.685 281.067 258.216C280.598 257.725 279.84 257.48 278.795 257.48C278.048 257.48 277.28 257.619 276.491 257.896C275.723 258.152 274.87 258.675 273.931 259.464L274.379 258.632V267.688H276.587V269H270.283Z"/>
</mask>
<path d="M157.919 269V267.624H160.447V251.72H157.919V250.344H168.831C170.58 250.344 171.935 250.707 172.895 251.432C173.855 252.157 174.335 253.32 174.335 254.92C174.335 255.773 174.154 256.509 173.791 257.128C173.45 257.747 172.991 258.237 172.415 258.6C171.86 258.941 171.263 259.144 170.623 259.208L170.463 259.016C171.572 259.037 172.49 259.283 173.215 259.752C173.94 260.221 174.474 260.819 174.815 261.544C175.178 262.269 175.359 263.059 175.359 263.912C175.359 265.555 174.879 266.813 173.919 267.688C172.959 268.563 171.54 269 169.663 269H157.919ZM162.335 267.624H169.151C170.666 267.624 171.754 267.283 172.415 266.6C173.076 265.896 173.407 264.947 173.407 263.752C173.407 262.664 173.076 261.757 172.415 261.032C171.754 260.285 170.666 259.912 169.151 259.912H162.335V267.624ZM162.335 258.504H168.831C169.983 258.504 170.858 258.184 171.455 257.544C172.052 256.904 172.351 256.083 172.351 255.08C172.351 253.928 172.031 253.085 171.391 252.552C170.751 251.997 169.716 251.72 168.287 251.72H162.335V258.504ZM177.814 269V267.688H180.182V257.672H177.654V256.36H181.91V267.688H184.118V269H177.814ZM181.014 253.736C180.566 253.736 180.235 253.608 180.022 253.352C179.809 253.096 179.702 252.797 179.702 252.456C179.702 252.093 179.809 251.784 180.022 251.528C180.235 251.272 180.566 251.144 181.014 251.144C181.462 251.144 181.793 251.272 182.006 251.528C182.241 251.784 182.358 252.093 182.358 252.456C182.358 252.797 182.241 253.096 182.006 253.352C181.793 253.608 181.462 253.736 181.014 253.736ZM185.464 269V267.688H187.864V251.656H185.336V250.344H189.56V267.688H191.8V269H185.464ZM200.709 274.792C199.877 274.792 199.002 274.696 198.085 274.504C197.189 274.333 196.378 274.045 195.653 273.64L196.261 272.232C196.986 272.637 197.712 272.925 198.437 273.096C199.184 273.267 199.92 273.352 200.645 273.352C202.053 273.352 203.088 273.011 203.749 272.328C204.41 271.645 204.741 270.643 204.741 269.32V266.6L205.157 266.312C204.624 267.059 203.898 267.645 202.981 268.072C202.085 268.477 201.093 268.68 200.005 268.68C198.682 268.68 197.552 268.403 196.613 267.848C195.696 267.293 195.002 266.536 194.533 265.576C194.064 264.616 193.829 263.549 193.829 262.376C193.829 261.181 194.064 260.104 194.533 259.144C195.002 258.184 195.696 257.427 196.613 256.872C197.552 256.317 198.682 256.04 200.005 256.04C201.093 256.04 202.085 256.253 202.981 256.68C203.898 257.085 204.624 257.661 205.157 258.408L204.837 258.376V256.36H208.677V257.672H206.501V269.128C206.501 270.365 206.277 271.4 205.829 272.232C205.381 273.085 204.73 273.725 203.877 274.152C203.024 274.579 201.968 274.792 200.709 274.792ZM200.261 267.24C201.242 267.24 202.128 267.069 202.917 266.728C203.728 266.387 204.389 265.896 204.901 265.256L204.773 266.024V258.792L204.901 259.464C204.389 258.824 203.728 258.333 202.917 257.992C202.128 257.651 201.242 257.48 200.261 257.48C198.81 257.48 197.648 257.907 196.773 258.76C195.92 259.613 195.493 260.819 195.493 262.376C195.493 263.891 195.92 265.085 196.773 265.96C197.648 266.813 198.81 267.24 200.261 267.24ZM210.283 269V267.688H212.651V257.672H210.123V256.36H214.379V267.688H216.587V269H210.283ZM213.483 253.736C213.035 253.736 212.704 253.608 212.491 253.352C212.278 253.096 212.171 252.797 212.171 252.456C212.171 252.093 212.278 251.784 212.491 251.528C212.704 251.272 213.035 251.144 213.483 251.144C213.931 251.144 214.262 251.272 214.475 251.528C214.71 251.784 214.827 252.093 214.827 252.456C214.827 252.797 214.71 253.096 214.475 253.352C214.262 253.608 213.931 253.736 213.483 253.736ZM227.575 269V267.624H230.103V251.72H227.575V250.344H242.967V255.816H241.591V251.72H231.991V258.824H237.911V256.392H239.223V262.792H237.943V260.2H231.991V267.624H242.103V263.368H243.479V269H227.575ZM252.47 269.32C251.169 269.32 250.07 269.032 249.174 268.456C248.278 267.859 247.595 267.059 247.126 266.056C246.678 265.053 246.454 263.923 246.454 262.664C246.454 261.405 246.678 260.285 247.126 259.304C247.595 258.301 248.278 257.512 249.174 256.936C250.07 256.339 251.169 256.04 252.47 256.04C253.515 256.04 254.475 256.253 255.35 256.68C256.246 257.107 256.95 257.725 257.462 258.536L257.078 258.376V251.656H254.55V250.344H258.806V267.688H261.046V269H257.142V266.92L257.462 266.824C256.95 267.613 256.246 268.232 255.35 268.68C254.475 269.107 253.515 269.32 252.47 269.32ZM252.726 267.88C253.665 267.88 254.518 267.699 255.286 267.336C256.075 266.973 256.715 266.451 257.206 265.768L257.078 266.632V258.792L257.206 259.592C256.715 258.888 256.075 258.365 255.286 258.024C254.518 257.661 253.665 257.48 252.726 257.48C251.339 257.48 250.219 257.939 249.366 258.856C248.534 259.752 248.118 261.021 248.118 262.664C248.118 264.307 248.534 265.587 249.366 266.504C250.219 267.421 251.339 267.88 252.726 267.88ZM262.377 269V267.688H264.745V257.672H262.217V256.36H266.473V267.688H268.681V269H262.377ZM265.577 253.736C265.129 253.736 264.798 253.608 264.585 253.352C264.371 253.096 264.265 252.797 264.265 252.456C264.265 252.093 264.371 251.784 264.585 251.528C264.798 251.272 265.129 251.144 265.577 251.144C266.025 251.144 266.355 251.272 266.569 251.528C266.803 251.784 266.921 252.093 266.921 252.456C266.921 252.797 266.803 253.096 266.569 253.352C266.355 253.608 266.025 253.736 265.577 253.736ZM270.283 269V267.688H272.651V257.672H270.123V256.36H274.283V258.12L273.899 258.248C274.71 257.523 275.584 256.979 276.523 256.616C277.462 256.232 278.368 256.04 279.243 256.04C280.694 256.04 281.771 256.381 282.475 257.064C283.179 257.747 283.531 258.824 283.531 260.296V267.688H285.739V269H279.435V267.688H281.803V260.456C281.803 259.432 281.558 258.685 281.067 258.216C280.598 257.725 279.84 257.48 278.795 257.48C278.048 257.48 277.28 257.619 276.491 257.896C275.723 258.152 274.87 258.675 273.931 259.464L274.379 258.632V267.688H276.587V269H270.283Z" fill="#FEFEFE"/>
<path d="M157.919 269H156.919V270H157.919V269ZM157.919 267.624V266.624H156.919V267.624H157.919ZM160.447 267.624V268.624H161.447V267.624H160.447ZM160.447 251.72H161.447V250.72H160.447V251.72ZM157.919 251.72H156.919V252.72H157.919V251.72ZM157.919 250.344V249.344H156.919V250.344H157.919ZM172.895 251.432L173.498 250.634L173.498 250.634L172.895 251.432ZM173.791 257.128L172.928 256.622L172.922 256.634L172.916 256.645L173.791 257.128ZM172.415 258.6L172.939 259.452L172.948 259.446L172.415 258.6ZM170.623 259.208L169.855 259.848L170.195 260.256L170.723 260.203L170.623 259.208ZM170.463 259.016L170.482 258.016L168.293 257.974L169.695 259.656L170.463 259.016ZM173.215 259.752L172.672 260.592L172.672 260.592L173.215 259.752ZM174.815 261.544L173.91 261.97L173.915 261.981L173.921 261.991L174.815 261.544ZM173.919 267.688L174.593 268.427L174.593 268.427L173.919 267.688ZM162.335 267.624H161.335V268.624H162.335V267.624ZM172.415 266.6L173.133 267.296L173.139 267.29L173.144 267.285L172.415 266.6ZM172.415 261.032L171.667 261.695L171.671 261.7L171.676 261.706L172.415 261.032ZM162.335 259.912V258.912H161.335V259.912H162.335ZM162.335 258.504H161.335V259.504H162.335V258.504ZM171.391 252.552L170.736 253.308L170.744 253.314L170.751 253.32L171.391 252.552ZM162.335 251.72V250.72H161.335V251.72H162.335ZM158.919 269V267.624H156.919V269H158.919ZM157.919 268.624H160.447V266.624H157.919V268.624ZM161.447 267.624V251.72H159.447V267.624H161.447ZM160.447 250.72H157.919V252.72H160.447V250.72ZM158.919 251.72V250.344H156.919V251.72H158.919ZM157.919 251.344H168.831V249.344H157.919V251.344ZM168.831 251.344C170.458 251.344 171.569 251.683 172.292 252.23L173.498 250.634C172.301 249.73 170.703 249.344 168.831 249.344V251.344ZM172.292 252.23C172.925 252.708 173.335 253.521 173.335 254.92H175.335C175.335 253.119 174.786 251.607 173.498 250.634L172.292 252.23ZM173.335 254.92C173.335 255.629 173.185 256.184 172.928 256.622L174.654 257.634C175.122 256.835 175.335 255.917 175.335 254.92H173.335ZM172.916 256.645C172.653 257.121 172.31 257.485 171.882 257.754L172.948 259.446C173.673 258.99 174.247 258.372 174.667 257.611L172.916 256.645ZM171.891 257.748C171.464 258.011 171.011 258.164 170.524 258.213L170.723 260.203C171.515 260.124 172.257 259.871 172.939 259.452L171.891 257.748ZM171.391 258.568L171.231 258.376L169.695 259.656L169.855 259.848L171.391 258.568ZM170.444 260.016C171.419 260.035 172.142 260.248 172.672 260.592L173.758 258.912C172.838 258.317 171.726 258.04 170.482 258.016L170.444 260.016ZM172.672 260.592C173.253 260.968 173.655 261.427 173.91 261.97L175.72 261.118C175.293 260.211 174.628 259.475 173.758 258.912L172.672 260.592ZM173.921 261.991C174.21 262.57 174.359 263.206 174.359 263.912H176.359C176.359 262.912 176.145 261.968 175.71 261.097L173.921 261.991ZM174.359 263.912C174.359 265.353 173.945 266.311 173.246 266.949L174.593 268.427C175.813 267.315 176.359 265.756 176.359 263.912H174.359ZM173.246 266.949C172.537 267.594 171.401 268 169.663 268V270C171.68 270 173.381 269.531 174.593 268.427L173.246 266.949ZM169.663 268H157.919V270H169.663V268ZM162.335 268.624H169.151V266.624H162.335V268.624ZM169.151 268.624C170.781 268.624 172.198 268.262 173.133 267.296L171.697 265.904C171.31 266.304 170.551 266.624 169.151 266.624V268.624ZM173.144 267.285C174.018 266.354 174.407 265.138 174.407 263.752H172.407C172.407 264.756 172.134 265.438 171.686 265.915L173.144 267.285ZM174.407 263.752C174.407 262.444 174.002 261.288 173.154 260.358L171.676 261.706C172.151 262.226 172.407 262.884 172.407 263.752H174.407ZM173.164 260.369C172.232 259.317 170.803 258.912 169.151 258.912V260.912C170.528 260.912 171.275 261.253 171.667 261.695L173.164 260.369ZM169.151 258.912H162.335V260.912H169.151V258.912ZM161.335 259.912V267.624H163.335V259.912H161.335ZM162.335 259.504H168.831V257.504H162.335V259.504ZM168.831 259.504C170.168 259.504 171.345 259.128 172.186 258.226L170.724 256.862C170.371 257.24 169.798 257.504 168.831 257.504V259.504ZM172.186 258.226C172.982 257.374 173.351 256.296 173.351 255.08H171.351C171.351 255.869 171.123 256.434 170.724 256.862L172.186 258.226ZM173.351 255.08C173.351 253.751 172.977 252.572 172.031 251.784L170.751 253.32C171.085 253.599 171.351 254.105 171.351 255.08H173.351ZM172.046 251.796C171.135 251.007 169.805 250.72 168.287 250.72V252.72C169.628 252.72 170.367 252.988 170.736 253.308L172.046 251.796ZM168.287 250.72H162.335V252.72H168.287V250.72ZM161.335 251.72V258.504H163.335V251.72H161.335ZM177.814 269H176.814V270H177.814V269ZM177.814 267.688V266.688H176.814V267.688H177.814ZM180.182 267.688V268.688H181.182V267.688H180.182ZM180.182 257.672H181.182V256.672H180.182V257.672ZM177.654 257.672H176.654V258.672H177.654V257.672ZM177.654 256.36V255.36H176.654V256.36H177.654ZM181.91 256.36H182.91V255.36H181.91V256.36ZM181.91 267.688H180.91V268.688H181.91V267.688ZM184.118 267.688H185.118V266.688H184.118V267.688ZM184.118 269V270H185.118V269H184.118ZM180.022 253.352L179.254 253.992L179.254 253.992L180.022 253.352ZM180.022 251.528L180.79 252.168L180.79 252.168L180.022 251.528ZM182.006 251.528L181.238 252.168L181.253 252.186L181.269 252.204L182.006 251.528ZM182.006 253.352L181.269 252.676L181.253 252.694L181.238 252.712L182.006 253.352ZM178.814 269V267.688H176.814V269H178.814ZM177.814 268.688H180.182V266.688H177.814V268.688ZM181.182 267.688V257.672H179.182V267.688H181.182ZM180.182 256.672H177.654V258.672H180.182V256.672ZM178.654 257.672V256.36H176.654V257.672H178.654ZM177.654 257.36H181.91V255.36H177.654V257.36ZM180.91 256.36V267.688H182.91V256.36H180.91ZM181.91 268.688H184.118V266.688H181.91V268.688ZM183.118 267.688V269H185.118V267.688H183.118ZM184.118 268H177.814V270H184.118V268ZM181.014 252.736C180.882 252.736 180.815 252.717 180.791 252.707C180.774 252.701 180.781 252.701 180.79 252.712L179.254 253.992C179.717 254.548 180.378 254.736 181.014 254.736V252.736ZM180.79 252.712C180.731 252.64 180.702 252.57 180.702 252.456H178.702C178.702 253.025 178.887 253.552 179.254 253.992L180.79 252.712ZM180.702 252.456C180.702 252.305 180.74 252.228 180.79 252.168L179.254 250.888C178.877 251.34 178.702 251.882 178.702 252.456H180.702ZM180.79 252.168C180.781 252.179 180.774 252.179 180.791 252.173C180.815 252.163 180.882 252.144 181.014 252.144V250.144C180.378 250.144 179.717 250.332 179.254 250.888L180.79 252.168ZM181.014 252.144C181.146 252.144 181.213 252.163 181.237 252.173C181.255 252.179 181.247 252.179 181.238 252.168L182.774 250.888C182.311 250.332 181.65 250.144 181.014 250.144V252.144ZM181.269 252.204C181.327 252.267 181.358 252.331 181.358 252.456H183.358C183.358 251.855 183.155 251.301 182.743 250.852L181.269 252.204ZM181.358 252.456C181.358 252.542 181.338 252.601 181.269 252.676L182.743 254.028C183.144 253.591 183.358 253.052 183.358 252.456H181.358ZM181.238 252.712C181.247 252.701 181.255 252.701 181.237 252.707C181.213 252.717 181.146 252.736 181.014 252.736V254.736C181.65 254.736 182.311 254.548 182.774 253.992L181.238 252.712ZM185.464 269H184.464V270H185.464V269ZM185.464 267.688V266.688H184.464V267.688H185.464ZM187.864 267.688V268.688H188.864V267.688H187.864ZM187.864 251.656H188.864V250.656H187.864V251.656ZM185.336 251.656H184.336V252.656H185.336V251.656ZM185.336 250.344V249.344H184.336V250.344H185.336ZM189.56 250.344H190.56V249.344H189.56V250.344ZM189.56 267.688H188.56V268.688H189.56V267.688ZM191.8 267.688H192.8V266.688H191.8V267.688ZM191.8 269V270H192.8V269H191.8ZM186.464 269V267.688H184.464V269H186.464ZM185.464 268.688H187.864V266.688H185.464V268.688ZM188.864 267.688V251.656H186.864V267.688H188.864ZM187.864 250.656H185.336V252.656H187.864V250.656ZM186.336 251.656V250.344H184.336V251.656H186.336ZM185.336 251.344H189.56V249.344H185.336V251.344ZM188.56 250.344V267.688H190.56V250.344H188.56ZM189.56 268.688H191.8V266.688H189.56V268.688ZM190.8 267.688V269H192.8V267.688H190.8ZM191.8 268H185.464V270H191.8V268ZM198.085 274.504L198.29 273.525L198.281 273.523L198.272 273.522L198.085 274.504ZM195.653 273.64L194.735 273.244L194.377 274.072L195.165 274.513L195.653 273.64ZM196.261 272.232L196.749 271.359L195.782 270.819L195.343 271.836L196.261 272.232ZM198.437 273.096L198.208 274.069L198.214 274.071L198.437 273.096ZM203.749 272.328L203.031 271.632L203.031 271.632L203.749 272.328ZM204.741 266.6L204.172 265.778L203.741 266.076V266.6H204.741ZM205.157 266.312L205.971 266.893L204.588 265.49L205.157 266.312ZM202.981 268.072L203.393 268.983L203.403 268.979L202.981 268.072ZM196.613 267.848L196.096 268.704L196.104 268.709L196.613 267.848ZM194.533 265.576L195.432 265.137L195.432 265.137L194.533 265.576ZM194.533 259.144L193.635 258.705L193.635 258.705L194.533 259.144ZM196.613 256.872L196.104 256.011L196.096 256.016L196.613 256.872ZM202.981 256.68L202.551 257.583L202.564 257.589L202.577 257.595L202.981 256.68ZM205.157 258.408L205.058 259.403L207.254 259.623L205.971 257.827L205.157 258.408ZM204.837 258.376H203.837V259.281L204.738 259.371L204.837 258.376ZM204.837 256.36V255.36H203.837V256.36H204.837ZM208.677 256.36H209.677V255.36H208.677V256.36ZM208.677 257.672V258.672H209.677V257.672H208.677ZM206.501 257.672V256.672H205.501V257.672H206.501ZM205.829 272.232L204.949 271.758L204.944 271.767L205.829 272.232ZM203.877 274.152L204.324 275.046L204.324 275.046L203.877 274.152ZM202.917 266.728L202.529 265.806L202.52 265.81L202.917 266.728ZM204.901 265.256L205.888 265.42L206.519 261.633L204.12 264.631L204.901 265.256ZM204.773 266.024H203.773L205.76 266.188L204.773 266.024ZM204.773 258.792L205.755 258.605L203.773 258.792H204.773ZM204.901 259.464L204.12 260.089L205.883 259.277L204.901 259.464ZM202.917 257.992L202.52 258.91L202.529 258.914L202.917 257.992ZM196.773 258.76L196.075 258.044L196.066 258.053L196.773 258.76ZM196.773 265.96L196.057 266.658L196.066 266.667L196.075 266.676L196.773 265.96ZM200.709 273.792C199.954 273.792 199.148 273.705 198.29 273.525L197.88 275.483C198.857 275.687 199.8 275.792 200.709 275.792V273.792ZM198.272 273.522C197.471 273.369 196.764 273.115 196.141 272.767L195.165 274.513C195.993 274.976 196.907 275.298 197.898 275.486L198.272 273.522ZM196.571 274.036L197.179 272.628L195.343 271.836L194.735 273.244L196.571 274.036ZM195.773 273.105C196.571 273.55 197.383 273.875 198.208 274.069L198.666 272.123C198.041 271.976 197.402 271.724 196.749 271.359L195.773 273.105ZM198.214 274.071C199.03 274.257 199.841 274.352 200.645 274.352V272.352C199.999 272.352 199.338 272.276 198.66 272.121L198.214 274.071ZM200.645 274.352C202.194 274.352 203.543 273.978 204.467 273.024L203.031 271.632C202.632 272.044 201.912 272.352 200.645 272.352V274.352ZM204.467 273.024C205.37 272.092 205.741 270.799 205.741 269.32H203.741C203.741 270.486 203.451 271.199 203.031 271.632L204.467 273.024ZM205.741 269.32V266.6H203.741V269.32H205.741ZM205.31 267.422L205.726 267.134L204.588 265.49L204.172 265.778L205.31 267.422ZM204.343 265.731C203.92 266.323 203.337 266.804 202.559 267.165L203.403 268.979C204.46 268.487 205.327 267.794 205.971 266.893L204.343 265.731ZM202.569 267.161C201.816 267.502 200.966 267.68 200.005 267.68V269.68C201.22 269.68 202.355 269.453 203.393 268.983L202.569 267.161ZM200.005 267.68C198.823 267.68 197.877 267.433 197.122 266.987L196.104 268.709C197.227 269.372 198.542 269.68 200.005 269.68V267.68ZM197.131 266.992C196.377 266.537 195.816 265.924 195.432 265.137L193.635 266.015C194.189 267.148 195.015 268.05 196.096 268.704L197.131 266.992ZM195.432 265.137C195.035 264.327 194.829 263.412 194.829 262.376H192.829C192.829 263.686 193.092 264.905 193.635 266.015L195.432 265.137ZM194.829 262.376C194.829 261.315 195.037 260.391 195.432 259.583L193.635 258.705C193.091 259.817 192.829 261.047 192.829 262.376H194.829ZM195.432 259.583C195.816 258.796 196.377 258.183 197.131 257.728L196.096 256.016C195.015 256.67 194.189 257.572 193.635 258.705L195.432 259.583ZM197.122 257.733C197.877 257.287 198.823 257.04 200.005 257.04V255.04C198.542 255.04 197.227 255.348 196.104 256.011L197.122 257.733ZM200.005 257.04C200.959 257.04 201.802 257.226 202.551 257.583L203.411 255.777C202.368 255.281 201.227 255.04 200.005 255.04V257.04ZM202.577 257.595C203.346 257.935 203.924 258.402 204.343 258.989L205.971 257.827C205.324 256.921 204.451 256.236 203.385 255.765L202.577 257.595ZM205.257 257.413L204.937 257.381L204.738 259.371L205.058 259.403L205.257 257.413ZM205.837 258.376V256.36H203.837V258.376H205.837ZM204.837 257.36H208.677V255.36H204.837V257.36ZM207.677 256.36V257.672H209.677V256.36H207.677ZM208.677 256.672H206.501V258.672H208.677V256.672ZM205.501 257.672V269.128H207.501V257.672H205.501ZM205.501 269.128C205.501 270.249 205.298 271.11 204.949 271.758L206.71 272.706C207.257 271.69 207.501 270.481 207.501 269.128H205.501ZM204.944 271.767C204.592 272.437 204.094 272.926 203.43 273.258L204.324 275.046C205.367 274.525 206.17 273.734 206.715 272.697L204.944 271.767ZM203.43 273.258C202.752 273.596 201.86 273.792 200.709 273.792V275.792C202.075 275.792 203.295 275.561 204.324 275.046L203.43 273.258ZM200.261 268.24C201.36 268.24 202.383 268.049 203.314 267.646L202.52 265.81C201.873 266.09 201.125 266.24 200.261 266.24V268.24ZM203.305 267.65C204.258 267.248 205.058 266.66 205.682 265.881L204.12 264.631C203.72 265.132 203.198 265.525 202.529 265.806L203.305 267.65ZM203.915 265.092L203.787 265.86L205.76 266.188L205.888 265.42L203.915 265.092ZM205.773 266.024V258.792H203.773V266.024H205.773ZM203.791 258.979L203.919 259.651L205.883 259.277L205.755 258.605L203.791 258.979ZM205.682 258.839C205.058 258.06 204.258 257.472 203.305 257.07L202.529 258.914C203.198 259.195 203.72 259.588 204.12 260.089L205.682 258.839ZM203.314 257.074C202.383 256.671 201.36 256.48 200.261 256.48V258.48C201.125 258.48 201.873 258.63 202.52 258.91L203.314 257.074ZM200.261 256.48C198.602 256.48 197.171 256.975 196.075 258.044L197.471 259.476C198.125 258.838 199.019 258.48 200.261 258.48V256.48ZM196.066 258.053C194.975 259.144 194.493 260.634 194.493 262.376H196.493C196.493 261.003 196.865 260.083 197.48 259.467L196.066 258.053ZM194.493 262.376C194.493 264.086 194.98 265.554 196.057 266.658L197.489 265.262C196.859 264.616 196.493 263.696 196.493 262.376H194.493ZM196.075 266.676C197.171 267.745 198.602 268.24 200.261 268.24V266.24C199.019 266.24 198.125 265.882 197.471 265.244L196.075 266.676ZM210.283 269H209.283V270H210.283V269ZM210.283 267.688V266.688H209.283V267.688H210.283ZM212.651 267.688V268.688H213.651V267.688H212.651ZM212.651 257.672H213.651V256.672H212.651V257.672ZM210.123 257.672H209.123V258.672H210.123V257.672ZM210.123 256.36V255.36H209.123V256.36H210.123ZM214.379 256.36H215.379V255.36H214.379V256.36ZM214.379 267.688H213.379V268.688H214.379V267.688ZM216.587 267.688H217.587V266.688H216.587V267.688ZM216.587 269V270H217.587V269H216.587ZM212.491 253.352L211.723 253.992L211.723 253.992L212.491 253.352ZM212.491 251.528L213.259 252.168L213.259 252.168L212.491 251.528ZM214.475 251.528L213.707 252.168L213.722 252.186L213.738 252.204L214.475 251.528ZM214.475 253.352L213.738 252.676L213.722 252.694L213.707 252.712L214.475 253.352ZM211.283 269V267.688H209.283V269H211.283ZM210.283 268.688H212.651V266.688H210.283V268.688ZM213.651 267.688V257.672H211.651V267.688H213.651ZM212.651 256.672H210.123V258.672H212.651V256.672ZM211.123 257.672V256.36H209.123V257.672H211.123ZM210.123 257.36H214.379V255.36H210.123V257.36ZM213.379 256.36V267.688H215.379V256.36H213.379ZM214.379 268.688H216.587V266.688H214.379V268.688ZM215.587 267.688V269H217.587V267.688H215.587ZM216.587 268H210.283V270H216.587V268ZM213.483 252.736C213.351 252.736 213.284 252.717 213.26 252.707C213.242 252.701 213.25 252.701 213.259 252.712L211.723 253.992C212.186 254.548 212.847 254.736 213.483 254.736V252.736ZM213.259 252.712C213.199 252.64 213.171 252.57 213.171 252.456H211.171C211.171 253.025 211.356 253.552 211.723 253.992L213.259 252.712ZM213.171 252.456C213.171 252.305 213.209 252.228 213.259 252.168L211.723 250.888C211.346 251.34 211.171 251.882 211.171 252.456H213.171ZM213.259 252.168C213.25 252.179 213.242 252.179 213.26 252.173C213.284 252.163 213.351 252.144 213.483 252.144V250.144C212.847 250.144 212.186 250.332 211.723 250.888L213.259 252.168ZM213.483 252.144C213.615 252.144 213.682 252.163 213.706 252.173C213.723 252.179 213.716 252.179 213.707 252.168L215.243 250.888C214.78 250.332 214.119 250.144 213.483 250.144V252.144ZM213.738 252.204C213.795 252.267 213.827 252.331 213.827 252.456H215.827C215.827 251.855 215.624 251.301 215.212 250.852L213.738 252.204ZM213.827 252.456C213.827 252.542 213.807 252.601 213.738 252.676L215.212 254.028C215.612 253.591 215.827 253.052 215.827 252.456H213.827ZM213.707 252.712C213.716 252.701 213.723 252.701 213.706 252.707C213.682 252.717 213.615 252.736 213.483 252.736V254.736C214.119 254.736 214.78 254.548 215.243 253.992L213.707 252.712ZM227.575 269H226.575V270H227.575V269ZM227.575 267.624V266.624H226.575V267.624H227.575ZM230.103 267.624V268.624H231.103V267.624H230.103ZM230.103 251.72H231.103V250.72H230.103V251.72ZM227.575 251.72H226.575V252.72H227.575V251.72ZM227.575 250.344V249.344H226.575V250.344H227.575ZM242.967 250.344H243.967V249.344H242.967V250.344ZM242.967 255.816V256.816H243.967V255.816H242.967ZM241.591 255.816H240.591V256.816H241.591V255.816ZM241.591 251.72H242.591V250.72H241.591V251.72ZM231.991 251.72V250.72H230.991V251.72H231.991ZM231.991 258.824H230.991V259.824H231.991V258.824ZM237.911 258.824V259.824H238.911V258.824H237.911ZM237.911 256.392V255.392H236.911V256.392H237.911ZM239.223 256.392H240.223V255.392H239.223V256.392ZM239.223 262.792V263.792H240.223V262.792H239.223ZM237.943 262.792H236.943V263.792H237.943V262.792ZM237.943 260.2H238.943V259.2H237.943V260.2ZM231.991 260.2V259.2H230.991V260.2H231.991ZM231.991 267.624H230.991V268.624H231.991V267.624ZM242.103 267.624V268.624H243.103V267.624H242.103ZM242.103 263.368V262.368H241.103V263.368H242.103ZM243.479 263.368H244.479V262.368H243.479V263.368ZM243.479 269V270H244.479V269H243.479ZM228.575 269V267.624H226.575V269H228.575ZM227.575 268.624H230.103V266.624H227.575V268.624ZM231.103 267.624V251.72H229.103V267.624H231.103ZM230.103 250.72H227.575V252.72H230.103V250.72ZM228.575 251.72V250.344H226.575V251.72H228.575ZM227.575 251.344H242.967V249.344H227.575V251.344ZM241.967 250.344V255.816H243.967V250.344H241.967ZM242.967 254.816H241.591V256.816H242.967V254.816ZM242.591 255.816V251.72H240.591V255.816H242.591ZM241.591 250.72H231.991V252.72H241.591V250.72ZM230.991 251.72V258.824H232.991V251.72H230.991ZM231.991 259.824H237.911V257.824H231.991V259.824ZM238.911 258.824V256.392H236.911V258.824H238.911ZM237.911 257.392H239.223V255.392H237.911V257.392ZM238.223 256.392V262.792H240.223V256.392H238.223ZM239.223 261.792H237.943V263.792H239.223V261.792ZM238.943 262.792V260.2H236.943V262.792H238.943ZM237.943 259.2H231.991V261.2H237.943V259.2ZM230.991 260.2V267.624H232.991V260.2H230.991ZM231.991 268.624H242.103V266.624H231.991V268.624ZM243.103 267.624V263.368H241.103V267.624H243.103ZM242.103 264.368H243.479V262.368H242.103V264.368ZM242.479 263.368V269H244.479V263.368H242.479ZM243.479 268H227.575V270H243.479V268ZM249.174 268.456L248.619 269.288L248.626 269.293L248.633 269.297L249.174 268.456ZM247.126 266.056L246.213 266.464L246.217 266.472L246.22 266.48L247.126 266.056ZM247.126 259.304L246.22 258.88L246.216 258.889L247.126 259.304ZM249.174 256.936L249.715 257.777L249.722 257.773L249.729 257.768L249.174 256.936ZM255.35 256.68L254.912 257.579L254.92 257.583L255.35 256.68ZM257.462 258.536L257.078 259.459L259.996 260.675L258.308 258.002L257.462 258.536ZM257.078 258.376H256.078V259.043L256.694 259.299L257.078 258.376ZM257.078 251.656H258.078V250.656H257.078V251.656ZM254.55 251.656H253.55V252.656H254.55V251.656ZM254.55 250.344V249.344H253.55V250.344H254.55ZM258.806 250.344H259.806V249.344H258.806V250.344ZM258.806 267.688H257.806V268.688H258.806V267.688ZM261.046 267.688H262.046V266.688H261.046V267.688ZM261.046 269V270H262.046V269H261.046ZM257.142 269H256.142V270H257.142V269ZM257.142 266.92L256.855 265.962L256.142 266.176V266.92H257.142ZM257.462 266.824L258.301 267.368L259.783 265.084L257.175 265.866L257.462 266.824ZM255.35 268.68L255.789 269.579L255.797 269.574L255.35 268.68ZM255.286 267.336L254.869 266.427L254.859 266.432L255.286 267.336ZM257.206 265.768L258.195 265.915L256.394 265.184L257.206 265.768ZM257.078 266.632H256.078L258.067 266.779L257.078 266.632ZM257.078 258.792L258.066 258.634L256.078 258.792H257.078ZM257.206 259.592L256.386 260.164L258.194 259.434L257.206 259.592ZM255.286 258.024L254.859 258.928L254.874 258.935L254.889 258.942L255.286 258.024ZM249.366 258.856L248.634 258.175L248.633 258.176L249.366 258.856ZM249.366 266.504L248.625 267.176L248.634 267.185L249.366 266.504ZM252.47 268.32C251.318 268.32 250.417 268.066 249.715 267.615L248.633 269.297C249.723 269.998 251.02 270.32 252.47 270.32V268.32ZM249.729 267.624C248.989 267.131 248.426 266.474 248.032 265.632L246.22 266.48C246.765 267.643 247.567 268.586 248.619 269.288L249.729 267.624ZM248.039 265.648C247.656 264.791 247.454 263.803 247.454 262.664H245.454C245.454 264.043 245.7 265.315 246.213 266.464L248.039 265.648ZM247.454 262.664C247.454 261.525 247.656 260.55 248.036 259.719L246.216 258.889C245.7 260.02 245.454 261.286 245.454 262.664H247.454ZM248.032 259.728C248.425 258.889 248.984 258.247 249.715 257.777L248.633 256.095C247.572 256.777 246.766 257.714 246.22 258.88L248.032 259.728ZM249.729 257.768C250.429 257.301 251.325 257.04 252.47 257.04V255.04C251.013 255.04 249.711 255.376 248.619 256.104L249.729 257.768ZM252.47 257.04C253.375 257.04 254.184 257.224 254.912 257.579L255.789 255.781C254.767 255.283 253.656 255.04 252.47 255.04V257.04ZM254.92 257.583C255.652 257.931 256.209 258.425 256.617 259.07L258.308 258.002C257.691 257.026 256.84 256.282 255.78 255.777L254.92 257.583ZM257.847 257.613L257.463 257.453L256.694 259.299L257.078 259.459L257.847 257.613ZM258.078 258.376V251.656H256.078V258.376H258.078ZM257.078 250.656H254.55V252.656H257.078V250.656ZM255.55 251.656V250.344H253.55V251.656H255.55ZM254.55 251.344H258.806V249.344H254.55V251.344ZM257.806 250.344V267.688H259.806V250.344H257.806ZM258.806 268.688H261.046V266.688H258.806V268.688ZM260.046 267.688V269H262.046V267.688H260.046ZM261.046 268H257.142V270H261.046V268ZM258.142 269V266.92H256.142V269H258.142ZM257.429 267.878L257.749 267.782L257.175 265.866L256.855 265.962L257.429 267.878ZM256.623 266.28C256.215 266.91 255.65 267.412 254.903 267.786L255.797 269.574C256.842 269.052 257.686 268.317 258.301 267.368L256.623 266.28ZM254.912 267.781C254.184 268.136 253.375 268.32 252.47 268.32V270.32C253.656 270.32 254.767 270.077 255.789 269.579L254.912 267.781ZM252.726 268.88C253.797 268.88 254.798 268.672 255.713 268.24L254.859 266.432C254.238 266.725 253.533 266.88 252.726 266.88V268.88ZM255.704 268.245C256.645 267.812 257.423 267.18 258.018 266.352L256.394 265.184C256.008 265.722 255.506 266.134 254.869 266.427L255.704 268.245ZM256.217 265.621L256.089 266.485L258.067 266.779L258.195 265.915L256.217 265.621ZM258.078 266.632V258.792H256.078V266.632H258.078ZM256.091 258.95L256.219 259.75L258.194 259.434L258.066 258.634L256.091 258.95ZM258.027 259.02C257.429 258.163 256.643 257.521 255.683 257.106L254.889 258.942C255.508 259.21 256.002 259.613 256.386 260.164L258.027 259.02ZM255.713 257.12C254.798 256.688 253.797 256.48 252.726 256.48V258.48C253.533 258.48 254.238 258.635 254.859 258.928L255.713 257.12ZM252.726 256.48C251.095 256.48 249.698 257.031 248.634 258.175L250.098 259.537C250.741 258.846 251.584 258.48 252.726 258.48V256.48ZM248.633 258.176C247.578 259.312 247.118 260.857 247.118 262.664H249.118C249.118 261.185 249.491 260.192 250.099 259.536L248.633 258.176ZM247.118 262.664C247.118 264.472 247.578 266.021 248.625 267.176L250.107 265.832C249.49 265.152 249.118 264.141 249.118 262.664H247.118ZM248.634 267.185C249.698 268.329 251.095 268.88 252.726 268.88V266.88C251.584 266.88 250.741 266.514 250.098 265.823L248.634 267.185ZM262.377 269H261.377V270H262.377V269ZM262.377 267.688V266.688H261.377V267.688H262.377ZM264.745 267.688V268.688H265.745V267.688H264.745ZM264.745 257.672H265.745V256.672H264.745V257.672ZM262.217 257.672H261.217V258.672H262.217V257.672ZM262.217 256.36V255.36H261.217V256.36H262.217ZM266.473 256.36H267.473V255.36H266.473V256.36ZM266.473 267.688H265.473V268.688H266.473V267.688ZM268.681 267.688H269.681V266.688H268.681V267.688ZM268.681 269V270H269.681V269H268.681ZM264.585 253.352L263.816 253.992L263.816 253.992L264.585 253.352ZM264.585 251.528L265.353 252.168L265.353 252.168L264.585 251.528ZM266.569 251.528L265.8 252.168L265.816 252.186L265.831 252.204L266.569 251.528ZM266.569 253.352L265.831 252.676L265.816 252.694L265.8 252.712L266.569 253.352ZM263.377 269V267.688H261.377V269H263.377ZM262.377 268.688H264.745V266.688H262.377V268.688ZM265.745 267.688V257.672H263.745V267.688H265.745ZM264.745 256.672H262.217V258.672H264.745V256.672ZM263.217 257.672V256.36H261.217V257.672H263.217ZM262.217 257.36H266.473V255.36H262.217V257.36ZM265.473 256.36V267.688H267.473V256.36H265.473ZM266.473 268.688H268.681V266.688H266.473V268.688ZM267.681 267.688V269H269.681V267.688H267.681ZM268.681 268H262.377V270H268.681V268ZM265.577 252.736C265.445 252.736 265.378 252.717 265.354 252.707C265.336 252.701 265.344 252.701 265.353 252.712L263.816 253.992C264.28 254.548 264.94 254.736 265.577 254.736V252.736ZM265.353 252.712C265.293 252.64 265.265 252.57 265.265 252.456H263.265C263.265 253.025 263.449 253.552 263.816 253.992L265.353 252.712ZM265.265 252.456C265.265 252.305 265.303 252.228 265.353 252.168L263.816 250.888C263.44 251.34 263.265 251.882 263.265 252.456H265.265ZM265.353 252.168C265.344 252.179 265.336 252.179 265.354 252.173C265.378 252.163 265.445 252.144 265.577 252.144V250.144C264.94 250.144 264.28 250.332 263.816 250.888L265.353 252.168ZM265.577 252.144C265.708 252.144 265.775 252.163 265.8 252.173C265.817 252.179 265.809 252.179 265.8 252.168L267.337 250.888C266.874 250.332 266.213 250.144 265.577 250.144V252.144ZM265.831 252.204C265.889 252.267 265.921 252.331 265.921 252.456H267.921C267.921 251.855 267.718 251.301 267.306 250.852L265.831 252.204ZM265.921 252.456C265.921 252.542 265.9 252.601 265.831 252.676L267.306 254.028C267.706 253.591 267.921 253.052 267.921 252.456H265.921ZM265.8 252.712C265.809 252.701 265.817 252.701 265.8 252.707C265.775 252.717 265.708 252.736 265.577 252.736V254.736C266.213 254.736 266.874 254.548 267.337 253.992L265.8 252.712ZM270.283 269H269.283V270H270.283V269ZM270.283 267.688V266.688H269.283V267.688H270.283ZM272.651 267.688V268.688H273.651V267.688H272.651ZM272.651 257.672H273.651V256.672H272.651V257.672ZM270.123 257.672H269.123V258.672H270.123V257.672ZM270.123 256.36V255.36H269.123V256.36H270.123ZM274.283 256.36H275.283V255.36H274.283V256.36ZM274.283 258.12L274.599 259.069L275.283 258.841V258.12H274.283ZM273.899 258.248L273.232 257.503L274.215 259.197L273.899 258.248ZM276.523 256.616L276.883 257.549L276.892 257.545L276.902 257.542L276.523 256.616ZM283.531 267.688H282.531V268.688H283.531V267.688ZM285.739 267.688H286.739V266.688H285.739V267.688ZM285.739 269V270H286.739V269H285.739ZM279.435 269H278.435V270H279.435V269ZM279.435 267.688V266.688H278.435V267.688H279.435ZM281.803 267.688V268.688H282.803V267.688H281.803ZM281.067 258.216L280.344 258.907L280.36 258.923L280.376 258.939L281.067 258.216ZM276.491 257.896L276.807 258.845L276.815 258.842L276.822 258.839L276.491 257.896ZM273.931 259.464L273.05 258.99L274.574 260.229L273.931 259.464ZM274.379 258.632H275.379L273.498 258.158L274.379 258.632ZM274.379 267.688H273.379V268.688H274.379V267.688ZM276.587 267.688H277.587V266.688H276.587V267.688ZM276.587 269V270H277.587V269H276.587ZM271.283 269V267.688H269.283V269H271.283ZM270.283 268.688H272.651V266.688H270.283V268.688ZM273.651 267.688V257.672H271.651V267.688H273.651ZM272.651 256.672H270.123V258.672H272.651V256.672ZM271.123 257.672V256.36H269.123V257.672H271.123ZM270.123 257.36H274.283V255.36H270.123V257.36ZM273.283 256.36V258.12H275.283V256.36H273.283ZM273.967 257.171L273.583 257.299L274.215 259.197L274.599 259.069L273.967 257.171ZM274.566 258.993C275.294 258.342 276.066 257.865 276.883 257.549L276.162 255.683C275.102 256.093 274.125 256.703 273.232 257.503L274.566 258.993ZM276.902 257.542C277.739 257.199 278.517 257.04 279.243 257.04V255.04C278.219 255.04 277.184 255.265 276.144 255.69L276.902 257.542ZM279.243 257.04C280.557 257.04 281.334 257.351 281.779 257.782L283.171 256.346C282.208 255.412 280.83 255.04 279.243 255.04V257.04ZM281.779 257.782C282.209 258.2 282.531 258.96 282.531 260.296H284.531C284.531 258.688 284.148 257.294 283.171 256.346L281.779 257.782ZM282.531 260.296V267.688H284.531V260.296H282.531ZM283.531 268.688H285.739V266.688H283.531V268.688ZM284.739 267.688V269H286.739V267.688H284.739ZM285.739 268H279.435V270H285.739V268ZM280.435 269V267.688H278.435V269H280.435ZM279.435 268.688H281.803V266.688H279.435V268.688ZM282.803 267.688V260.456H280.803V267.688H282.803ZM282.803 260.456C282.803 259.297 282.527 258.229 281.758 257.493L280.376 258.939C280.588 259.142 280.803 259.567 280.803 260.456H282.803ZM281.79 257.525C281.051 256.752 279.968 256.48 278.795 256.48V258.48C279.712 258.48 280.145 258.698 280.344 258.907L281.79 257.525ZM278.795 256.48C277.923 256.48 277.043 256.642 276.159 256.953L276.822 258.839C277.518 258.595 278.174 258.48 278.795 258.48V256.48ZM276.175 256.947C275.242 257.258 274.278 257.866 273.287 258.699L274.574 260.229C275.461 259.484 276.204 259.046 276.807 258.845L276.175 256.947ZM274.811 259.938L275.259 259.106L273.498 258.158L273.05 258.99L274.811 259.938ZM273.379 258.632V267.688H275.379V258.632H273.379ZM274.379 268.688H276.587V266.688H274.379V268.688ZM275.587 267.688V269H277.587V267.688H275.587ZM276.587 268H270.283V270H276.587V268Z" fill="black" mask="url(#path-7-outside-1_14_28)"/>
</svg>
