<svg width="443" height="310" viewBox="0 0 443 310" fill="none" xmlns="http://www.w3.org/2000/svg">
<rect x="0.5" y="0.5" width="442" height="309" rx="39.5" stroke="#FEFEFE" stroke-linecap="square" stroke-dasharray="10 10 10 10"/>
<path d="M245.853 43.6471C241.929 43.6471 239.738 47.5436 240.631 50.4389L231.025 60.0718C230.213 59.8283 229.022 59.8283 228.211 60.0718L221.311 53.1718C222.231 50.2765 220.039 46.353 216.088 46.353C212.165 46.353 209.946 50.2494 210.866 53.1718L198.527 65.4836C195.632 64.5906 191.735 66.7824 191.735 70.7059C191.735 73.6824 194.171 76.1177 197.147 76.1177C201.071 76.1177 203.262 72.2212 202.369 69.3259L214.681 56.9871C215.493 57.2306 216.684 57.2306 217.495 56.9871L224.395 63.8871C223.475 66.7824 225.667 70.7059 229.618 70.7059C233.541 70.7059 235.76 66.8094 234.84 63.8871L244.473 54.2812C247.368 55.1742 251.265 52.9824 251.265 49.0589C251.265 46.0824 248.829 43.6471 245.853 43.6471Z" fill="#FEFEFE"/>
<path d="M229.382 46.2353L231.926 40.6341L237.5 38.1176L231.926 35.6012L229.382 30L226.893 35.6012L221.265 38.1176L226.893 40.6341L229.382 46.2353Z" fill="#FEFEFE"/>
<path d="M198.5 51.6471L199.853 46.2353L205.265 44.8824L199.853 43.5294L198.5 38.1177L197.147 43.5294L191.735 44.8824L197.147 46.2353L198.5 51.6471Z" fill="#FEFEFE"/>
<path d="M150.472 127.078C149.192 127.078 148.317 126.833 147.848 126.342C147.379 125.83 147.144 125.052 147.144 124.006C147.144 123.644 147.165 123.057 147.208 122.246C147.251 121.436 147.347 120.177 147.496 118.47C147.325 118.15 147.176 117.873 147.048 117.638C146.92 117.404 146.792 117.158 146.664 116.902C146.536 116.646 146.397 116.348 146.248 116.006C146.099 115.665 145.907 115.238 145.672 114.726C145.309 113.937 144.893 113.02 144.424 111.974C143.976 110.929 143.539 109.926 143.112 108.966C142.685 107.985 142.323 107.121 142.024 106.374C141.747 105.628 141.608 105.158 141.608 104.966C141.608 104.518 142.323 104.294 143.752 104.294C144.648 104.294 145.363 104.39 145.896 104.582C146.451 104.753 146.899 104.998 147.24 105.318C147.581 105.617 147.837 105.98 148.008 106.406C148.179 106.812 148.339 107.249 148.488 107.718C148.68 108.337 148.819 108.796 148.904 109.094C148.989 109.393 149.053 109.638 149.096 109.83C149.16 110.022 149.224 110.214 149.288 110.406C149.352 110.577 149.437 110.854 149.544 111.238C149.672 111.622 149.843 112.156 150.056 112.838C150.269 113.521 150.568 114.46 150.952 115.654C151.571 114.353 152.061 113.297 152.424 112.486C152.808 111.676 153.139 110.929 153.416 110.246C153.693 109.542 153.949 108.828 154.184 108.102C154.44 107.356 154.76 106.417 155.144 105.286C155.272 104.881 155.4 104.625 155.528 104.518C155.677 104.39 155.901 104.326 156.2 104.326C156.307 104.326 156.595 104.348 157.064 104.39C157.555 104.412 158.056 104.486 158.568 104.614C159.101 104.742 159.581 104.945 160.008 105.222C160.435 105.5 160.648 105.873 160.648 106.342C160.648 106.705 160.52 107.217 160.264 107.878C160.029 108.54 159.709 109.286 159.304 110.118C158.92 110.929 158.461 111.793 157.928 112.71C157.416 113.628 156.883 114.524 156.328 115.398C155.773 116.273 155.219 117.084 154.664 117.83C154.131 118.556 153.64 119.153 153.192 119.622C153.171 120.134 153.139 120.742 153.096 121.446C153.075 122.15 153.032 122.854 152.968 123.558C152.925 124.241 152.883 124.87 152.84 125.446C152.797 126.001 152.765 126.385 152.744 126.598C152.723 126.769 152.68 126.897 152.616 126.982C152.552 127.046 152.424 127.078 152.232 127.078H150.472ZM167.61 127.398C166.672 127.398 165.733 127.281 164.794 127.046C163.877 126.812 163.045 126.406 162.298 125.83C161.573 125.254 160.976 124.486 160.506 123.526C160.037 122.566 159.802 121.361 159.802 119.91C159.802 119.377 159.845 118.737 159.93 117.99C160.016 117.244 160.176 116.476 160.41 115.686C160.666 114.897 161.008 114.118 161.434 113.35C161.882 112.561 162.458 111.857 163.162 111.238C163.866 110.62 164.72 110.118 165.722 109.734C166.725 109.35 167.92 109.158 169.306 109.158C170.416 109.158 171.354 109.286 172.122 109.542C172.89 109.798 173.509 110.15 173.978 110.598C174.448 111.025 174.789 111.526 175.002 112.102C175.216 112.678 175.322 113.297 175.322 113.958C175.322 114.94 175.12 115.772 174.714 116.454C174.33 117.137 173.818 117.713 173.178 118.182C172.56 118.63 171.866 118.982 171.098 119.238C170.33 119.494 169.573 119.697 168.826 119.846C168.08 119.974 167.386 120.06 166.746 120.102C166.128 120.124 165.648 120.134 165.306 120.134C165.306 120.54 165.36 120.945 165.466 121.35C165.594 121.734 165.776 122.076 166.01 122.374C166.245 122.673 166.554 122.918 166.938 123.11C167.322 123.302 167.792 123.398 168.346 123.398C168.901 123.398 169.328 123.313 169.626 123.142C169.946 122.95 170.202 122.748 170.394 122.534C170.586 122.3 170.746 122.097 170.874 121.926C171.024 121.734 171.216 121.638 171.45 121.638C171.557 121.638 171.738 121.67 171.994 121.734C172.272 121.777 172.549 121.884 172.826 122.054C173.104 122.225 173.349 122.46 173.562 122.758C173.776 123.057 173.882 123.441 173.882 123.91C173.882 124.529 173.69 125.062 173.306 125.51C172.922 125.958 172.421 126.321 171.802 126.598C171.205 126.876 170.533 127.078 169.786 127.206C169.04 127.334 168.314 127.398 167.61 127.398ZM168.218 113.414C167.749 113.414 167.344 113.553 167.002 113.83C166.682 114.086 166.405 114.417 166.17 114.822C165.957 115.228 165.786 115.676 165.658 116.166C165.552 116.657 165.466 117.126 165.402 117.574C166.725 117.553 167.792 117.329 168.602 116.902C169.434 116.476 169.85 115.868 169.85 115.078C169.85 114.652 169.712 114.268 169.434 113.926C169.178 113.585 168.773 113.414 168.218 113.414ZM184.13 113.798C184.066 114.609 183.991 115.409 183.906 116.198C183.842 116.988 183.778 117.734 183.714 118.438C183.65 119.142 183.596 119.772 183.554 120.326C183.532 120.881 183.522 121.308 183.522 121.606C183.522 122.161 183.586 122.534 183.714 122.726C183.842 122.897 184.055 122.982 184.354 122.982C184.588 122.982 184.791 122.94 184.962 122.854C185.132 122.769 185.292 122.673 185.442 122.566C185.591 122.46 185.719 122.364 185.826 122.278C185.954 122.193 186.092 122.15 186.242 122.15C186.391 122.15 186.53 122.236 186.658 122.406C186.786 122.577 186.85 122.972 186.85 123.59C186.85 124.764 186.53 125.692 185.89 126.374C185.25 127.057 184.151 127.398 182.594 127.398C181.058 127.398 179.916 127.046 179.17 126.342C178.444 125.617 178.082 124.518 178.082 123.046C178.082 122.726 178.092 122.353 178.114 121.926C178.156 121.478 178.21 120.902 178.274 120.198C178.338 119.494 178.412 118.63 178.498 117.606C178.604 116.582 178.711 115.313 178.818 113.798H177.122C176.951 113.798 176.844 113.766 176.802 113.702C176.78 113.617 176.77 113.5 176.77 113.35L176.866 111.718C176.887 111.441 176.919 111.174 176.962 110.918C177.026 110.641 177.132 110.396 177.282 110.182C177.452 109.969 177.687 109.798 177.986 109.67C178.284 109.542 178.679 109.478 179.17 109.478C179.319 109.094 179.49 108.636 179.682 108.102C179.874 107.569 180.066 107.057 180.258 106.566C180.45 106.054 180.631 105.628 180.802 105.286C180.994 104.945 181.164 104.774 181.314 104.774H182.242C183.138 104.774 183.756 105.052 184.098 105.606C184.439 106.161 184.61 106.822 184.61 107.59C184.61 108.017 184.578 108.646 184.514 109.478H187.874C188.215 109.478 188.386 109.628 188.386 109.926L188.258 111.654C188.215 112.294 188.034 112.817 187.714 113.222C187.415 113.606 186.786 113.798 185.826 113.798H184.13ZM197.204 127.398C196.265 127.398 195.327 127.281 194.388 127.046C193.471 126.812 192.639 126.406 191.892 125.83C191.167 125.254 190.569 124.486 190.1 123.526C189.631 122.566 189.396 121.361 189.396 119.91C189.396 119.377 189.439 118.737 189.524 117.99C189.609 117.244 189.769 116.476 190.004 115.686C190.26 114.897 190.601 114.118 191.028 113.35C191.476 112.561 192.052 111.857 192.756 111.238C193.46 110.62 194.313 110.118 195.316 109.734C196.319 109.35 197.513 109.158 198.9 109.158C200.009 109.158 200.948 109.286 201.716 109.542C202.484 109.798 203.103 110.15 203.572 110.598C204.041 111.025 204.383 111.526 204.596 112.102C204.809 112.678 204.916 113.297 204.916 113.958C204.916 114.94 204.713 115.772 204.308 116.454C203.924 117.137 203.412 117.713 202.772 118.182C202.153 118.63 201.46 118.982 200.692 119.238C199.924 119.494 199.167 119.697 198.42 119.846C197.673 119.974 196.98 120.06 196.34 120.102C195.721 120.124 195.241 120.134 194.9 120.134C194.9 120.54 194.953 120.945 195.06 121.35C195.188 121.734 195.369 122.076 195.604 122.374C195.839 122.673 196.148 122.918 196.532 123.11C196.916 123.302 197.385 123.398 197.94 123.398C198.495 123.398 198.921 123.313 199.22 123.142C199.54 122.95 199.796 122.748 199.988 122.534C200.18 122.3 200.34 122.097 200.468 121.926C200.617 121.734 200.809 121.638 201.044 121.638C201.151 121.638 201.332 121.67 201.588 121.734C201.865 121.777 202.143 121.884 202.42 122.054C202.697 122.225 202.943 122.46 203.156 122.758C203.369 123.057 203.476 123.441 203.476 123.91C203.476 124.529 203.284 125.062 202.9 125.51C202.516 125.958 202.015 126.321 201.396 126.598C200.799 126.876 200.127 127.078 199.38 127.206C198.633 127.334 197.908 127.398 197.204 127.398ZM197.812 113.414C197.343 113.414 196.937 113.553 196.596 113.83C196.276 114.086 195.999 114.417 195.764 114.822C195.551 115.228 195.38 115.676 195.252 116.166C195.145 116.657 195.06 117.126 194.996 117.574C196.319 117.553 197.385 117.329 198.196 116.902C199.028 116.476 199.444 115.868 199.444 115.078C199.444 114.652 199.305 114.268 199.028 113.926C198.772 113.585 198.367 113.414 197.812 113.414ZM217.755 124.262C217.755 123.793 217.787 123.185 217.851 122.438C217.937 121.67 218.011 120.87 218.075 120.038C218.161 119.185 218.235 118.364 218.299 117.574C218.385 116.785 218.427 116.124 218.427 115.59C218.427 115.036 218.289 114.545 218.011 114.118C217.755 113.67 217.243 113.446 216.475 113.446C215.729 113.446 215.11 113.628 214.619 113.99C214.129 114.353 213.713 115.014 213.371 115.974C213.051 116.934 212.785 118.257 212.571 119.942C212.358 121.628 212.155 123.793 211.963 126.438C211.942 126.694 211.889 126.865 211.803 126.95C211.718 127.036 211.537 127.078 211.259 127.078H210.107C209.446 127.078 208.902 127.014 208.475 126.886C208.07 126.737 207.739 126.534 207.483 126.278C207.249 126.022 207.078 125.713 206.971 125.35C206.886 124.966 206.843 124.529 206.843 124.038C206.843 123.718 206.854 123.27 206.875 122.694C206.918 122.097 206.982 121.286 207.067 120.262C207.153 119.217 207.249 117.905 207.355 116.326C207.483 114.726 207.633 112.753 207.803 110.406C207.825 109.937 207.878 109.66 207.963 109.574C208.027 109.51 208.198 109.478 208.475 109.478H209.723C210.363 109.478 210.886 109.553 211.291 109.702C211.718 109.852 212.059 110.054 212.315 110.31C212.571 110.545 212.753 110.833 212.859 111.174C212.966 111.494 213.03 111.825 213.051 112.166C213.713 111.036 214.47 110.257 215.323 109.83C216.177 109.382 217.243 109.158 218.523 109.158C219.419 109.158 220.198 109.254 220.859 109.446C221.521 109.638 222.065 109.969 222.491 110.438C222.939 110.886 223.27 111.484 223.483 112.23C223.697 112.956 223.803 113.862 223.803 114.95C223.803 115.292 223.782 115.782 223.739 116.422C223.697 117.062 223.643 117.766 223.579 118.534C223.515 119.281 223.441 120.07 223.355 120.902C223.291 121.713 223.227 122.47 223.163 123.174C223.099 123.878 223.046 124.497 223.003 125.03C222.961 125.564 222.939 125.916 222.939 126.086C222.939 126.556 222.886 126.844 222.779 126.95C222.673 127.036 222.438 127.078 222.075 127.078H221.051C220.369 127.078 219.814 127.014 219.387 126.886C218.961 126.758 218.63 126.577 218.395 126.342C218.161 126.108 217.99 125.82 217.883 125.478C217.798 125.116 217.755 124.71 217.755 124.262ZM234.048 127.398C233.109 127.398 232.17 127.281 231.232 127.046C230.314 126.812 229.482 126.406 228.736 125.83C228.01 125.254 227.413 124.486 226.944 123.526C226.474 122.566 226.24 121.361 226.24 119.91C226.24 119.377 226.282 118.737 226.368 117.99C226.453 117.244 226.613 116.476 226.848 115.686C227.104 114.897 227.445 114.118 227.872 113.35C228.32 112.561 228.896 111.857 229.6 111.238C230.304 110.62 231.157 110.118 232.16 109.734C233.162 109.35 234.357 109.158 235.744 109.158C236.853 109.158 237.792 109.286 238.56 109.542C239.328 109.798 239.946 110.15 240.416 110.598C240.885 111.025 241.226 111.526 241.44 112.102C241.653 112.678 241.76 113.297 241.76 113.958C241.76 114.94 241.557 115.772 241.152 116.454C240.768 117.137 240.256 117.713 239.616 118.182C238.997 118.63 238.304 118.982 237.536 119.238C236.768 119.494 236.01 119.697 235.264 119.846C234.517 119.974 233.824 120.06 233.184 120.102C232.565 120.124 232.085 120.134 231.744 120.134C231.744 120.54 231.797 120.945 231.904 121.35C232.032 121.734 232.213 122.076 232.448 122.374C232.682 122.673 232.992 122.918 233.376 123.11C233.76 123.302 234.229 123.398 234.784 123.398C235.338 123.398 235.765 123.313 236.064 123.142C236.384 122.95 236.64 122.748 236.832 122.534C237.024 122.3 237.184 122.097 237.312 121.926C237.461 121.734 237.653 121.638 237.888 121.638C237.994 121.638 238.176 121.67 238.432 121.734C238.709 121.777 238.986 121.884 239.264 122.054C239.541 122.225 239.786 122.46 240 122.758C240.213 123.057 240.32 123.441 240.32 123.91C240.32 124.529 240.128 125.062 239.744 125.51C239.36 125.958 238.858 126.321 238.24 126.598C237.642 126.876 236.97 127.078 236.224 127.206C235.477 127.334 234.752 127.398 234.048 127.398ZM234.656 113.414C234.186 113.414 233.781 113.553 233.44 113.83C233.12 114.086 232.842 114.417 232.608 114.822C232.394 115.228 232.224 115.676 232.096 116.166C231.989 116.657 231.904 117.126 231.84 117.574C233.162 117.553 234.229 117.329 235.04 116.902C235.872 116.476 236.288 115.868 236.288 115.078C236.288 114.652 236.149 114.268 235.872 113.926C235.616 113.585 235.21 113.414 234.656 113.414ZM258.887 124.486C258.887 124.593 258.834 124.806 258.727 125.126C258.62 125.446 258.45 125.777 258.215 126.118C257.98 126.46 257.682 126.758 257.319 127.014C256.978 127.27 256.562 127.398 256.071 127.398C255.495 127.398 254.919 127.206 254.343 126.822C253.788 126.438 253.234 125.916 252.679 125.254C252.124 124.593 251.559 123.814 250.983 122.918C250.428 122.001 249.863 121.009 249.287 119.942C249.202 121.073 249.116 122.182 249.031 123.27C248.946 124.358 248.86 125.414 248.775 126.438C248.754 126.694 248.7 126.865 248.615 126.95C248.53 127.036 248.348 127.078 248.071 127.078H246.919C246.258 127.078 245.714 127.014 245.287 126.886C244.86 126.737 244.53 126.534 244.295 126.278C244.06 126.022 243.89 125.702 243.783 125.318C243.698 124.913 243.655 124.454 243.655 123.942C243.655 123.686 243.666 123.42 243.687 123.142C243.708 122.865 243.74 122.47 243.783 121.958C243.826 121.446 243.879 120.774 243.943 119.942C244.028 119.11 244.124 118.012 244.231 116.646C244.338 115.281 244.455 113.606 244.583 111.622C244.732 109.617 244.892 107.185 245.063 104.326C245.084 103.857 245.138 103.58 245.223 103.494C245.287 103.43 245.458 103.398 245.735 103.398H246.983C247.644 103.398 248.188 103.473 248.615 103.622C249.042 103.772 249.383 103.974 249.639 104.23C249.895 104.486 250.066 104.785 250.151 105.126C250.258 105.468 250.311 105.82 250.311 106.182C250.311 106.396 250.29 106.758 250.247 107.27C250.226 107.761 250.194 108.369 250.151 109.094C250.108 109.798 250.044 110.598 249.959 111.494C249.895 112.39 249.831 113.329 249.767 114.31L254.887 109.638C255.079 109.468 255.25 109.35 255.399 109.286C255.57 109.222 255.698 109.19 255.783 109.19C256.018 109.19 256.274 109.34 256.551 109.638C256.828 109.937 257.084 110.289 257.319 110.694C257.575 111.078 257.778 111.484 257.927 111.91C258.098 112.316 258.183 112.646 258.183 112.902C258.183 113.521 257.682 114.172 256.679 114.854C255.698 115.537 254.204 116.305 252.199 117.158C253.095 118.161 253.948 119.078 254.759 119.91C255.57 120.742 256.274 121.478 256.871 122.118C257.49 122.758 257.98 123.281 258.343 123.686C258.706 124.092 258.887 124.358 258.887 124.486ZM264.649 127.366C263.326 127.366 262.377 127.014 261.801 126.31C261.225 125.606 260.937 124.444 260.937 122.822C260.937 122.566 260.948 122.246 260.969 121.862C261.012 121.478 261.054 120.988 261.097 120.39C261.161 119.772 261.236 119.014 261.321 118.118C261.406 117.222 261.492 116.134 261.577 114.854C261.684 113.574 261.79 112.07 261.897 110.342C262.025 108.614 262.153 106.609 262.281 104.326C262.302 103.857 262.356 103.58 262.441 103.494C262.505 103.43 262.676 103.398 262.953 103.398H264.201C264.841 103.398 265.374 103.473 265.801 103.622C266.228 103.772 266.569 103.974 266.825 104.23C267.081 104.486 267.262 104.785 267.369 105.126C267.476 105.446 267.529 105.788 267.529 106.15C267.529 106.577 267.497 107.196 267.433 108.006C267.39 108.796 267.326 109.692 267.241 110.694C267.156 111.697 267.07 112.742 266.985 113.83C266.9 114.918 266.814 115.964 266.729 116.966C266.644 117.948 266.569 118.833 266.505 119.622C266.462 120.412 266.441 121.009 266.441 121.414C266.441 121.969 266.537 122.364 266.729 122.598C266.942 122.833 267.166 123.004 267.401 123.11C267.636 123.196 267.849 123.26 268.041 123.302C268.254 123.324 268.361 123.388 268.361 123.494C268.361 123.964 268.308 124.433 268.201 124.902C268.094 125.35 267.902 125.766 267.625 126.15C267.348 126.513 266.964 126.812 266.473 127.046C266.004 127.26 265.396 127.366 264.649 127.366ZM277.985 127.398C277.047 127.398 276.108 127.281 275.169 127.046C274.252 126.812 273.42 126.406 272.673 125.83C271.948 125.254 271.351 124.486 270.881 123.526C270.412 122.566 270.177 121.361 270.177 119.91C270.177 119.377 270.22 118.737 270.305 117.99C270.391 117.244 270.551 116.476 270.785 115.686C271.041 114.897 271.383 114.118 271.809 113.35C272.257 112.561 272.833 111.857 273.537 111.238C274.241 110.62 275.095 110.118 276.097 109.734C277.1 109.35 278.295 109.158 279.681 109.158C280.791 109.158 281.729 109.286 282.497 109.542C283.265 109.798 283.884 110.15 284.353 110.598C284.823 111.025 285.164 111.526 285.377 112.102C285.591 112.678 285.697 113.297 285.697 113.958C285.697 114.94 285.495 115.772 285.089 116.454C284.705 117.137 284.193 117.713 283.553 118.182C282.935 118.63 282.241 118.982 281.473 119.238C280.705 119.494 279.948 119.697 279.201 119.846C278.455 119.974 277.761 120.06 277.121 120.102C276.503 120.124 276.023 120.134 275.681 120.134C275.681 120.54 275.735 120.945 275.841 121.35C275.969 121.734 276.151 122.076 276.385 122.374C276.62 122.673 276.929 122.918 277.313 123.11C277.697 123.302 278.167 123.398 278.721 123.398C279.276 123.398 279.703 123.313 280.001 123.142C280.321 122.95 280.577 122.748 280.769 122.534C280.961 122.3 281.121 122.097 281.249 121.926C281.399 121.734 281.591 121.638 281.825 121.638C281.932 121.638 282.113 121.67 282.369 121.734C282.647 121.777 282.924 121.884 283.201 122.054C283.479 122.225 283.724 122.46 283.937 122.758C284.151 123.057 284.257 123.441 284.257 123.91C284.257 124.529 284.065 125.062 283.681 125.51C283.297 125.958 282.796 126.321 282.177 126.598C281.58 126.876 280.908 127.078 280.161 127.206C279.415 127.334 278.689 127.398 277.985 127.398ZM278.593 113.414C278.124 113.414 277.719 113.553 277.377 113.83C277.057 114.086 276.78 114.417 276.545 114.822C276.332 115.228 276.161 115.676 276.033 116.166C275.927 116.657 275.841 117.126 275.777 117.574C277.1 117.553 278.167 117.329 278.977 116.902C279.809 116.476 280.225 115.868 280.225 115.078C280.225 114.652 280.087 114.268 279.809 113.926C279.553 113.585 279.148 113.414 278.593 113.414ZM297.961 117.126C297.833 117.126 297.683 117.126 297.513 117.126C297.363 117.105 297.214 117.084 297.065 117.062C296.915 117.02 296.787 116.977 296.681 116.934C296.574 116.87 296.521 116.796 296.521 116.71C296.521 116.433 296.531 116.177 296.553 115.942C296.574 115.708 296.585 115.462 296.585 115.206C296.585 114.737 296.521 114.353 296.393 114.054C296.265 113.756 296.009 113.606 295.625 113.606C295.027 113.606 294.526 114.001 294.121 114.79C293.737 115.558 293.491 116.721 293.385 118.278C293.342 118.961 293.278 119.74 293.193 120.614C293.129 121.468 293.065 122.3 293.001 123.11C292.937 123.9 292.883 124.604 292.841 125.222C292.798 125.841 292.777 126.246 292.777 126.438C292.777 126.652 292.702 126.812 292.553 126.918C292.403 127.025 292.243 127.078 292.073 127.078H290.921C290.259 127.078 289.715 127.014 289.289 126.886C288.883 126.737 288.553 126.534 288.297 126.278C288.062 126.022 287.891 125.713 287.785 125.35C287.699 124.966 287.657 124.529 287.657 124.038C287.657 123.718 287.667 123.27 287.689 122.694C287.731 122.097 287.795 121.286 287.881 120.262C287.966 119.217 288.062 117.905 288.169 116.326C288.297 114.726 288.446 112.753 288.617 110.406C288.659 109.788 288.883 109.478 289.289 109.478H290.536C291.134 109.478 291.635 109.542 292.041 109.67C292.446 109.798 292.777 109.98 293.033 110.214C293.289 110.428 293.47 110.684 293.577 110.982C293.705 111.281 293.79 111.59 293.833 111.91C294.089 111.42 294.387 111.004 294.729 110.662C295.091 110.3 295.465 110.012 295.849 109.798C296.233 109.564 296.627 109.404 297.033 109.318C297.438 109.212 297.811 109.158 298.153 109.158C298.558 109.158 298.963 109.233 299.369 109.382C299.795 109.532 300.179 109.756 300.521 110.054C300.862 110.353 301.129 110.737 301.321 111.206C301.534 111.676 301.641 112.23 301.641 112.87C301.641 113.446 301.555 113.99 301.385 114.502C301.214 115.014 300.969 115.473 300.649 115.878C300.329 116.262 299.934 116.572 299.465 116.806C299.017 117.02 298.515 117.126 297.961 117.126Z" fill="#FEFEFE"/>
<path d="M126.107 178.039V176.663H128.635V160.759H126.107V159.383H141.499V164.855H140.123V160.759H130.523V167.863H136.443V165.431H137.755V171.831H136.475V169.239H130.523V176.663H140.635V172.407H142.011V178.039H126.107ZM151.001 178.359C149.7 178.359 148.601 178.071 147.705 177.495C146.809 176.898 146.127 176.098 145.657 175.095C145.209 174.093 144.985 172.962 144.985 171.703C144.985 170.445 145.209 169.325 145.657 168.343C146.127 167.341 146.809 166.551 147.705 165.975C148.601 165.378 149.7 165.079 151.001 165.079C152.047 165.079 153.007 165.293 153.881 165.719C154.777 166.146 155.481 166.765 155.993 167.575L155.609 167.415V160.695H153.081V159.383H157.337V176.727H159.577V178.039H155.673V175.959L155.993 175.863C155.481 176.653 154.777 177.271 153.881 177.719C153.007 178.146 152.047 178.359 151.001 178.359ZM151.257 176.919C152.196 176.919 153.049 176.738 153.817 176.375C154.607 176.013 155.247 175.49 155.737 174.807L155.609 175.671V167.831L155.737 168.631C155.247 167.927 154.607 167.405 153.817 167.063C153.049 166.701 152.196 166.519 151.257 166.519C149.871 166.519 148.751 166.978 147.897 167.895C147.065 168.791 146.649 170.061 146.649 171.703C146.649 173.346 147.065 174.626 147.897 175.543C148.751 176.461 149.871 176.919 151.257 176.919ZM167.212 178.359C165.804 178.359 164.737 178.018 164.012 177.335C163.287 176.631 162.924 175.554 162.924 174.103V166.711H160.396V165.399H164.652V173.943C164.652 174.967 164.887 175.725 165.356 176.215C165.847 176.685 166.615 176.919 167.66 176.919C168.407 176.919 169.175 176.781 169.964 176.503C170.753 176.205 171.607 175.671 172.524 174.903L171.884 175.735V166.711H169.516V165.399H173.612V176.727H175.82V178.039H171.98V176.279L172.556 176.151C171.767 176.877 170.903 177.431 169.964 177.815C169.025 178.178 168.108 178.359 167.212 178.359ZM177.439 178.039V176.727H179.807V166.711H177.279V165.399H181.439V167.159L181.055 167.287C181.844 166.562 182.698 166.018 183.615 165.655C184.532 165.271 185.418 165.079 186.271 165.079C187.466 165.079 188.351 165.293 188.927 165.719C189.524 166.146 189.94 166.69 190.175 167.351L189.919 167.255C190.73 166.53 191.583 165.986 192.479 165.623C193.396 165.261 194.282 165.079 195.135 165.079C196.543 165.079 197.588 165.421 198.271 166.103C198.975 166.786 199.327 167.863 199.327 169.335V176.727H201.535V178.039H195.263V176.727H197.631V169.495C197.631 168.471 197.396 167.725 196.927 167.255C196.458 166.765 195.711 166.519 194.687 166.519C193.962 166.519 193.215 166.658 192.447 166.935C191.679 167.191 190.847 167.714 189.951 168.503L190.239 167.639C190.346 167.938 190.41 168.258 190.431 168.599C190.452 168.919 190.463 169.165 190.463 169.335V176.727H192.639V178.039H186.399V176.727H188.735V169.495C188.735 168.471 188.5 167.725 188.031 167.255C187.583 166.765 186.847 166.519 185.823 166.519C185.098 166.519 184.351 166.658 183.583 166.935C182.815 167.191 181.983 167.714 181.087 168.503L181.535 167.863V176.727H183.711V178.039H177.439ZM210.621 178.359C209.043 178.359 207.72 178.071 206.653 177.495C205.608 176.919 204.819 176.13 204.285 175.127C203.752 174.125 203.485 172.994 203.485 171.735C203.485 170.455 203.752 169.314 204.285 168.311C204.819 167.309 205.576 166.519 206.557 165.943C207.56 165.367 208.723 165.079 210.045 165.079C211.389 165.079 212.541 165.367 213.501 165.943C214.461 166.519 215.197 167.309 215.709 168.311C216.221 169.314 216.477 170.455 216.477 171.735V172.375H204.573V171.031H214.845C214.824 170.157 214.611 169.367 214.205 168.663C213.821 167.959 213.267 167.405 212.541 166.999C211.837 166.594 211.005 166.391 210.045 166.391C209.043 166.391 208.168 166.615 207.421 167.063C206.696 167.49 206.131 168.077 205.725 168.823C205.341 169.57 205.149 170.402 205.149 171.319V171.735C205.149 173.314 205.619 174.583 206.557 175.543C207.496 176.482 208.861 176.951 210.653 176.951C211.549 176.951 212.435 176.781 213.309 176.439C214.205 176.077 214.941 175.618 215.517 175.063L216.285 176.279C215.581 176.919 214.728 177.431 213.725 177.815C212.723 178.178 211.688 178.359 210.621 178.359ZM226.371 178.359C224.793 178.359 223.47 178.071 222.403 177.495C221.358 176.919 220.569 176.13 220.035 175.127C219.502 174.125 219.235 172.994 219.235 171.735C219.235 170.455 219.502 169.314 220.035 168.311C220.569 167.309 221.326 166.519 222.307 165.943C223.31 165.367 224.473 165.079 225.795 165.079C227.139 165.079 228.291 165.367 229.251 165.943C230.211 166.519 230.947 167.309 231.459 168.311C231.971 169.314 232.227 170.455 232.227 171.735V172.375H220.323V171.031H230.595C230.574 170.157 230.361 169.367 229.955 168.663C229.571 167.959 229.017 167.405 228.291 166.999C227.587 166.594 226.755 166.391 225.795 166.391C224.793 166.391 223.918 166.615 223.171 167.063C222.446 167.49 221.881 168.077 221.475 168.823C221.091 169.57 220.899 170.402 220.899 171.319V171.735C220.899 173.314 221.369 174.583 222.307 175.543C223.246 176.482 224.611 176.951 226.403 176.951C227.299 176.951 228.185 176.781 229.059 176.439C229.955 176.077 230.691 175.618 231.267 175.063L232.035 176.279C231.331 176.919 230.478 177.431 229.475 177.815C228.473 178.178 227.438 178.359 226.371 178.359ZM240.425 178.359C239.188 178.359 238.196 178.039 237.449 177.399C236.724 176.759 236.361 175.714 236.361 174.263V166.711H233.833V165.399H236.361V161.111L238.089 160.727V165.399H241.705V166.711H238.089V173.975C238.089 175.106 238.324 175.885 238.793 176.311C239.263 176.717 239.892 176.919 240.681 176.919C240.959 176.919 241.236 176.887 241.513 176.823C241.791 176.738 242.036 176.653 242.249 176.567L242.505 177.911C242.228 178.039 241.908 178.146 241.545 178.231C241.183 178.317 240.809 178.359 240.425 178.359ZM252.47 178.039V176.727H254.838V166.711H252.31V165.399H256.47V167.159L256.086 167.287C256.897 166.562 257.772 166.018 258.71 165.655C259.649 165.271 260.556 165.079 261.43 165.079C262.881 165.079 263.958 165.421 264.662 166.103C265.366 166.786 265.718 167.863 265.718 169.335V176.727H267.926V178.039H261.622V176.727H263.99V169.495C263.99 168.471 263.745 167.725 263.254 167.255C262.785 166.765 262.028 166.519 260.982 166.519C260.236 166.519 259.468 166.658 258.678 166.935C257.91 167.191 257.057 167.714 256.118 168.503L256.566 167.671V176.727H258.774V178.039H252.47ZM276.996 178.359C275.418 178.359 274.095 178.071 273.028 177.495C271.983 176.919 271.194 176.13 270.66 175.127C270.127 174.125 269.86 172.994 269.86 171.735C269.86 170.455 270.127 169.314 270.66 168.311C271.194 167.309 271.951 166.519 272.932 165.943C273.935 165.367 275.098 165.079 276.42 165.079C277.764 165.079 278.916 165.367 279.876 165.943C280.836 166.519 281.572 167.309 282.084 168.311C282.596 169.314 282.852 170.455 282.852 171.735V172.375H270.948V171.031H281.22C281.199 170.157 280.986 169.367 280.58 168.663C280.196 167.959 279.642 167.405 278.916 166.999C278.212 166.594 277.38 166.391 276.42 166.391C275.418 166.391 274.543 166.615 273.796 167.063C273.071 167.49 272.506 168.077 272.1 168.823C271.716 169.57 271.524 170.402 271.524 171.319V171.735C271.524 173.314 271.994 174.583 272.932 175.543C273.871 176.482 275.236 176.951 277.028 176.951C277.924 176.951 278.81 176.781 279.684 176.439C280.58 176.077 281.316 175.618 281.892 175.063L282.66 176.279C281.956 176.919 281.103 177.431 280.1 177.815C279.098 178.178 278.063 178.359 276.996 178.359ZM284.714 178.039V176.727H287.114V160.695H284.586V159.383H288.81V176.727H291.05V178.039H284.714ZM300.215 178.359C298.636 178.359 297.314 178.071 296.247 177.495C295.202 176.919 294.412 176.13 293.879 175.127C293.346 174.125 293.079 172.994 293.079 171.735C293.079 170.455 293.346 169.314 293.879 168.311C294.412 167.309 295.17 166.519 296.151 165.943C297.154 165.367 298.316 165.079 299.639 165.079C300.983 165.079 302.135 165.367 303.095 165.943C304.055 166.519 304.791 167.309 305.303 168.311C305.815 169.314 306.071 170.455 306.071 171.735V172.375H294.167V171.031H304.439C304.418 170.157 304.204 169.367 303.799 168.663C303.415 167.959 302.86 167.405 302.135 166.999C301.431 166.594 300.599 166.391 299.639 166.391C298.636 166.391 297.762 166.615 297.015 167.063C296.29 167.49 295.724 168.077 295.319 168.823C294.935 169.57 294.743 170.402 294.743 171.319V171.735C294.743 173.314 295.212 174.583 296.151 175.543C297.09 176.482 298.455 176.951 300.247 176.951C301.143 176.951 302.028 176.781 302.903 176.439C303.799 176.077 304.535 175.618 305.111 175.063L305.879 176.279C305.175 176.919 304.322 177.431 303.319 177.815C302.316 178.178 301.282 178.359 300.215 178.359ZM308.189 178.039V176.727H310.557V166.711H308.029V165.399H312.189V168.407L311.869 168.279C312.317 167.319 312.861 166.551 313.501 165.975C314.141 165.399 314.877 165.111 315.709 165.111C316.434 165.111 317.149 165.303 317.853 165.687L317.309 167.287C316.968 167.053 316.648 166.893 316.349 166.807C316.05 166.701 315.741 166.647 315.421 166.647C314.781 166.647 314.173 166.882 313.597 167.351C313.042 167.821 312.605 168.429 312.285 169.175V176.727H314.877V178.039H308.189ZM141.612 219.511H139.692V218.071H141.516C142.199 218.071 142.764 217.922 143.212 217.623C143.682 217.346 144.066 216.877 144.364 216.215L145.516 213.655L145.932 214.039H144.78L140.204 202.711H138.188V201.399H144.364V202.711H142.028L146.124 213.175L145.772 213.111L150.444 202.711H148.14V201.399H154.156V202.711H152.14L145.708 216.855C145.282 217.837 144.748 218.519 144.108 218.903C143.468 219.309 142.636 219.511 141.612 219.511ZM160.114 214.359C158.642 214.359 157.512 214.029 156.722 213.367C155.954 212.706 155.57 211.799 155.57 210.647C155.57 209.367 156.008 208.418 156.882 207.799C157.778 207.159 158.973 206.839 160.466 206.839C161.192 206.839 161.917 206.893 162.642 206.999C163.389 207.106 164.168 207.255 164.978 207.447L164.498 207.735V205.559C164.498 204.557 164.2 203.799 163.602 203.287C163.005 202.775 162.098 202.519 160.882 202.519C160.2 202.519 159.496 202.615 158.77 202.807C158.066 202.978 157.384 203.245 156.722 203.607L156.242 202.231C156.968 201.847 157.757 201.559 158.61 201.367C159.464 201.175 160.242 201.079 160.946 201.079C162.696 201.079 164.008 201.463 164.882 202.231C165.778 202.999 166.226 204.151 166.226 205.687V212.727H168.402V214.039H164.562V212.087L164.818 212.247C164.178 212.951 163.432 213.485 162.578 213.847C161.746 214.189 160.925 214.359 160.114 214.359ZM160.37 213.015C161.138 213.015 161.896 212.855 162.642 212.535C163.41 212.215 164.093 211.757 164.69 211.159L164.498 211.767V208.151L164.978 208.695C164.21 208.482 163.464 208.333 162.738 208.247C162.034 208.162 161.373 208.119 160.754 208.119C159.645 208.119 158.781 208.322 158.162 208.727C157.565 209.111 157.266 209.741 157.266 210.615C157.266 211.383 157.522 211.981 158.034 212.407C158.568 212.813 159.346 213.015 160.37 213.015ZM169.321 201.399H173.481V203.415L173.161 203.575C173.673 202.765 174.377 202.146 175.273 201.719C176.169 201.293 177.139 201.079 178.185 201.079C179.486 201.079 180.585 201.378 181.481 201.975C182.377 202.551 183.049 203.341 183.497 204.343C183.966 205.325 184.201 206.445 184.201 207.703C184.201 208.962 183.966 210.093 183.497 211.095C183.049 212.098 182.377 212.898 181.481 213.495C180.585 214.071 179.486 214.359 178.185 214.359C177.139 214.359 176.169 214.146 175.273 213.719C174.377 213.271 173.673 212.653 173.161 211.863L173.545 212.023V218.199H175.753V219.511H169.449V218.199H171.849V202.711H169.321V201.399ZM177.897 212.919C179.305 212.919 180.425 212.461 181.257 211.543C182.089 210.626 182.505 209.346 182.505 207.703C182.505 206.061 182.089 204.791 181.257 203.895C180.425 202.978 179.305 202.519 177.897 202.519C176.958 202.519 176.094 202.701 175.305 203.063C174.537 203.405 173.907 203.927 173.417 204.631L173.545 203.831V211.671L173.417 210.807C173.907 211.49 174.537 212.013 175.305 212.375C176.094 212.738 176.958 212.919 177.897 212.919ZM191.739 214.359C190.267 214.359 189.137 214.029 188.347 213.367C187.579 212.706 187.195 211.799 187.195 210.647C187.195 209.367 187.633 208.418 188.507 207.799C189.403 207.159 190.598 206.839 192.091 206.839C192.817 206.839 193.542 206.893 194.267 206.999C195.014 207.106 195.793 207.255 196.603 207.447L196.123 207.735V205.559C196.123 204.557 195.825 203.799 195.227 203.287C194.63 202.775 193.723 202.519 192.507 202.519C191.825 202.519 191.121 202.615 190.395 202.807C189.691 202.978 189.009 203.245 188.347 203.607L187.867 202.231C188.593 201.847 189.382 201.559 190.235 201.367C191.089 201.175 191.867 201.079 192.571 201.079C194.321 201.079 195.633 201.463 196.507 202.231C197.403 202.999 197.851 204.151 197.851 205.687V212.727H200.027V214.039H196.187V212.087L196.443 212.247C195.803 212.951 195.057 213.485 194.203 213.847C193.371 214.189 192.55 214.359 191.739 214.359ZM191.995 213.015C192.763 213.015 193.521 212.855 194.267 212.535C195.035 212.215 195.718 211.757 196.315 211.159L196.123 211.767V208.151L196.603 208.695C195.835 208.482 195.089 208.333 194.363 208.247C193.659 208.162 192.998 208.119 192.379 208.119C191.27 208.119 190.406 208.322 189.787 208.727C189.19 209.111 188.891 209.741 188.891 210.615C188.891 211.383 189.147 211.981 189.659 212.407C190.193 212.813 190.971 213.015 191.995 213.015ZM209.81 214.359C208.764 214.359 207.794 214.146 206.898 213.719C206.002 213.271 205.298 212.653 204.786 211.863L205.106 211.895V214.039H201.234V212.727H203.474V196.695H200.946V195.383H205.17V203.415L204.786 203.575C205.298 202.765 206.002 202.146 206.898 201.719C207.794 201.293 208.764 201.079 209.81 201.079C211.111 201.079 212.21 201.378 213.106 201.975C214.002 202.551 214.674 203.341 215.122 204.343C215.591 205.325 215.826 206.445 215.826 207.703C215.826 208.962 215.591 210.093 215.122 211.095C214.674 212.098 214.002 212.898 213.106 213.495C212.21 214.071 211.111 214.359 209.81 214.359ZM209.522 212.919C210.93 212.919 212.05 212.461 212.882 211.543C213.714 210.626 214.13 209.346 214.13 207.703C214.13 206.061 213.714 204.791 212.882 203.895C212.05 202.978 210.93 202.519 209.522 202.519C208.583 202.519 207.719 202.701 206.93 203.063C206.162 203.405 205.532 203.927 205.042 204.631L205.17 203.831V211.543L205.042 210.807C205.532 211.49 206.162 212.013 206.93 212.375C207.719 212.738 208.583 212.919 209.522 212.919ZM217.892 214.039V212.727H220.26V202.711H217.732V201.399H221.988V212.727H224.196V214.039H217.892ZM221.092 198.775C220.644 198.775 220.314 198.647 220.1 198.391C219.887 198.135 219.78 197.837 219.78 197.495C219.78 197.133 219.887 196.823 220.1 196.567C220.314 196.311 220.644 196.183 221.092 196.183C221.54 196.183 221.871 196.311 222.084 196.567C222.319 196.823 222.436 197.133 222.436 197.495C222.436 197.837 222.319 198.135 222.084 198.391C221.871 198.647 221.54 198.775 221.092 198.775ZM225.543 214.039V212.727H227.943V196.695H225.415V195.383H229.639V212.727H231.879V214.039H225.543ZM233.267 214.039V212.727H235.635V202.711H233.107V201.399H237.363V212.727H239.571V214.039H233.267ZM236.467 198.775C236.019 198.775 235.689 198.647 235.475 198.391C235.262 198.135 235.155 197.837 235.155 197.495C235.155 197.133 235.262 196.823 235.475 196.567C235.689 196.311 236.019 196.183 236.467 196.183C236.915 196.183 237.246 196.311 237.459 196.567C237.694 196.823 237.811 197.133 237.811 197.495C237.811 197.837 237.694 198.135 237.459 198.391C237.246 198.647 236.915 198.775 236.467 198.775ZM243.862 219.511H241.942V218.071H243.766C244.449 218.071 245.014 217.922 245.462 217.623C245.932 217.346 246.316 216.877 246.614 216.215L247.766 213.655L248.182 214.039H247.03L242.454 202.711H240.438V201.399H246.614V202.711H244.278L248.374 213.175L248.022 213.111L252.694 202.711H250.39V201.399H256.406V202.711H254.39L247.958 216.855C247.532 217.837 246.998 218.519 246.358 218.903C245.718 219.309 244.886 219.511 243.862 219.511ZM263.811 214.359C262.488 214.359 261.326 214.071 260.323 213.495C259.342 212.919 258.584 212.13 258.051 211.127C257.518 210.125 257.251 208.994 257.251 207.735C257.251 206.455 257.518 205.314 258.051 204.311C258.584 203.309 259.342 202.519 260.323 201.943C261.326 201.367 262.488 201.079 263.811 201.079C265.155 201.079 266.318 201.367 267.299 201.943C268.28 202.519 269.038 203.309 269.571 204.311C270.126 205.314 270.403 206.455 270.403 207.735C270.403 208.994 270.126 210.125 269.571 211.127C269.038 212.13 268.28 212.919 267.299 213.495C266.318 214.071 265.155 214.359 263.811 214.359ZM263.811 212.951C265.283 212.951 266.467 212.471 267.363 211.511C268.259 210.551 268.707 209.293 268.707 207.735C268.707 206.157 268.259 204.887 267.363 203.927C266.467 202.967 265.283 202.487 263.811 202.487C262.36 202.487 261.176 202.967 260.259 203.927C259.363 204.887 258.915 206.157 258.915 207.735C258.915 209.293 259.363 210.551 260.259 211.511C261.176 212.471 262.36 212.951 263.811 212.951ZM272.517 214.039V212.727H274.885V202.711H272.357V201.399H276.517V204.407L276.197 204.279C276.645 203.319 277.189 202.551 277.829 201.975C278.469 201.399 279.205 201.111 280.037 201.111C280.763 201.111 281.477 201.303 282.181 201.687L281.637 203.287C281.296 203.053 280.976 202.893 280.677 202.807C280.379 202.701 280.069 202.647 279.749 202.647C279.109 202.647 278.501 202.882 277.925 203.351C277.371 203.821 276.933 204.429 276.613 205.175V212.727H279.205V214.039H272.517ZM297.36 209.527V208.471C297.36 207.661 297.488 206.978 297.744 206.423C298.021 205.869 298.362 205.357 298.768 204.887L300.24 203.191C300.709 202.637 301.061 202.103 301.296 201.591C301.552 201.079 301.68 200.461 301.68 199.735C301.68 198.861 301.413 198.103 300.88 197.463C300.346 196.823 299.45 196.503 298.192 196.503C296.933 196.503 295.994 196.834 295.376 197.495C294.757 198.135 294.448 199.01 294.448 200.119C294.448 200.397 294.458 200.685 294.48 200.983C294.522 201.261 294.586 201.559 294.672 201.879H293.168C293.082 201.559 293.018 201.239 292.976 200.919C292.933 200.599 292.912 200.258 292.912 199.895C292.912 198.423 293.37 197.25 294.288 196.375C295.226 195.501 296.549 195.063 298.256 195.063C299.898 195.063 301.157 195.501 302.032 196.375C302.928 197.229 303.376 198.306 303.376 199.607C303.376 200.503 303.216 201.303 302.896 202.007C302.597 202.69 302.085 203.415 301.36 204.183L299.632 205.943C299.226 206.413 298.896 206.903 298.64 207.415C298.384 207.906 298.256 208.461 298.256 209.079V209.527H297.36ZM296.752 214.039V211.959H298.864V214.039H296.752Z" fill="#FEFEFE" fill-opacity="0.937255"/>
<mask id="path-7-outside-1_14_38" maskUnits="userSpaceOnUse" x="164.5" y="249" width="115" height="27" fill="black">
<rect fill="white" x="164.5" y="249" width="115" height="27"/>
<path d="M165.544 269V267.624H168.072V251.72H165.544V250.344H172.488V251.72H169.96V259.016L178.312 251.72H176.104V250.344H182.824V251.72H180.456L171.496 259.592L171.528 258.632L181.096 267.624H183.464V269H176.584V267.624H178.76L169.96 259.4V267.624H172.488V269H165.544ZM191.528 269.32C189.949 269.32 188.626 269.032 187.56 268.456C186.514 267.88 185.725 267.091 185.192 266.088C184.658 265.085 184.392 263.955 184.392 262.696C184.392 261.416 184.658 260.275 185.192 259.272C185.725 258.269 186.482 257.48 187.464 256.904C188.466 256.328 189.629 256.04 190.952 256.04C192.296 256.04 193.448 256.328 194.408 256.904C195.368 257.48 196.104 258.269 196.616 259.272C197.128 260.275 197.384 261.416 197.384 262.696V263.336H185.48V261.992H195.752C195.73 261.117 195.517 260.328 195.112 259.624C194.728 258.92 194.173 258.365 193.448 257.96C192.744 257.555 191.912 257.352 190.952 257.352C189.949 257.352 189.074 257.576 188.328 258.024C187.602 258.451 187.037 259.037 186.632 259.784C186.248 260.531 186.056 261.363 186.056 262.28V262.696C186.056 264.275 186.525 265.544 187.464 266.504C188.402 267.443 189.768 267.912 191.56 267.912C192.456 267.912 193.341 267.741 194.216 267.4C195.112 267.037 195.848 266.579 196.424 266.024L197.192 267.24C196.488 267.88 195.634 268.392 194.632 268.776C193.629 269.139 192.594 269.32 191.528 269.32ZM206.638 269.32C205.358 269.32 204.27 269.064 203.374 268.552C202.499 268.019 201.88 267.208 201.518 266.12L202.062 265.896V268.968H200.686V264.52H201.966C202.008 265.331 202.243 266.013 202.67 266.568C203.118 267.101 203.672 267.496 204.334 267.752C205.016 268.008 205.72 268.136 206.446 268.136C207.512 268.136 208.323 267.933 208.878 267.528C209.454 267.123 209.742 266.568 209.742 265.864C209.742 265.331 209.582 264.904 209.262 264.584C208.942 264.243 208.27 263.944 207.246 263.688L204.11 262.92C203.064 262.664 202.243 262.28 201.646 261.768C201.048 261.235 200.75 260.531 200.75 259.656C200.75 258.909 200.942 258.269 201.326 257.736C201.71 257.181 202.254 256.755 202.958 256.456C203.662 256.157 204.494 256.008 205.454 256.008C206.52 256.008 207.448 256.232 208.238 256.68C209.027 257.107 209.56 257.8 209.838 258.76L209.39 258.888V256.36H210.734V260.488H209.486C209.443 259.635 209.24 258.973 208.878 258.504C208.515 258.013 208.046 257.672 207.47 257.48C206.915 257.288 206.339 257.192 205.742 257.192C204.632 257.192 203.8 257.405 203.246 257.832C202.712 258.237 202.446 258.781 202.446 259.464C202.446 259.997 202.627 260.413 202.99 260.712C203.374 261.011 204.003 261.267 204.878 261.48L208.014 262.248C209.166 262.525 210.019 262.931 210.574 263.464C211.15 263.997 211.438 264.744 211.438 265.704C211.438 266.451 211.235 267.101 210.83 267.656C210.446 268.189 209.902 268.605 209.198 268.904C208.494 269.181 207.64 269.32 206.638 269.32ZM206.062 274.728C205.528 274.728 205.027 274.664 204.558 274.536C204.11 274.429 203.747 274.28 203.47 274.088L203.854 273.256C204.131 273.427 204.43 273.565 204.75 273.672C205.091 273.779 205.528 273.832 206.062 273.832C207.278 273.832 207.886 273.352 207.886 272.392C207.886 272.072 207.779 271.805 207.566 271.592C207.352 271.379 207.022 271.272 206.574 271.272C206.36 271.272 206.147 271.293 205.934 271.336C205.72 271.379 205.475 271.475 205.198 271.624L204.75 271.368L205.166 268.68H206.254L205.934 270.952L205.454 270.856C205.688 270.749 205.912 270.664 206.126 270.6C206.339 270.557 206.563 270.536 206.798 270.536C207.544 270.536 208.12 270.707 208.526 271.048C208.952 271.389 209.166 271.859 209.166 272.456C209.166 273.139 208.878 273.683 208.302 274.088C207.726 274.515 206.979 274.728 206.062 274.728ZM213.595 269V267.688H215.963V257.672H213.435V256.36H215.963V253.64C215.963 252.893 216.102 252.253 216.379 251.72C216.657 251.165 217.051 250.749 217.563 250.472C218.075 250.173 218.673 250.024 219.355 250.024C220.166 250.024 220.827 250.227 221.339 250.632C221.851 251.016 222.193 251.549 222.363 252.232L221.211 252.904C221.105 252.413 220.902 252.04 220.603 251.784C220.326 251.528 219.942 251.4 219.451 251.4C218.854 251.4 218.406 251.581 218.107 251.944C217.83 252.307 217.691 252.84 217.691 253.544V256.36H221.083V257.672H217.691V267.688H220.763V269H213.595ZM230.215 269.32C228.636 269.32 227.314 269.032 226.247 268.456C225.202 267.88 224.412 267.091 223.879 266.088C223.346 265.085 223.079 263.955 223.079 262.696C223.079 261.416 223.346 260.275 223.879 259.272C224.412 258.269 225.17 257.48 226.151 256.904C227.154 256.328 228.316 256.04 229.639 256.04C230.983 256.04 232.135 256.328 233.095 256.904C234.055 257.48 234.791 258.269 235.303 259.272C235.815 260.275 236.071 261.416 236.071 262.696V263.336H224.167V261.992H234.439C234.418 261.117 234.204 260.328 233.799 259.624C233.415 258.92 232.86 258.365 232.135 257.96C231.431 257.555 230.599 257.352 229.639 257.352C228.636 257.352 227.762 257.576 227.015 258.024C226.29 258.451 225.724 259.037 225.319 259.784C224.935 260.531 224.743 261.363 224.743 262.28V262.696C224.743 264.275 225.212 265.544 226.151 266.504C227.09 267.443 228.455 267.912 230.247 267.912C231.143 267.912 232.028 267.741 232.903 267.4C233.799 267.037 234.535 266.579 235.111 266.024L235.879 267.24C235.175 267.88 234.322 268.392 233.319 268.776C232.316 269.139 231.282 269.32 230.215 269.32ZM244.845 269.32C243.544 269.32 242.445 269.032 241.549 268.456C240.653 267.859 239.97 267.059 239.501 266.056C239.053 265.053 238.829 263.923 238.829 262.664C238.829 261.405 239.053 260.285 239.501 259.304C239.97 258.301 240.653 257.512 241.549 256.936C242.445 256.339 243.544 256.04 244.845 256.04C245.89 256.04 246.85 256.253 247.725 256.68C248.621 257.107 249.325 257.725 249.837 258.536L249.453 258.376V251.656H246.925V250.344H251.181V267.688H253.421V269H249.517V266.92L249.837 266.824C249.325 267.613 248.621 268.232 247.725 268.68C246.85 269.107 245.89 269.32 244.845 269.32ZM245.101 267.88C246.04 267.88 246.893 267.699 247.661 267.336C248.45 266.973 249.09 266.451 249.581 265.768L249.453 266.632V258.792L249.581 259.592C249.09 258.888 248.45 258.365 247.661 258.024C246.893 257.661 246.04 257.48 245.101 257.48C243.714 257.48 242.594 257.939 241.741 258.856C240.909 259.752 240.493 261.021 240.493 262.664C240.493 264.307 240.909 265.587 241.741 266.504C242.594 267.421 243.714 267.88 245.101 267.88ZM254.752 269V267.688H257.12V257.672H254.592V256.36H258.848V267.688H261.056V269H254.752ZM257.952 253.736C257.504 253.736 257.173 253.608 256.96 253.352C256.746 253.096 256.64 252.797 256.64 252.456C256.64 252.093 256.746 251.784 256.96 251.528C257.173 251.272 257.504 251.144 257.952 251.144C258.4 251.144 258.73 251.272 258.944 251.528C259.178 251.784 259.296 252.093 259.296 252.456C259.296 252.797 259.178 253.096 258.944 253.352C258.73 253.608 258.4 253.736 257.952 253.736ZM262.658 269V267.688H265.026V257.672H262.498V256.36H266.658V258.12L266.274 258.248C267.085 257.523 267.959 256.979 268.898 256.616C269.837 256.232 270.743 256.04 271.618 256.04C273.069 256.04 274.146 256.381 274.85 257.064C275.554 257.747 275.906 258.824 275.906 260.296V267.688H278.114V269H271.81V267.688H274.178V260.456C274.178 259.432 273.933 258.685 273.442 258.216C272.973 257.725 272.215 257.48 271.17 257.48C270.423 257.48 269.655 257.619 268.866 257.896C268.098 258.152 267.245 258.675 266.306 259.464L266.754 258.632V267.688H268.962V269H262.658Z"/>
</mask>
<path d="M165.544 269V267.624H168.072V251.72H165.544V250.344H172.488V251.72H169.96V259.016L178.312 251.72H176.104V250.344H182.824V251.72H180.456L171.496 259.592L171.528 258.632L181.096 267.624H183.464V269H176.584V267.624H178.76L169.96 259.4V267.624H172.488V269H165.544ZM191.528 269.32C189.949 269.32 188.626 269.032 187.56 268.456C186.514 267.88 185.725 267.091 185.192 266.088C184.658 265.085 184.392 263.955 184.392 262.696C184.392 261.416 184.658 260.275 185.192 259.272C185.725 258.269 186.482 257.48 187.464 256.904C188.466 256.328 189.629 256.04 190.952 256.04C192.296 256.04 193.448 256.328 194.408 256.904C195.368 257.48 196.104 258.269 196.616 259.272C197.128 260.275 197.384 261.416 197.384 262.696V263.336H185.48V261.992H195.752C195.73 261.117 195.517 260.328 195.112 259.624C194.728 258.92 194.173 258.365 193.448 257.96C192.744 257.555 191.912 257.352 190.952 257.352C189.949 257.352 189.074 257.576 188.328 258.024C187.602 258.451 187.037 259.037 186.632 259.784C186.248 260.531 186.056 261.363 186.056 262.28V262.696C186.056 264.275 186.525 265.544 187.464 266.504C188.402 267.443 189.768 267.912 191.56 267.912C192.456 267.912 193.341 267.741 194.216 267.4C195.112 267.037 195.848 266.579 196.424 266.024L197.192 267.24C196.488 267.88 195.634 268.392 194.632 268.776C193.629 269.139 192.594 269.32 191.528 269.32ZM206.638 269.32C205.358 269.32 204.27 269.064 203.374 268.552C202.499 268.019 201.88 267.208 201.518 266.12L202.062 265.896V268.968H200.686V264.52H201.966C202.008 265.331 202.243 266.013 202.67 266.568C203.118 267.101 203.672 267.496 204.334 267.752C205.016 268.008 205.72 268.136 206.446 268.136C207.512 268.136 208.323 267.933 208.878 267.528C209.454 267.123 209.742 266.568 209.742 265.864C209.742 265.331 209.582 264.904 209.262 264.584C208.942 264.243 208.27 263.944 207.246 263.688L204.11 262.92C203.064 262.664 202.243 262.28 201.646 261.768C201.048 261.235 200.75 260.531 200.75 259.656C200.75 258.909 200.942 258.269 201.326 257.736C201.71 257.181 202.254 256.755 202.958 256.456C203.662 256.157 204.494 256.008 205.454 256.008C206.52 256.008 207.448 256.232 208.238 256.68C209.027 257.107 209.56 257.8 209.838 258.76L209.39 258.888V256.36H210.734V260.488H209.486C209.443 259.635 209.24 258.973 208.878 258.504C208.515 258.013 208.046 257.672 207.47 257.48C206.915 257.288 206.339 257.192 205.742 257.192C204.632 257.192 203.8 257.405 203.246 257.832C202.712 258.237 202.446 258.781 202.446 259.464C202.446 259.997 202.627 260.413 202.99 260.712C203.374 261.011 204.003 261.267 204.878 261.48L208.014 262.248C209.166 262.525 210.019 262.931 210.574 263.464C211.15 263.997 211.438 264.744 211.438 265.704C211.438 266.451 211.235 267.101 210.83 267.656C210.446 268.189 209.902 268.605 209.198 268.904C208.494 269.181 207.64 269.32 206.638 269.32ZM206.062 274.728C205.528 274.728 205.027 274.664 204.558 274.536C204.11 274.429 203.747 274.28 203.47 274.088L203.854 273.256C204.131 273.427 204.43 273.565 204.75 273.672C205.091 273.779 205.528 273.832 206.062 273.832C207.278 273.832 207.886 273.352 207.886 272.392C207.886 272.072 207.779 271.805 207.566 271.592C207.352 271.379 207.022 271.272 206.574 271.272C206.36 271.272 206.147 271.293 205.934 271.336C205.72 271.379 205.475 271.475 205.198 271.624L204.75 271.368L205.166 268.68H206.254L205.934 270.952L205.454 270.856C205.688 270.749 205.912 270.664 206.126 270.6C206.339 270.557 206.563 270.536 206.798 270.536C207.544 270.536 208.12 270.707 208.526 271.048C208.952 271.389 209.166 271.859 209.166 272.456C209.166 273.139 208.878 273.683 208.302 274.088C207.726 274.515 206.979 274.728 206.062 274.728ZM213.595 269V267.688H215.963V257.672H213.435V256.36H215.963V253.64C215.963 252.893 216.102 252.253 216.379 251.72C216.657 251.165 217.051 250.749 217.563 250.472C218.075 250.173 218.673 250.024 219.355 250.024C220.166 250.024 220.827 250.227 221.339 250.632C221.851 251.016 222.193 251.549 222.363 252.232L221.211 252.904C221.105 252.413 220.902 252.04 220.603 251.784C220.326 251.528 219.942 251.4 219.451 251.4C218.854 251.4 218.406 251.581 218.107 251.944C217.83 252.307 217.691 252.84 217.691 253.544V256.36H221.083V257.672H217.691V267.688H220.763V269H213.595ZM230.215 269.32C228.636 269.32 227.314 269.032 226.247 268.456C225.202 267.88 224.412 267.091 223.879 266.088C223.346 265.085 223.079 263.955 223.079 262.696C223.079 261.416 223.346 260.275 223.879 259.272C224.412 258.269 225.17 257.48 226.151 256.904C227.154 256.328 228.316 256.04 229.639 256.04C230.983 256.04 232.135 256.328 233.095 256.904C234.055 257.48 234.791 258.269 235.303 259.272C235.815 260.275 236.071 261.416 236.071 262.696V263.336H224.167V261.992H234.439C234.418 261.117 234.204 260.328 233.799 259.624C233.415 258.92 232.86 258.365 232.135 257.96C231.431 257.555 230.599 257.352 229.639 257.352C228.636 257.352 227.762 257.576 227.015 258.024C226.29 258.451 225.724 259.037 225.319 259.784C224.935 260.531 224.743 261.363 224.743 262.28V262.696C224.743 264.275 225.212 265.544 226.151 266.504C227.09 267.443 228.455 267.912 230.247 267.912C231.143 267.912 232.028 267.741 232.903 267.4C233.799 267.037 234.535 266.579 235.111 266.024L235.879 267.24C235.175 267.88 234.322 268.392 233.319 268.776C232.316 269.139 231.282 269.32 230.215 269.32ZM244.845 269.32C243.544 269.32 242.445 269.032 241.549 268.456C240.653 267.859 239.97 267.059 239.501 266.056C239.053 265.053 238.829 263.923 238.829 262.664C238.829 261.405 239.053 260.285 239.501 259.304C239.97 258.301 240.653 257.512 241.549 256.936C242.445 256.339 243.544 256.04 244.845 256.04C245.89 256.04 246.85 256.253 247.725 256.68C248.621 257.107 249.325 257.725 249.837 258.536L249.453 258.376V251.656H246.925V250.344H251.181V267.688H253.421V269H249.517V266.92L249.837 266.824C249.325 267.613 248.621 268.232 247.725 268.68C246.85 269.107 245.89 269.32 244.845 269.32ZM245.101 267.88C246.04 267.88 246.893 267.699 247.661 267.336C248.45 266.973 249.09 266.451 249.581 265.768L249.453 266.632V258.792L249.581 259.592C249.09 258.888 248.45 258.365 247.661 258.024C246.893 257.661 246.04 257.48 245.101 257.48C243.714 257.48 242.594 257.939 241.741 258.856C240.909 259.752 240.493 261.021 240.493 262.664C240.493 264.307 240.909 265.587 241.741 266.504C242.594 267.421 243.714 267.88 245.101 267.88ZM254.752 269V267.688H257.12V257.672H254.592V256.36H258.848V267.688H261.056V269H254.752ZM257.952 253.736C257.504 253.736 257.173 253.608 256.96 253.352C256.746 253.096 256.64 252.797 256.64 252.456C256.64 252.093 256.746 251.784 256.96 251.528C257.173 251.272 257.504 251.144 257.952 251.144C258.4 251.144 258.73 251.272 258.944 251.528C259.178 251.784 259.296 252.093 259.296 252.456C259.296 252.797 259.178 253.096 258.944 253.352C258.73 253.608 258.4 253.736 257.952 253.736ZM262.658 269V267.688H265.026V257.672H262.498V256.36H266.658V258.12L266.274 258.248C267.085 257.523 267.959 256.979 268.898 256.616C269.837 256.232 270.743 256.04 271.618 256.04C273.069 256.04 274.146 256.381 274.85 257.064C275.554 257.747 275.906 258.824 275.906 260.296V267.688H278.114V269H271.81V267.688H274.178V260.456C274.178 259.432 273.933 258.685 273.442 258.216C272.973 257.725 272.215 257.48 271.17 257.48C270.423 257.48 269.655 257.619 268.866 257.896C268.098 258.152 267.245 258.675 266.306 259.464L266.754 258.632V267.688H268.962V269H262.658Z" fill="#FEFEFE"/>
<path d="M165.544 269H164.544V270H165.544V269ZM165.544 267.624V266.624H164.544V267.624H165.544ZM168.072 267.624V268.624H169.072V267.624H168.072ZM168.072 251.72H169.072V250.72H168.072V251.72ZM165.544 251.72H164.544V252.72H165.544V251.72ZM165.544 250.344V249.344H164.544V250.344H165.544ZM172.488 250.344H173.488V249.344H172.488V250.344ZM172.488 251.72V252.72H173.488V251.72H172.488ZM169.96 251.72V250.72H168.96V251.72H169.96ZM169.96 259.016H168.96V261.217L170.618 259.769L169.96 259.016ZM178.312 251.72L178.97 252.473L180.977 250.72H178.312V251.72ZM176.104 251.72H175.104V252.72H176.104V251.72ZM176.104 250.344V249.344H175.104V250.344H176.104ZM182.824 250.344H183.824V249.344H182.824V250.344ZM182.824 251.72V252.72H183.824V251.72H182.824ZM180.456 251.72V250.72H180.079L179.796 250.969L180.456 251.72ZM171.496 259.592L170.497 259.559L170.42 261.869L172.156 260.343L171.496 259.592ZM171.528 258.632L172.213 257.903L170.602 256.39L170.529 258.599L171.528 258.632ZM181.096 267.624L180.411 268.353L180.7 268.624H181.096V267.624ZM183.464 267.624H184.464V266.624H183.464V267.624ZM183.464 269V270H184.464V269H183.464ZM176.584 269H175.584V270H176.584V269ZM176.584 267.624V266.624H175.584V267.624H176.584ZM178.76 267.624V268.624H181.295L179.443 266.893L178.76 267.624ZM169.96 259.4L170.643 258.669L168.96 257.097V259.4H169.96ZM169.96 267.624H168.96V268.624H169.96V267.624ZM172.488 267.624H173.488V266.624H172.488V267.624ZM172.488 269V270H173.488V269H172.488ZM166.544 269V267.624H164.544V269H166.544ZM165.544 268.624H168.072V266.624H165.544V268.624ZM169.072 267.624V251.72H167.072V267.624H169.072ZM168.072 250.72H165.544V252.72H168.072V250.72ZM166.544 251.72V250.344H164.544V251.72H166.544ZM165.544 251.344H172.488V249.344H165.544V251.344ZM171.488 250.344V251.72H173.488V250.344H171.488ZM172.488 250.72H169.96V252.72H172.488V250.72ZM168.96 251.72V259.016H170.96V251.72H168.96ZM170.618 259.769L178.97 252.473L177.654 250.967L169.302 258.263L170.618 259.769ZM178.312 250.72H176.104V252.72H178.312V250.72ZM177.104 251.72V250.344H175.104V251.72H177.104ZM176.104 251.344H182.824V249.344H176.104V251.344ZM181.824 250.344V251.72H183.824V250.344H181.824ZM182.824 250.72H180.456V252.72H182.824V250.72ZM179.796 250.969L170.836 258.841L172.156 260.343L181.116 252.471L179.796 250.969ZM172.496 259.625L172.528 258.665L170.529 258.599L170.497 259.559L172.496 259.625ZM170.843 259.361L180.411 268.353L181.781 266.895L172.213 257.903L170.843 259.361ZM181.096 268.624H183.464V266.624H181.096V268.624ZM182.464 267.624V269H184.464V267.624H182.464ZM183.464 268H176.584V270H183.464V268ZM177.584 269V267.624H175.584V269H177.584ZM176.584 268.624H178.76V266.624H176.584V268.624ZM179.443 266.893L170.643 258.669L169.277 260.131L178.077 268.355L179.443 266.893ZM168.96 259.4V267.624H170.96V259.4H168.96ZM169.96 268.624H172.488V266.624H169.96V268.624ZM171.488 267.624V269H173.488V267.624H171.488ZM172.488 268H165.544V270H172.488V268ZM187.56 268.456L187.077 269.332L187.084 269.336L187.56 268.456ZM185.192 266.088L186.074 265.618L186.074 265.618L185.192 266.088ZM185.192 259.272L184.309 258.802L184.309 258.802L185.192 259.272ZM187.464 256.904L186.965 256.037L186.957 256.042L187.464 256.904ZM194.408 256.904L193.893 257.761L193.893 257.761L194.408 256.904ZM196.616 259.272L195.725 259.727L195.725 259.727L196.616 259.272ZM197.384 263.336V264.336H198.384V263.336H197.384ZM185.48 263.336H184.48V264.336H185.48V263.336ZM185.48 261.992V260.992H184.48V261.992H185.48ZM195.752 261.992V262.992H196.776L196.751 261.968L195.752 261.992ZM195.112 259.624L194.234 260.103L194.239 260.113L194.245 260.123L195.112 259.624ZM193.448 257.96L192.949 258.827L192.96 258.833L193.448 257.96ZM188.328 258.024L188.835 258.886L188.842 258.881L188.328 258.024ZM186.632 259.784L185.753 259.307L185.747 259.317L185.742 259.327L186.632 259.784ZM187.464 266.504L186.749 267.203L186.757 267.211L187.464 266.504ZM194.216 267.4L194.579 268.332L194.591 268.327L194.216 267.4ZM196.424 266.024L197.269 265.49L196.614 264.453L195.73 265.304L196.424 266.024ZM197.192 267.24L197.864 267.98L198.485 267.415L198.037 266.706L197.192 267.24ZM194.632 268.776L194.972 269.716L194.981 269.713L194.989 269.71L194.632 268.776ZM191.528 268.32C190.066 268.32 188.918 268.053 188.035 267.576L187.084 269.336C188.335 270.011 189.832 270.32 191.528 270.32V268.32ZM188.042 267.58C187.158 267.093 186.512 266.441 186.074 265.618L184.309 266.558C184.938 267.741 185.871 268.667 187.077 269.332L188.042 267.58ZM186.074 265.618C185.626 264.775 185.392 263.809 185.392 262.696H183.392C183.392 264.1 183.69 265.395 184.309 266.558L186.074 265.618ZM185.392 262.696C185.392 261.559 185.627 260.582 186.074 259.742L184.309 258.802C183.689 259.967 183.392 261.273 183.392 262.696H185.392ZM186.074 259.742C186.521 258.903 187.148 258.249 187.97 257.766L186.957 256.042C185.817 256.711 184.929 257.636 184.309 258.802L186.074 259.742ZM187.962 257.771C188.792 257.294 189.778 257.04 190.952 257.04V255.04C189.48 255.04 188.14 255.362 186.966 256.037L187.962 257.771ZM190.952 257.04C192.151 257.04 193.117 257.296 193.893 257.761L194.922 256.047C193.778 255.36 192.44 255.04 190.952 255.04V257.04ZM193.893 257.761C194.692 258.241 195.298 258.89 195.725 259.727L197.506 258.817C196.91 257.649 196.044 256.719 194.922 256.047L193.893 257.761ZM195.725 259.727C196.156 260.57 196.384 261.552 196.384 262.696H198.384C198.384 261.28 198.099 259.979 197.506 258.817L195.725 259.727ZM196.384 262.696V263.336H198.384V262.696H196.384ZM197.384 262.336H185.48V264.336H197.384V262.336ZM186.48 263.336V261.992H184.48V263.336H186.48ZM185.48 262.992H195.752V260.992H185.48V262.992ZM196.751 261.968C196.726 260.939 196.473 259.985 195.978 259.125L194.245 260.123C194.561 260.671 194.734 261.295 194.752 262.016L196.751 261.968ZM195.99 259.145C195.512 258.269 194.819 257.581 193.935 257.087L192.96 258.833C193.527 259.15 193.943 259.571 194.234 260.103L195.99 259.145ZM193.947 257.093C193.065 256.586 192.055 256.352 190.952 256.352V258.352C191.769 258.352 192.422 258.523 192.949 258.827L193.947 257.093ZM190.952 256.352C189.796 256.352 188.738 256.612 187.813 257.167L188.842 258.881C189.411 258.54 190.102 258.352 190.952 258.352V256.352ZM187.821 257.162C186.937 257.682 186.244 258.402 185.753 259.307L187.51 260.261C187.83 259.672 188.267 259.22 188.835 258.886L187.821 257.162ZM185.742 259.327C185.279 260.228 185.056 261.219 185.056 262.28H187.056C187.056 261.507 187.216 260.834 187.521 260.241L185.742 259.327ZM185.056 262.28V262.696H187.056V262.28H185.056ZM185.056 262.696C185.056 264.487 185.595 266.024 186.749 267.203L188.179 265.805C187.454 265.064 187.056 264.063 187.056 262.696H185.056ZM186.757 267.211C187.941 268.395 189.598 268.912 191.56 268.912V266.912C189.937 266.912 188.864 266.49 188.171 265.797L186.757 267.211ZM191.56 268.912C192.586 268.912 193.594 268.716 194.579 268.332L193.852 266.468C193.088 266.767 192.325 266.912 191.56 266.912V268.912ZM194.591 268.327C195.581 267.926 196.432 267.404 197.117 266.744L195.73 265.304C195.263 265.753 194.642 266.149 193.84 266.473L194.591 268.327ZM195.578 266.558L196.346 267.774L198.037 266.706L197.269 265.49L195.578 266.558ZM196.519 266.5C195.918 267.046 195.175 267.497 194.274 267.842L194.989 269.71C196.093 269.287 197.057 268.714 197.864 267.98L196.519 266.5ZM194.291 267.836C193.398 268.159 192.478 268.32 191.528 268.32V270.32C192.71 270.32 193.86 270.119 194.972 269.716L194.291 267.836ZM203.374 268.552L202.853 269.406L202.865 269.413L202.877 269.42L203.374 268.552ZM201.518 266.12L201.137 265.195L200.274 265.551L200.569 266.436L201.518 266.12ZM202.062 265.896H203.062V264.403L201.681 264.971L202.062 265.896ZM202.062 268.968V269.968H203.062V268.968H202.062ZM200.686 268.968H199.686V269.968H200.686V268.968ZM200.686 264.52V263.52H199.686V264.52H200.686ZM201.966 264.52L202.964 264.467L202.914 263.52H201.966V264.52ZM202.67 266.568L201.877 267.178L201.89 267.195L201.904 267.211L202.67 266.568ZM204.334 267.752L203.973 268.685L203.983 268.688L204.334 267.752ZM208.878 267.528L208.302 266.71L208.295 266.715L208.288 266.721L208.878 267.528ZM209.262 264.584L208.532 265.268L208.543 265.28L208.555 265.291L209.262 264.584ZM207.246 263.688L207.488 262.718L207.483 262.717L207.246 263.688ZM204.11 262.92L204.347 261.949L204.347 261.949L204.11 262.92ZM201.646 261.768L200.98 262.514L200.987 262.521L200.995 262.527L201.646 261.768ZM201.326 257.736L202.137 258.32L202.143 258.313L202.148 258.305L201.326 257.736ZM202.958 256.456L203.348 257.377L203.348 257.377L202.958 256.456ZM208.238 256.68L207.744 257.55L207.753 257.555L207.762 257.56L208.238 256.68ZM209.838 258.76L210.112 259.722L211.077 259.446L210.798 258.482L209.838 258.76ZM209.39 258.888H208.39V260.214L209.664 259.85L209.39 258.888ZM209.39 256.36V255.36H208.39V256.36H209.39ZM210.734 256.36H211.734V255.36H210.734V256.36ZM210.734 260.488V261.488H211.734V260.488H210.734ZM209.486 260.488L208.487 260.538L208.534 261.488H209.486V260.488ZM208.878 258.504L208.073 259.098L208.08 259.107L208.086 259.115L208.878 258.504ZM207.47 257.48L207.142 258.425L207.153 258.429L207.47 257.48ZM203.246 257.832L203.851 258.628L203.855 258.625L203.246 257.832ZM202.99 260.712L202.354 261.484L202.365 261.493L202.376 261.501L202.99 260.712ZM204.878 261.48L205.115 260.509L205.115 260.508L204.878 261.48ZM208.014 262.248L207.776 263.219L207.78 263.22L208.014 262.248ZM210.574 263.464L209.881 264.185L209.887 264.191L209.894 264.198L210.574 263.464ZM210.83 267.656L210.022 267.066L210.018 267.072L210.83 267.656ZM209.198 268.904L209.564 269.834L209.576 269.83L209.588 269.825L209.198 268.904ZM204.558 274.536L204.821 273.571L204.805 273.567L204.789 273.563L204.558 274.536ZM203.47 274.088L202.562 273.669L202.21 274.432L202.9 274.91L203.47 274.088ZM203.854 273.256L204.378 272.404L203.418 271.814L202.946 272.837L203.854 273.256ZM204.75 273.672L204.433 274.621L204.442 274.624L204.451 274.626L204.75 273.672ZM207.566 271.592L206.859 272.299L206.859 272.299L207.566 271.592ZM205.934 271.336L206.13 272.317L206.13 272.317L205.934 271.336ZM205.198 271.624L204.701 272.492L205.183 272.768L205.672 272.504L205.198 271.624ZM204.75 271.368L203.761 271.215L203.656 271.895L204.253 272.236L204.75 271.368ZM205.166 268.68V267.68H204.308L204.177 268.527L205.166 268.68ZM206.254 268.68L207.244 268.819L207.404 267.68H206.254V268.68ZM205.934 270.952L205.738 271.933L206.776 272.14L206.924 271.091L205.934 270.952ZM205.454 270.856L205.04 269.946L202.217 271.229L205.258 271.837L205.454 270.856ZM206.126 270.6L205.93 269.619L205.883 269.629L205.838 269.642L206.126 270.6ZM208.526 271.048L207.881 271.813L207.891 271.821L207.901 271.829L208.526 271.048ZM208.302 274.088L207.726 273.27L207.716 273.277L207.706 273.284L208.302 274.088ZM206.638 268.32C205.49 268.32 204.582 268.091 203.87 267.684L202.877 269.42C203.957 270.037 205.225 270.32 206.638 270.32V268.32ZM203.894 267.698C203.246 267.303 202.764 266.696 202.466 265.804L200.569 266.436C200.997 267.72 201.752 268.735 202.853 269.406L203.894 267.698ZM201.898 267.045L202.442 266.821L201.681 264.971L201.137 265.195L201.898 267.045ZM201.062 265.896V268.968H203.062V265.896H201.062ZM202.062 267.968H200.686V269.968H202.062V267.968ZM201.686 268.968V264.52H199.686V268.968H201.686ZM200.686 265.52H201.966V263.52H200.686V265.52ZM200.967 264.573C201.019 265.552 201.308 266.438 201.877 267.178L203.462 265.958C203.178 265.589 202.998 265.109 202.964 264.467L200.967 264.573ZM201.904 267.211C202.462 267.876 203.157 268.369 203.973 268.685L204.695 266.819C204.187 266.623 203.773 266.327 203.435 265.925L201.904 267.211ZM203.983 268.688C204.777 268.986 205.6 269.136 206.446 269.136V267.136C205.841 267.136 205.256 267.03 204.685 266.816L203.983 268.688ZM206.446 269.136C207.615 269.136 208.671 268.918 209.468 268.335L208.288 266.721C207.975 266.949 207.41 267.136 206.446 267.136V269.136ZM209.453 268.346C210.295 267.753 210.742 266.894 210.742 265.864H208.742C208.742 266.242 208.612 266.492 208.302 266.71L209.453 268.346ZM210.742 265.864C210.742 265.116 210.509 264.418 209.969 263.877L208.555 265.291C208.654 265.39 208.742 265.545 208.742 265.864H210.742ZM209.991 263.9C209.703 263.592 209.32 263.366 208.924 263.19C208.518 263.01 208.034 262.854 207.488 262.718L207.003 264.658C207.481 264.778 207.846 264.9 208.111 265.018C208.388 265.14 208.501 265.234 208.532 265.268L209.991 263.9ZM207.483 262.717L204.347 261.949L203.872 263.891L207.008 264.659L207.483 262.717ZM204.347 261.949C203.401 261.717 202.739 261.388 202.296 261.009L200.995 262.527C201.747 263.172 202.727 263.611 203.872 263.891L204.347 261.949ZM202.312 261.022C201.948 260.697 201.75 260.275 201.75 259.656H199.75C199.75 260.786 200.149 261.772 200.98 262.514L202.312 261.022ZM201.75 259.656C201.75 259.089 201.892 258.661 202.137 258.32L200.514 257.152C199.991 257.878 199.75 258.729 199.75 259.656H201.75ZM202.148 258.305C202.41 257.926 202.795 257.611 203.348 257.377L202.567 255.535C201.713 255.898 201.009 256.436 200.503 257.167L202.148 258.305ZM203.348 257.377C203.901 257.142 204.595 257.008 205.454 257.008V255.008C204.393 255.008 203.422 255.173 202.567 255.535L203.348 257.377ZM205.454 257.008C206.378 257.008 207.13 257.201 207.744 257.55L208.731 255.81C207.767 255.263 206.663 255.008 205.454 255.008V257.008ZM207.762 257.56C208.288 257.844 208.665 258.303 208.877 259.038L210.798 258.482C210.456 257.297 209.766 256.37 208.713 255.8L207.762 257.56ZM209.563 257.798L209.115 257.926L209.664 259.85L210.112 259.722L209.563 257.798ZM210.39 258.888V256.36H208.39V258.888H210.39ZM209.39 257.36H210.734V255.36H209.39V257.36ZM209.734 256.36V260.488H211.734V256.36H209.734ZM210.734 259.488H209.486V261.488H210.734V259.488ZM210.484 260.438C210.436 259.467 210.2 258.58 209.669 257.893L208.086 259.115C208.28 259.366 208.45 259.803 208.487 260.538L210.484 260.438ZM209.682 257.91C209.197 257.254 208.558 256.789 207.786 256.531L207.153 258.429C207.533 258.555 207.832 258.772 208.073 259.098L209.682 257.91ZM207.797 256.535C207.135 256.306 206.448 256.192 205.742 256.192V258.192C206.23 258.192 206.695 258.27 207.143 258.425L207.797 256.535ZM205.742 256.192C204.532 256.192 203.441 256.42 202.636 257.039L203.855 258.625C204.159 258.391 204.732 258.192 205.742 258.192V256.192ZM202.641 257.036C201.853 257.634 201.446 258.476 201.446 259.464H203.446C203.446 259.087 203.572 258.84 203.851 258.628L202.641 257.036ZM201.446 259.464C201.446 260.251 201.728 260.968 202.354 261.484L203.625 259.94C203.526 259.858 203.446 259.744 203.446 259.464H201.446ZM202.376 261.501C202.929 261.932 203.726 262.228 204.641 262.452L205.115 260.508C204.28 260.305 203.818 260.089 203.604 259.923L202.376 261.501ZM204.64 262.451L207.776 263.219L208.251 261.277L205.115 260.509L204.64 262.451ZM207.78 263.22C208.844 263.477 209.505 263.824 209.881 264.185L211.267 262.743C210.533 262.038 209.487 261.574 208.248 261.276L207.78 263.22ZM209.894 264.198C210.221 264.501 210.438 264.956 210.438 265.704H212.438C212.438 264.532 212.078 263.494 211.253 262.73L209.894 264.198ZM210.438 265.704C210.438 266.258 210.291 266.698 210.022 267.066L211.637 268.246C212.179 267.505 212.438 266.643 212.438 265.704H210.438ZM210.018 267.072C209.757 267.434 209.371 267.744 208.807 267.983L209.588 269.825C210.433 269.466 211.134 268.945 211.641 268.24L210.018 267.072ZM208.831 267.974C208.275 268.193 207.553 268.32 206.638 268.32V270.32C207.727 270.32 208.712 270.17 209.564 269.834L208.831 267.974ZM206.062 273.728C205.609 273.728 205.197 273.674 204.821 273.571L204.295 275.501C204.857 275.654 205.448 275.728 206.062 275.728V273.728ZM204.789 273.563C204.421 273.475 204.184 273.366 204.039 273.266L202.9 274.91C203.31 275.194 203.798 275.383 204.326 275.509L204.789 273.563ZM204.378 274.507L204.762 273.675L202.946 272.837L202.562 273.669L204.378 274.507ZM203.33 274.108C203.675 274.32 204.043 274.491 204.433 274.621L205.066 272.723C204.816 272.64 204.587 272.533 204.378 272.404L203.33 274.108ZM204.451 274.626C204.924 274.774 205.472 274.832 206.062 274.832V272.832C205.585 272.832 205.258 272.783 205.048 272.718L204.451 274.626ZM206.062 274.832C206.774 274.832 207.493 274.696 208.049 274.257C208.65 273.782 208.886 273.097 208.886 272.392H206.886C206.886 272.528 206.864 272.601 206.85 272.633C206.839 272.659 206.828 272.673 206.81 272.687C206.758 272.728 206.565 272.832 206.062 272.832V274.832ZM208.886 272.392C208.886 271.825 208.686 271.298 208.273 270.885L206.859 272.299C206.867 272.308 206.872 272.314 206.874 272.317C206.875 272.319 206.876 272.321 206.877 272.323C206.878 272.326 206.886 272.345 206.886 272.392H208.886ZM208.273 270.885C207.798 270.41 207.159 270.272 206.574 270.272V272.272C206.722 272.272 206.808 272.29 206.851 272.304C206.888 272.316 206.88 272.32 206.859 272.299L208.273 270.885ZM206.574 270.272C206.293 270.272 206.014 270.3 205.738 270.355L206.13 272.317C206.28 272.287 206.427 272.272 206.574 272.272V270.272ZM205.738 270.355C205.394 270.424 205.053 270.566 204.724 270.744L205.672 272.504C205.897 272.383 206.046 272.333 206.13 272.317L205.738 270.355ZM205.694 270.756L205.246 270.5L204.253 272.236L204.701 272.492L205.694 270.756ZM205.738 271.521L206.154 268.833L204.177 268.527L203.761 271.215L205.738 271.521ZM205.166 269.68H206.254V267.68H205.166V269.68ZM205.263 268.541L204.943 270.813L206.924 271.091L207.244 268.819L205.263 268.541ZM206.13 269.971L205.65 269.875L205.258 271.837L205.738 271.933L206.13 269.971ZM205.867 271.766C206.067 271.676 206.249 271.607 206.413 271.558L205.838 269.642C205.576 269.721 205.309 269.823 205.04 269.946L205.867 271.766ZM206.322 271.581C206.466 271.552 206.624 271.536 206.798 271.536V269.536C206.502 269.536 206.212 269.563 205.93 269.619L206.322 271.581ZM206.798 271.536C207.404 271.536 207.718 271.675 207.881 271.813L209.17 270.283C208.523 269.738 207.685 269.536 206.798 269.536V271.536ZM207.901 271.829C208.066 271.961 208.166 272.13 208.166 272.456H210.166C210.166 271.587 209.838 270.818 209.15 270.267L207.901 271.829ZM208.166 272.456C208.166 272.801 208.046 273.045 207.726 273.27L208.877 274.906C209.709 274.32 210.166 273.476 210.166 272.456H208.166ZM207.706 273.284C207.345 273.552 206.825 273.728 206.062 273.728V275.728C207.133 275.728 208.106 275.478 208.897 274.892L207.706 273.284ZM213.595 269H212.595V270H213.595V269ZM213.595 267.688V266.688H212.595V267.688H213.595ZM215.963 267.688V268.688H216.963V267.688H215.963ZM215.963 257.672H216.963V256.672H215.963V257.672ZM213.435 257.672H212.435V258.672H213.435V257.672ZM213.435 256.36V255.36H212.435V256.36H213.435ZM215.963 256.36V257.36H216.963V256.36H215.963ZM216.379 251.72L217.267 252.181L217.27 252.174L217.274 252.167L216.379 251.72ZM217.563 250.472L218.04 251.351L218.054 251.344L218.067 251.336L217.563 250.472ZM221.339 250.632L220.719 251.416L220.729 251.424L220.739 251.432L221.339 250.632ZM222.363 252.232L222.867 253.096L223.516 252.718L223.334 251.989L222.363 252.232ZM221.211 252.904L220.234 253.116L220.527 254.461L221.715 253.768L221.211 252.904ZM220.603 251.784L219.925 252.519L219.939 252.531L219.953 252.543L220.603 251.784ZM218.107 251.944L217.335 251.308L217.324 251.322L217.313 251.337L218.107 251.944ZM217.691 256.36H216.691V257.36H217.691V256.36ZM221.083 256.36H222.083V255.36H221.083V256.36ZM221.083 257.672V258.672H222.083V257.672H221.083ZM217.691 257.672V256.672H216.691V257.672H217.691ZM217.691 267.688H216.691V268.688H217.691V267.688ZM220.763 267.688H221.763V266.688H220.763V267.688ZM220.763 269V270H221.763V269H220.763ZM214.595 269V267.688H212.595V269H214.595ZM213.595 268.688H215.963V266.688H213.595V268.688ZM216.963 267.688V257.672H214.963V267.688H216.963ZM215.963 256.672H213.435V258.672H215.963V256.672ZM214.435 257.672V256.36H212.435V257.672H214.435ZM213.435 257.36H215.963V255.36H213.435V257.36ZM216.963 256.36V253.64H214.963V256.36H216.963ZM216.963 253.64C216.963 253.016 217.079 252.542 217.267 252.181L215.492 251.259C215.125 251.965 214.963 252.771 214.963 253.64H216.963ZM217.274 252.167C217.466 251.783 217.72 251.524 218.04 251.351L217.087 249.593C216.383 249.974 215.848 250.547 215.485 251.273L217.274 252.167ZM218.067 251.336C218.404 251.139 218.823 251.024 219.355 251.024V249.024C218.523 249.024 217.746 249.208 217.06 249.608L218.067 251.336ZM219.355 251.024C219.996 251.024 220.423 251.182 220.719 251.416L221.96 249.848C221.232 249.272 220.336 249.024 219.355 249.024V251.024ZM220.739 251.432C221.049 251.664 221.272 251.991 221.393 252.475L223.334 251.989C223.113 251.108 222.654 250.368 221.939 249.832L220.739 251.432ZM221.86 251.368L220.708 252.04L221.715 253.768L222.867 253.096L221.86 251.368ZM222.189 252.692C222.049 252.047 221.759 251.458 221.254 251.025L219.953 252.543C220.045 252.622 220.161 252.779 220.234 253.116L222.189 252.692ZM221.282 251.049C220.77 250.576 220.116 250.4 219.451 250.4V252.4C219.768 252.4 219.883 252.48 219.925 252.519L221.282 251.049ZM219.451 250.4C218.643 250.4 217.874 250.655 217.335 251.308L218.879 252.58C218.938 252.508 219.065 252.4 219.451 252.4V250.4ZM217.313 251.337C216.847 251.946 216.691 252.733 216.691 253.544H218.691C218.691 252.947 218.813 252.668 218.902 252.551L217.313 251.337ZM216.691 253.544V256.36H218.691V253.544H216.691ZM217.691 257.36H221.083V255.36H217.691V257.36ZM220.083 256.36V257.672H222.083V256.36H220.083ZM221.083 256.672H217.691V258.672H221.083V256.672ZM216.691 257.672V267.688H218.691V257.672H216.691ZM217.691 268.688H220.763V266.688H217.691V268.688ZM219.763 267.688V269H221.763V267.688H219.763ZM220.763 268H213.595V270H220.763V268ZM226.247 268.456L225.765 269.332L225.772 269.336L226.247 268.456ZM223.879 266.088L224.762 265.618L224.762 265.618L223.879 266.088ZM223.879 259.272L222.996 258.802L222.996 258.802L223.879 259.272ZM226.151 256.904L225.653 256.037L225.645 256.042L226.151 256.904ZM233.095 256.904L232.581 257.761L232.581 257.761L233.095 256.904ZM235.303 259.272L234.413 259.727L234.413 259.727L235.303 259.272ZM236.071 263.336V264.336H237.071V263.336H236.071ZM224.167 263.336H223.167V264.336H224.167V263.336ZM224.167 261.992V260.992H223.167V261.992H224.167ZM234.439 261.992V262.992H235.464L235.439 261.968L234.439 261.992ZM233.799 259.624L232.921 260.103L232.927 260.113L232.933 260.123L233.799 259.624ZM232.135 257.96L231.636 258.827L231.647 258.833L232.135 257.96ZM227.015 258.024L227.522 258.886L227.53 258.881L227.015 258.024ZM225.319 259.784L224.44 259.307L224.435 259.317L224.43 259.327L225.319 259.784ZM226.151 266.504L225.436 267.203L225.444 267.211L226.151 266.504ZM232.903 267.4L233.267 268.332L233.278 268.327L232.903 267.4ZM235.111 266.024L235.957 265.49L235.301 264.453L234.417 265.304L235.111 266.024ZM235.879 267.24L236.552 267.98L237.173 267.415L236.725 266.706L235.879 267.24ZM233.319 268.776L233.659 269.716L233.668 269.713L233.677 269.71L233.319 268.776ZM230.215 268.32C228.754 268.32 227.605 268.053 226.722 267.576L225.772 269.336C227.022 270.011 228.519 270.32 230.215 270.32V268.32ZM226.73 267.58C225.845 267.093 225.199 266.441 224.762 265.618L222.996 266.558C223.626 267.741 224.558 268.667 225.765 269.332L226.73 267.58ZM224.762 265.618C224.314 264.775 224.079 263.809 224.079 262.696H222.079C222.079 264.1 222.378 265.395 222.996 266.558L224.762 265.618ZM224.079 262.696C224.079 261.559 224.315 260.582 224.762 259.742L222.996 258.802C222.377 259.967 222.079 261.273 222.079 262.696H224.079ZM224.762 259.742C225.208 258.903 225.835 258.249 226.657 257.766L225.645 256.042C224.504 256.711 223.617 257.636 222.996 258.802L224.762 259.742ZM226.649 257.771C227.48 257.294 228.466 257.04 229.639 257.04V255.04C228.167 255.04 226.828 255.362 225.653 256.037L226.649 257.771ZM229.639 257.04C230.838 257.04 231.805 257.296 232.581 257.761L233.61 256.047C232.466 255.36 231.128 255.04 229.639 255.04V257.04ZM232.581 257.761C233.379 258.241 233.985 258.89 234.413 259.727L236.194 258.817C235.597 257.649 234.731 256.719 233.61 256.047L232.581 257.761ZM234.413 259.727C234.843 260.57 235.071 261.552 235.071 262.696H237.071C237.071 261.28 236.787 259.979 236.194 258.817L234.413 259.727ZM235.071 262.696V263.336H237.071V262.696H235.071ZM236.071 262.336H224.167V264.336H236.071V262.336ZM225.167 263.336V261.992H223.167V263.336H225.167ZM224.167 262.992H234.439V260.992H224.167V262.992ZM235.439 261.968C235.414 260.939 235.161 259.985 234.666 259.125L232.933 260.123C233.248 260.671 233.422 261.295 233.439 262.016L235.439 261.968ZM234.677 259.145C234.199 258.269 233.507 257.581 232.623 257.087L231.647 258.833C232.214 259.15 232.631 259.571 232.921 260.103L234.677 259.145ZM232.634 257.093C231.753 256.586 230.742 256.352 229.639 256.352V258.352C230.456 258.352 231.109 258.523 231.636 258.827L232.634 257.093ZM229.639 256.352C228.483 256.352 227.425 256.612 226.501 257.167L227.53 258.881C228.099 258.54 228.79 258.352 229.639 258.352V256.352ZM226.508 257.162C225.625 257.682 224.931 258.402 224.44 259.307L226.198 260.261C226.518 259.672 226.955 259.22 227.522 258.886L226.508 257.162ZM224.43 259.327C223.967 260.228 223.743 261.219 223.743 262.28H225.743C225.743 261.507 225.904 260.834 226.208 260.241L224.43 259.327ZM223.743 262.28V262.696H225.743V262.28H223.743ZM223.743 262.696C223.743 264.487 224.283 266.024 225.436 267.203L226.866 265.805C226.142 265.064 225.743 264.063 225.743 262.696H223.743ZM225.444 267.211C226.628 268.395 228.285 268.912 230.247 268.912V266.912C228.625 266.912 227.551 266.49 226.858 265.797L225.444 267.211ZM230.247 268.912C231.273 268.912 232.282 268.716 233.267 268.332L232.54 266.468C231.775 266.767 231.013 266.912 230.247 266.912V268.912ZM233.278 268.327C234.269 267.926 235.12 267.404 235.805 266.744L234.417 265.304C233.95 265.753 233.33 266.149 232.528 266.473L233.278 268.327ZM234.266 266.558L235.034 267.774L236.725 266.706L235.957 265.49L234.266 266.558ZM235.206 266.5C234.606 267.046 233.863 267.497 232.961 267.842L233.677 269.71C234.781 269.287 235.745 268.714 236.552 267.98L235.206 266.5ZM232.979 267.836C232.085 268.159 231.166 268.32 230.215 268.32V270.32C231.398 270.32 232.547 270.119 233.659 269.716L232.979 267.836ZM241.549 268.456L240.994 269.288L241.001 269.293L241.008 269.297L241.549 268.456ZM239.501 266.056L238.588 266.464L238.592 266.472L238.595 266.48L239.501 266.056ZM239.501 259.304L238.595 258.88L238.591 258.889L239.501 259.304ZM241.549 256.936L242.09 257.777L242.097 257.773L242.104 257.768L241.549 256.936ZM247.725 256.68L247.287 257.579L247.295 257.583L247.725 256.68ZM249.837 258.536L249.453 259.459L252.371 260.675L250.683 258.002L249.837 258.536ZM249.453 258.376H248.453V259.043L249.069 259.299L249.453 258.376ZM249.453 251.656H250.453V250.656H249.453V251.656ZM246.925 251.656H245.925V252.656H246.925V251.656ZM246.925 250.344V249.344H245.925V250.344H246.925ZM251.181 250.344H252.181V249.344H251.181V250.344ZM251.181 267.688H250.181V268.688H251.181V267.688ZM253.421 267.688H254.421V266.688H253.421V267.688ZM253.421 269V270H254.421V269H253.421ZM249.517 269H248.517V270H249.517V269ZM249.517 266.92L249.23 265.962L248.517 266.176V266.92H249.517ZM249.837 266.824L250.676 267.368L252.158 265.084L249.55 265.866L249.837 266.824ZM247.725 268.68L248.164 269.579L248.172 269.574L247.725 268.68ZM247.661 267.336L247.244 266.427L247.234 266.432L247.661 267.336ZM249.581 265.768L250.57 265.915L248.769 265.184L249.581 265.768ZM249.453 266.632H248.453L250.442 266.779L249.453 266.632ZM249.453 258.792L250.441 258.634L248.453 258.792H249.453ZM249.581 259.592L248.761 260.164L250.569 259.434L249.581 259.592ZM247.661 258.024L247.234 258.928L247.249 258.935L247.264 258.942L247.661 258.024ZM241.741 258.856L241.009 258.175L241.008 258.176L241.741 258.856ZM241.741 266.504L241 267.176L241.009 267.185L241.741 266.504ZM244.845 268.32C243.693 268.32 242.792 268.066 242.09 267.615L241.008 269.297C242.098 269.998 243.395 270.32 244.845 270.32V268.32ZM242.104 267.624C241.364 267.131 240.801 266.474 240.407 265.632L238.595 266.48C239.14 267.643 239.942 268.586 240.994 269.288L242.104 267.624ZM240.414 265.648C240.031 264.791 239.829 263.803 239.829 262.664H237.829C237.829 264.043 238.075 265.315 238.588 266.464L240.414 265.648ZM239.829 262.664C239.829 261.525 240.031 260.55 240.411 259.719L238.591 258.889C238.075 260.02 237.829 261.286 237.829 262.664H239.829ZM240.407 259.728C240.8 258.889 241.359 258.247 242.09 257.777L241.008 256.095C239.947 256.777 239.141 257.714 238.595 258.88L240.407 259.728ZM242.104 257.768C242.804 257.301 243.7 257.04 244.845 257.04V255.04C243.388 255.04 242.086 255.376 240.994 256.104L242.104 257.768ZM244.845 257.04C245.75 257.04 246.559 257.224 247.287 257.579L248.164 255.781C247.142 255.283 246.031 255.04 244.845 255.04V257.04ZM247.295 257.583C248.027 257.931 248.584 258.425 248.992 259.07L250.683 258.002C250.066 257.026 249.215 256.282 248.155 255.777L247.295 257.583ZM250.222 257.613L249.838 257.453L249.069 259.299L249.453 259.459L250.222 257.613ZM250.453 258.376V251.656H248.453V258.376H250.453ZM249.453 250.656H246.925V252.656H249.453V250.656ZM247.925 251.656V250.344H245.925V251.656H247.925ZM246.925 251.344H251.181V249.344H246.925V251.344ZM250.181 250.344V267.688H252.181V250.344H250.181ZM251.181 268.688H253.421V266.688H251.181V268.688ZM252.421 267.688V269H254.421V267.688H252.421ZM253.421 268H249.517V270H253.421V268ZM250.517 269V266.92H248.517V269H250.517ZM249.804 267.878L250.124 267.782L249.55 265.866L249.23 265.962L249.804 267.878ZM248.998 266.28C248.59 266.91 248.025 267.412 247.278 267.786L248.172 269.574C249.217 269.052 250.061 268.317 250.676 267.368L248.998 266.28ZM247.287 267.781C246.559 268.136 245.75 268.32 244.845 268.32V270.32C246.031 270.32 247.142 270.077 248.164 269.579L247.287 267.781ZM245.101 268.88C246.172 268.88 247.173 268.672 248.088 268.24L247.234 266.432C246.613 266.725 245.908 266.88 245.101 266.88V268.88ZM248.079 268.245C249.02 267.812 249.798 267.18 250.393 266.352L248.769 265.184C248.383 265.722 247.881 266.134 247.244 266.427L248.079 268.245ZM248.592 265.621L248.464 266.485L250.442 266.779L250.57 265.915L248.592 265.621ZM250.453 266.632V258.792H248.453V266.632H250.453ZM248.466 258.95L248.594 259.75L250.569 259.434L250.441 258.634L248.466 258.95ZM250.402 259.02C249.804 258.163 249.018 257.521 248.058 257.106L247.264 258.942C247.883 259.21 248.377 259.613 248.761 260.164L250.402 259.02ZM248.088 257.12C247.173 256.688 246.172 256.48 245.101 256.48V258.48C245.908 258.48 246.613 258.635 247.234 258.928L248.088 257.12ZM245.101 256.48C243.47 256.48 242.073 257.031 241.009 258.175L242.473 259.537C243.116 258.846 243.959 258.48 245.101 258.48V256.48ZM241.008 258.176C239.953 259.312 239.493 260.857 239.493 262.664H241.493C241.493 261.185 241.866 260.192 242.474 259.536L241.008 258.176ZM239.493 262.664C239.493 264.472 239.953 266.021 241 267.176L242.482 265.832C241.865 265.152 241.493 264.141 241.493 262.664H239.493ZM241.009 267.185C242.073 268.329 243.47 268.88 245.101 268.88V266.88C243.959 266.88 243.116 266.514 242.473 265.823L241.009 267.185ZM254.752 269H253.752V270H254.752V269ZM254.752 267.688V266.688H253.752V267.688H254.752ZM257.12 267.688V268.688H258.12V267.688H257.12ZM257.12 257.672H258.12V256.672H257.12V257.672ZM254.592 257.672H253.592V258.672H254.592V257.672ZM254.592 256.36V255.36H253.592V256.36H254.592ZM258.848 256.36H259.848V255.36H258.848V256.36ZM258.848 267.688H257.848V268.688H258.848V267.688ZM261.056 267.688H262.056V266.688H261.056V267.688ZM261.056 269V270H262.056V269H261.056ZM256.96 253.352L256.191 253.992L256.191 253.992L256.96 253.352ZM256.96 251.528L257.728 252.168L257.728 252.168L256.96 251.528ZM258.944 251.528L258.175 252.168L258.191 252.186L258.206 252.204L258.944 251.528ZM258.944 253.352L258.206 252.676L258.191 252.694L258.175 252.712L258.944 253.352ZM255.752 269V267.688H253.752V269H255.752ZM254.752 268.688H257.12V266.688H254.752V268.688ZM258.12 267.688V257.672H256.12V267.688H258.12ZM257.12 256.672H254.592V258.672H257.12V256.672ZM255.592 257.672V256.36H253.592V257.672H255.592ZM254.592 257.36H258.848V255.36H254.592V257.36ZM257.848 256.36V267.688H259.848V256.36H257.848ZM258.848 268.688H261.056V266.688H258.848V268.688ZM260.056 267.688V269H262.056V267.688H260.056ZM261.056 268H254.752V270H261.056V268ZM257.952 252.736C257.82 252.736 257.753 252.717 257.729 252.707C257.711 252.701 257.719 252.701 257.728 252.712L256.191 253.992C256.655 254.548 257.315 254.736 257.952 254.736V252.736ZM257.728 252.712C257.668 252.64 257.64 252.57 257.64 252.456H255.64C255.64 253.025 255.824 253.552 256.191 253.992L257.728 252.712ZM257.64 252.456C257.64 252.305 257.678 252.228 257.728 252.168L256.191 250.888C255.815 251.34 255.64 251.882 255.64 252.456H257.64ZM257.728 252.168C257.719 252.179 257.711 252.179 257.729 252.173C257.753 252.163 257.82 252.144 257.952 252.144V250.144C257.315 250.144 256.655 250.332 256.191 250.888L257.728 252.168ZM257.952 252.144C258.083 252.144 258.15 252.163 258.175 252.173C258.192 252.179 258.184 252.179 258.175 252.168L259.712 250.888C259.249 250.332 258.588 250.144 257.952 250.144V252.144ZM258.206 252.204C258.264 252.267 258.296 252.331 258.296 252.456H260.296C260.296 251.855 260.093 251.301 259.681 250.852L258.206 252.204ZM258.296 252.456C258.296 252.542 258.275 252.601 258.206 252.676L259.681 254.028C260.081 253.591 260.296 253.052 260.296 252.456H258.296ZM258.175 252.712C258.184 252.701 258.192 252.701 258.175 252.707C258.15 252.717 258.083 252.736 257.952 252.736V254.736C258.588 254.736 259.249 254.548 259.712 253.992L258.175 252.712ZM262.658 269H261.658V270H262.658V269ZM262.658 267.688V266.688H261.658V267.688H262.658ZM265.026 267.688V268.688H266.026V267.688H265.026ZM265.026 257.672H266.026V256.672H265.026V257.672ZM262.498 257.672H261.498V258.672H262.498V257.672ZM262.498 256.36V255.36H261.498V256.36H262.498ZM266.658 256.36H267.658V255.36H266.658V256.36ZM266.658 258.12L266.974 259.069L267.658 258.841V258.12H266.658ZM266.274 258.248L265.607 257.503L266.59 259.197L266.274 258.248ZM268.898 256.616L269.258 257.549L269.267 257.545L269.277 257.542L268.898 256.616ZM275.906 267.688H274.906V268.688H275.906V267.688ZM278.114 267.688H279.114V266.688H278.114V267.688ZM278.114 269V270H279.114V269H278.114ZM271.81 269H270.81V270H271.81V269ZM271.81 267.688V266.688H270.81V267.688H271.81ZM274.178 267.688V268.688H275.178V267.688H274.178ZM273.442 258.216L272.719 258.907L272.735 258.923L272.751 258.939L273.442 258.216ZM268.866 257.896L269.182 258.845L269.19 258.842L269.197 258.839L268.866 257.896ZM266.306 259.464L265.425 258.99L266.949 260.229L266.306 259.464ZM266.754 258.632H267.754L265.873 258.158L266.754 258.632ZM266.754 267.688H265.754V268.688H266.754V267.688ZM268.962 267.688H269.962V266.688H268.962V267.688ZM268.962 269V270H269.962V269H268.962ZM263.658 269V267.688H261.658V269H263.658ZM262.658 268.688H265.026V266.688H262.658V268.688ZM266.026 267.688V257.672H264.026V267.688H266.026ZM265.026 256.672H262.498V258.672H265.026V256.672ZM263.498 257.672V256.36H261.498V257.672H263.498ZM262.498 257.36H266.658V255.36H262.498V257.36ZM265.658 256.36V258.12H267.658V256.36H265.658ZM266.342 257.171L265.958 257.299L266.59 259.197L266.974 259.069L266.342 257.171ZM266.941 258.993C267.669 258.342 268.441 257.865 269.258 257.549L268.537 255.683C267.477 256.093 266.5 256.703 265.607 257.503L266.941 258.993ZM269.277 257.542C270.114 257.199 270.892 257.04 271.618 257.04V255.04C270.594 255.04 269.559 255.265 268.519 255.69L269.277 257.542ZM271.618 257.04C272.932 257.04 273.709 257.351 274.154 257.782L275.546 256.346C274.583 255.412 273.205 255.04 271.618 255.04V257.04ZM274.154 257.782C274.584 258.2 274.906 258.96 274.906 260.296H276.906C276.906 258.688 276.523 257.294 275.546 256.346L274.154 257.782ZM274.906 260.296V267.688H276.906V260.296H274.906ZM275.906 268.688H278.114V266.688H275.906V268.688ZM277.114 267.688V269H279.114V267.688H277.114ZM278.114 268H271.81V270H278.114V268ZM272.81 269V267.688H270.81V269H272.81ZM271.81 268.688H274.178V266.688H271.81V268.688ZM275.178 267.688V260.456H273.178V267.688H275.178ZM275.178 260.456C275.178 259.297 274.902 258.229 274.133 257.493L272.751 258.939C272.963 259.142 273.178 259.567 273.178 260.456H275.178ZM274.165 257.525C273.426 256.752 272.343 256.48 271.17 256.48V258.48C272.087 258.48 272.52 258.698 272.719 258.907L274.165 257.525ZM271.17 256.48C270.298 256.48 269.418 256.642 268.534 256.953L269.197 258.839C269.893 258.595 270.549 258.48 271.17 258.48V256.48ZM268.55 256.947C267.617 257.258 266.653 257.866 265.662 258.699L266.949 260.229C267.836 259.484 268.579 259.046 269.182 258.845L268.55 256.947ZM267.186 259.938L267.634 259.106L265.873 258.158L265.425 258.99L267.186 259.938ZM265.754 258.632V267.688H267.754V258.632H265.754ZM266.754 268.688H268.962V266.688H266.754V268.688ZM267.962 267.688V269H269.962V267.688H267.962ZM268.962 268H262.658V270H268.962V268Z" fill="black" mask="url(#path-7-outside-1_14_38)"/>
</svg>
